<?xml version="1.0" encoding="utf-8"?>
<svg xmlns="http://www.w3.org/2000/svg" xmlns:xlink="http://www.w3.org/1999/xlink" width="600" height="400" viewBox="0 0 2400 1600">
<defs>
  <clipPath id="clip930">
    <rect x="0" y="0" width="2400" height="1600"/>
  </clipPath>
</defs>
<path clip-path="url(#clip930)" d="
M0 1600 L2400 1600 L2400 0 L0 0  Z
  " fill="#ffffff" fill-rule="evenodd" fill-opacity="1"/>
<defs>
  <clipPath id="clip931">
    <rect x="480" y="0" width="1681" height="1600"/>
  </clipPath>
</defs>
<path clip-path="url(#clip930)" d="
M132.063 1485.62 L2352.76 1485.62 L2352.76 62.9921 L132.063 62.9921  Z
  " fill="#ffffff" fill-rule="evenodd" fill-opacity="1"/>
<defs>
  <clipPath id="clip932">
    <rect x="132" y="62" width="2222" height="1424"/>
  </clipPath>
</defs>
<polyline clip-path="url(#clip932)" style="stroke:#000000; stroke-width:2; stroke-opacity:0.1; fill:none" points="
  194.913,1485.62 194.913,62.9921 
  "/>
<polyline clip-path="url(#clip932)" style="stroke:#000000; stroke-width:2; stroke-opacity:0.1; fill:none" points="
  718.661,1485.62 718.661,62.9921 
  "/>
<polyline clip-path="url(#clip932)" style="stroke:#000000; stroke-width:2; stroke-opacity:0.1; fill:none" points="
  1242.41,1485.62 1242.41,62.9921 
  "/>
<polyline clip-path="url(#clip932)" style="stroke:#000000; stroke-width:2; stroke-opacity:0.1; fill:none" points="
  1766.16,1485.62 1766.16,62.9921 
  "/>
<polyline clip-path="url(#clip932)" style="stroke:#000000; stroke-width:2; stroke-opacity:0.1; fill:none" points="
  2289.91,1485.62 2289.91,62.9921 
  "/>
<polyline clip-path="url(#clip932)" style="stroke:#000000; stroke-width:2; stroke-opacity:0.1; fill:none" points="
  132.063,1445.36 2352.76,1445.36 
  "/>
<polyline clip-path="url(#clip932)" style="stroke:#000000; stroke-width:2; stroke-opacity:0.1; fill:none" points="
  132.063,1133.48 2352.76,1133.48 
  "/>
<polyline clip-path="url(#clip932)" style="stroke:#000000; stroke-width:2; stroke-opacity:0.1; fill:none" points="
  132.063,821.605 2352.76,821.605 
  "/>
<polyline clip-path="url(#clip932)" style="stroke:#000000; stroke-width:2; stroke-opacity:0.1; fill:none" points="
  132.063,509.727 2352.76,509.727 
  "/>
<polyline clip-path="url(#clip932)" style="stroke:#000000; stroke-width:2; stroke-opacity:0.1; fill:none" points="
  132.063,197.849 2352.76,197.849 
  "/>
<polyline clip-path="url(#clip930)" style="stroke:#000000; stroke-width:4; stroke-opacity:1; fill:none" points="
  132.063,1485.62 2352.76,1485.62 
  "/>
<polyline clip-path="url(#clip930)" style="stroke:#000000; stroke-width:4; stroke-opacity:1; fill:none" points="
  132.063,1485.62 132.063,62.9921 
  "/>
<polyline clip-path="url(#clip930)" style="stroke:#000000; stroke-width:4; stroke-opacity:1; fill:none" points="
  194.913,1485.62 194.913,1468.55 
  "/>
<polyline clip-path="url(#clip930)" style="stroke:#000000; stroke-width:4; stroke-opacity:1; fill:none" points="
  718.661,1485.62 718.661,1468.55 
  "/>
<polyline clip-path="url(#clip930)" style="stroke:#000000; stroke-width:4; stroke-opacity:1; fill:none" points="
  1242.41,1485.62 1242.41,1468.55 
  "/>
<polyline clip-path="url(#clip930)" style="stroke:#000000; stroke-width:4; stroke-opacity:1; fill:none" points="
  1766.16,1485.62 1766.16,1468.55 
  "/>
<polyline clip-path="url(#clip930)" style="stroke:#000000; stroke-width:4; stroke-opacity:1; fill:none" points="
  2289.91,1485.62 2289.91,1468.55 
  "/>
<polyline clip-path="url(#clip930)" style="stroke:#000000; stroke-width:4; stroke-opacity:1; fill:none" points="
  132.063,1445.36 158.711,1445.36 
  "/>
<polyline clip-path="url(#clip930)" style="stroke:#000000; stroke-width:4; stroke-opacity:1; fill:none" points="
  132.063,1133.48 158.711,1133.48 
  "/>
<polyline clip-path="url(#clip930)" style="stroke:#000000; stroke-width:4; stroke-opacity:1; fill:none" points="
  132.063,821.605 158.711,821.605 
  "/>
<polyline clip-path="url(#clip930)" style="stroke:#000000; stroke-width:4; stroke-opacity:1; fill:none" points="
  132.063,509.727 158.711,509.727 
  "/>
<polyline clip-path="url(#clip930)" style="stroke:#000000; stroke-width:4; stroke-opacity:1; fill:none" points="
  132.063,197.849 158.711,197.849 
  "/>
<path clip-path="url(#clip930)" d="M 0 0 M162.922 1507.62 Q159.311 1507.62 157.483 1511.18 Q155.677 1514.72 155.677 1521.85 Q155.677 1528.96 157.483 1532.52 Q159.311 1536.06 162.922 1536.06 Q166.557 1536.06 168.362 1532.52 Q170.191 1528.96 170.191 1521.85 Q170.191 1514.72 168.362 1511.18 Q166.557 1507.62 162.922 1507.62 M162.922 1503.91 Q168.732 1503.91 171.788 1508.52 Q174.867 1513.1 174.867 1521.85 Q174.867 1530.58 171.788 1535.18 Q168.732 1539.77 162.922 1539.77 Q157.112 1539.77 154.033 1535.18 Q150.978 1530.58 150.978 1521.85 Q150.978 1513.1 154.033 1508.52 Q157.112 1503.91 162.922 1503.91 Z" fill="#000000" fill-rule="evenodd" fill-opacity="1" /><path clip-path="url(#clip930)" d="M 0 0 M179.936 1533.22 L184.82 1533.22 L184.82 1539.1 L179.936 1539.1 L179.936 1533.22 Z" fill="#000000" fill-rule="evenodd" fill-opacity="1" /><path clip-path="url(#clip930)" d="M 0 0 M199.89 1507.62 Q196.279 1507.62 194.45 1511.18 Q192.644 1514.72 192.644 1521.85 Q192.644 1528.96 194.45 1532.52 Q196.279 1536.06 199.89 1536.06 Q203.524 1536.06 205.329 1532.52 Q207.158 1528.96 207.158 1521.85 Q207.158 1514.72 205.329 1511.18 Q203.524 1507.62 199.89 1507.62 M199.89 1503.91 Q205.7 1503.91 208.755 1508.52 Q211.834 1513.1 211.834 1521.85 Q211.834 1530.58 208.755 1535.18 Q205.7 1539.77 199.89 1539.77 Q194.08 1539.77 191.001 1535.18 Q187.945 1530.58 187.945 1521.85 Q187.945 1513.1 191.001 1508.52 Q194.08 1503.91 199.89 1503.91 Z" fill="#000000" fill-rule="evenodd" fill-opacity="1" /><path clip-path="url(#clip930)" d="M 0 0 M226.903 1507.62 Q223.292 1507.62 221.464 1511.18 Q219.658 1514.72 219.658 1521.85 Q219.658 1528.96 221.464 1532.52 Q223.292 1536.06 226.903 1536.06 Q230.538 1536.06 232.343 1532.52 Q234.172 1528.96 234.172 1521.85 Q234.172 1514.72 232.343 1511.18 Q230.538 1507.62 226.903 1507.62 M226.903 1503.91 Q232.714 1503.91 235.769 1508.52 Q238.848 1513.1 238.848 1521.85 Q238.848 1530.58 235.769 1535.18 Q232.714 1539.77 226.903 1539.77 Q221.093 1539.77 218.015 1535.18 Q214.959 1530.58 214.959 1521.85 Q214.959 1513.1 218.015 1508.52 Q221.093 1503.91 226.903 1503.91 Z" fill="#000000" fill-rule="evenodd" fill-opacity="1" /><path clip-path="url(#clip930)" d="M 0 0 M687.967 1507.62 Q684.356 1507.62 682.527 1511.18 Q680.722 1514.72 680.722 1521.85 Q680.722 1528.96 682.527 1532.52 Q684.356 1536.06 687.967 1536.06 Q691.601 1536.06 693.407 1532.52 Q695.235 1528.96 695.235 1521.85 Q695.235 1514.72 693.407 1511.18 Q691.601 1507.62 687.967 1507.62 M687.967 1503.91 Q693.777 1503.91 696.833 1508.52 Q699.911 1513.1 699.911 1521.85 Q699.911 1530.58 696.833 1535.18 Q693.777 1539.77 687.967 1539.77 Q682.157 1539.77 679.078 1535.18 Q676.023 1530.58 676.023 1521.85 Q676.023 1513.1 679.078 1508.52 Q682.157 1503.91 687.967 1503.91 Z" fill="#000000" fill-rule="evenodd" fill-opacity="1" /><path clip-path="url(#clip930)" d="M 0 0 M704.981 1533.22 L709.865 1533.22 L709.865 1539.1 L704.981 1539.1 L704.981 1533.22 Z" fill="#000000" fill-rule="evenodd" fill-opacity="1" /><path clip-path="url(#clip930)" d="M 0 0 M718.962 1535.16 L735.281 1535.16 L735.281 1539.1 L713.337 1539.1 L713.337 1535.16 Q715.999 1532.41 720.582 1527.78 Q725.189 1523.12 726.369 1521.78 Q728.615 1519.26 729.494 1517.52 Q730.397 1515.76 730.397 1514.07 Q730.397 1511.32 728.453 1509.58 Q726.532 1507.85 723.43 1507.85 Q721.231 1507.85 718.777 1508.61 Q716.346 1509.37 713.569 1510.93 L713.569 1506.2 Q716.393 1505.07 718.846 1504.49 Q721.3 1503.91 723.337 1503.91 Q728.707 1503.91 731.902 1506.6 Q735.096 1509.28 735.096 1513.77 Q735.096 1515.9 734.286 1517.82 Q733.499 1519.72 731.393 1522.31 Q730.814 1522.99 727.712 1526.2 Q724.61 1529.4 718.962 1535.16 Z" fill="#000000" fill-rule="evenodd" fill-opacity="1" /><path clip-path="url(#clip930)" d="M 0 0 M740.397 1504.54 L758.754 1504.54 L758.754 1508.47 L744.68 1508.47 L744.68 1516.94 Q745.698 1516.6 746.717 1516.43 Q747.735 1516.25 748.754 1516.25 Q754.541 1516.25 757.92 1519.42 Q761.3 1522.59 761.3 1528.01 Q761.3 1533.59 757.828 1536.69 Q754.355 1539.77 748.036 1539.77 Q745.86 1539.77 743.592 1539.4 Q741.346 1539.03 738.939 1538.29 L738.939 1533.59 Q741.022 1534.72 743.244 1535.28 Q745.467 1535.83 747.943 1535.83 Q751.948 1535.83 754.286 1533.73 Q756.624 1531.62 756.624 1528.01 Q756.624 1524.4 754.286 1522.29 Q751.948 1520.18 747.943 1520.18 Q746.068 1520.18 744.193 1520.6 Q742.342 1521.02 740.397 1521.9 L740.397 1504.54 Z" fill="#000000" fill-rule="evenodd" fill-opacity="1" /><path clip-path="url(#clip930)" d="M 0 0 M1210.92 1507.62 Q1207.31 1507.62 1205.48 1511.18 Q1203.67 1514.72 1203.67 1521.85 Q1203.67 1528.96 1205.48 1532.52 Q1207.31 1536.06 1210.92 1536.06 Q1214.55 1536.06 1216.36 1532.52 Q1218.19 1528.96 1218.19 1521.85 Q1218.19 1514.72 1216.36 1511.18 Q1214.55 1507.62 1210.92 1507.62 M1210.92 1503.91 Q1216.73 1503.91 1219.78 1508.52 Q1222.86 1513.1 1222.86 1521.85 Q1222.86 1530.58 1219.78 1535.18 Q1216.73 1539.77 1210.92 1539.77 Q1205.11 1539.77 1202.03 1535.18 Q1198.97 1530.58 1198.97 1521.85 Q1198.97 1513.1 1202.03 1508.52 Q1205.11 1503.91 1210.92 1503.91 Z" fill="#000000" fill-rule="evenodd" fill-opacity="1" /><path clip-path="url(#clip930)" d="M 0 0 M1227.93 1533.22 L1232.81 1533.22 L1232.81 1539.1 L1227.93 1539.1 L1227.93 1533.22 Z" fill="#000000" fill-rule="evenodd" fill-opacity="1" /><path clip-path="url(#clip930)" d="M 0 0 M1237.93 1504.54 L1256.29 1504.54 L1256.29 1508.47 L1242.21 1508.47 L1242.21 1516.94 Q1243.23 1516.6 1244.25 1516.43 Q1245.27 1516.25 1246.29 1516.25 Q1252.07 1516.25 1255.45 1519.42 Q1258.83 1522.59 1258.83 1528.01 Q1258.83 1533.59 1255.36 1536.69 Q1251.89 1539.77 1245.57 1539.77 Q1243.39 1539.77 1241.12 1539.4 Q1238.88 1539.03 1236.47 1538.29 L1236.47 1533.59 Q1238.56 1534.72 1240.78 1535.28 Q1243 1535.83 1245.48 1535.83 Q1249.48 1535.83 1251.82 1533.73 Q1254.16 1531.62 1254.16 1528.01 Q1254.16 1524.4 1251.82 1522.29 Q1249.48 1520.18 1245.48 1520.18 Q1243.6 1520.18 1241.73 1520.6 Q1239.87 1521.02 1237.93 1521.9 L1237.93 1504.54 Z" fill="#000000" fill-rule="evenodd" fill-opacity="1" /><path clip-path="url(#clip930)" d="M 0 0 M1273.9 1507.62 Q1270.29 1507.62 1268.46 1511.18 Q1266.66 1514.72 1266.66 1521.85 Q1266.66 1528.96 1268.46 1532.52 Q1270.29 1536.06 1273.9 1536.06 Q1277.54 1536.06 1279.34 1532.52 Q1281.17 1528.96 1281.17 1521.85 Q1281.17 1514.72 1279.34 1511.18 Q1277.54 1507.62 1273.9 1507.62 M1273.9 1503.91 Q1279.71 1503.91 1282.77 1508.52 Q1285.85 1513.1 1285.85 1521.85 Q1285.85 1530.58 1282.77 1535.18 Q1279.71 1539.77 1273.9 1539.77 Q1268.09 1539.77 1265.01 1535.18 Q1261.96 1530.58 1261.96 1521.85 Q1261.96 1513.1 1265.01 1508.52 Q1268.09 1503.91 1273.9 1503.91 Z" fill="#000000" fill-rule="evenodd" fill-opacity="1" /><path clip-path="url(#clip930)" d="M 0 0 M1735.12 1507.62 Q1731.51 1507.62 1729.68 1511.18 Q1727.87 1514.72 1727.87 1521.85 Q1727.87 1528.96 1729.68 1532.52 Q1731.51 1536.06 1735.12 1536.06 Q1738.75 1536.06 1740.56 1532.52 Q1742.38 1528.96 1742.38 1521.85 Q1742.38 1514.72 1740.56 1511.18 Q1738.75 1507.62 1735.12 1507.62 M1735.12 1503.91 Q1740.93 1503.91 1743.98 1508.52 Q1747.06 1513.1 1747.06 1521.85 Q1747.06 1530.58 1743.98 1535.18 Q1740.93 1539.77 1735.12 1539.77 Q1729.31 1539.77 1726.23 1535.18 Q1723.17 1530.58 1723.17 1521.85 Q1723.17 1513.1 1726.23 1508.52 Q1729.31 1503.91 1735.12 1503.91 Z" fill="#000000" fill-rule="evenodd" fill-opacity="1" /><path clip-path="url(#clip930)" d="M 0 0 M1752.13 1533.22 L1757.01 1533.22 L1757.01 1539.1 L1752.13 1539.1 L1752.13 1533.22 Z" fill="#000000" fill-rule="evenodd" fill-opacity="1" /><path clip-path="url(#clip930)" d="M 0 0 M1760.9 1504.54 L1783.13 1504.54 L1783.13 1506.53 L1770.58 1539.1 L1765.69 1539.1 L1777.5 1508.47 L1760.9 1508.47 L1760.9 1504.54 Z" fill="#000000" fill-rule="evenodd" fill-opacity="1" /><path clip-path="url(#clip930)" d="M 0 0 M1788.24 1504.54 L1806.6 1504.54 L1806.6 1508.47 L1792.52 1508.47 L1792.52 1516.94 Q1793.54 1516.6 1794.56 1516.43 Q1795.58 1516.25 1796.6 1516.25 Q1802.38 1516.25 1805.76 1519.42 Q1809.14 1522.59 1809.14 1528.01 Q1809.14 1533.59 1805.67 1536.69 Q1802.2 1539.77 1795.88 1539.77 Q1793.7 1539.77 1791.44 1539.4 Q1789.19 1539.03 1786.78 1538.29 L1786.78 1533.59 Q1788.87 1534.72 1791.09 1535.28 Q1793.31 1535.83 1795.79 1535.83 Q1799.79 1535.83 1802.13 1533.73 Q1804.47 1531.62 1804.47 1528.01 Q1804.47 1524.4 1802.13 1522.29 Q1799.79 1520.18 1795.79 1520.18 Q1793.91 1520.18 1792.04 1520.6 Q1790.19 1521.02 1788.24 1521.9 L1788.24 1504.54 Z" fill="#000000" fill-rule="evenodd" fill-opacity="1" /><path clip-path="url(#clip930)" d="M 0 0 M2248.3 1535.16 L2255.94 1535.16 L2255.94 1508.8 L2247.63 1510.46 L2247.63 1506.2 L2255.89 1504.54 L2260.57 1504.54 L2260.57 1535.16 L2268.2 1535.16 L2268.2 1539.1 L2248.3 1539.1 L2248.3 1535.16 Z" fill="#000000" fill-rule="evenodd" fill-opacity="1" /><path clip-path="url(#clip930)" d="M 0 0 M2273.27 1533.22 L2278.16 1533.22 L2278.16 1539.1 L2273.27 1539.1 L2273.27 1533.22 Z" fill="#000000" fill-rule="evenodd" fill-opacity="1" /><path clip-path="url(#clip930)" d="M 0 0 M2293.23 1507.62 Q2289.62 1507.62 2287.79 1511.18 Q2285.98 1514.72 2285.98 1521.85 Q2285.98 1528.96 2287.79 1532.52 Q2289.62 1536.06 2293.23 1536.06 Q2296.86 1536.06 2298.67 1532.52 Q2300.5 1528.96 2300.5 1521.85 Q2300.5 1514.72 2298.67 1511.18 Q2296.86 1507.62 2293.23 1507.62 M2293.23 1503.91 Q2299.04 1503.91 2302.09 1508.52 Q2305.17 1513.1 2305.17 1521.85 Q2305.17 1530.58 2302.09 1535.18 Q2299.04 1539.77 2293.23 1539.77 Q2287.42 1539.77 2284.34 1535.18 Q2281.28 1530.58 2281.28 1521.85 Q2281.28 1513.1 2284.34 1508.52 Q2287.42 1503.91 2293.23 1503.91 Z" fill="#000000" fill-rule="evenodd" fill-opacity="1" /><path clip-path="url(#clip930)" d="M 0 0 M2320.24 1507.62 Q2316.63 1507.62 2314.8 1511.18 Q2313 1514.72 2313 1521.85 Q2313 1528.96 2314.8 1532.52 Q2316.63 1536.06 2320.24 1536.06 Q2323.88 1536.06 2325.68 1532.52 Q2327.51 1528.96 2327.51 1521.85 Q2327.51 1514.72 2325.68 1511.18 Q2323.88 1507.62 2320.24 1507.62 M2320.24 1503.91 Q2326.05 1503.91 2329.11 1508.52 Q2332.19 1513.1 2332.19 1521.85 Q2332.19 1530.58 2329.11 1535.18 Q2326.05 1539.77 2320.24 1539.77 Q2314.43 1539.77 2311.35 1535.18 Q2308.3 1530.58 2308.3 1521.85 Q2308.3 1513.1 2311.35 1508.52 Q2314.43 1503.91 2320.24 1503.91 Z" fill="#000000" fill-rule="evenodd" fill-opacity="1" /><path clip-path="url(#clip930)" d="M 0 0 M32.1376 1431.16 Q28.5265 1431.16 26.6978 1434.72 Q24.8922 1438.27 24.8922 1445.4 Q24.8922 1452.5 26.6978 1456.07 Q28.5265 1459.61 32.1376 1459.61 Q35.7718 1459.61 37.5773 1456.07 Q39.406 1452.5 39.406 1445.4 Q39.406 1438.27 37.5773 1434.72 Q35.7718 1431.16 32.1376 1431.16 M32.1376 1427.46 Q37.9477 1427.46 41.0032 1432.06 Q44.0819 1436.65 44.0819 1445.4 Q44.0819 1454.12 41.0032 1458.73 Q37.9477 1463.31 32.1376 1463.31 Q26.3274 1463.31 23.2487 1458.73 Q20.1932 1454.12 20.1932 1445.4 Q20.1932 1436.65 23.2487 1432.06 Q26.3274 1427.46 32.1376 1427.46 Z" fill="#000000" fill-rule="evenodd" fill-opacity="1" /><path clip-path="url(#clip930)" d="M 0 0 M49.1514 1456.76 L54.0356 1456.76 L54.0356 1462.64 L49.1514 1462.64 L49.1514 1456.76 Z" fill="#000000" fill-rule="evenodd" fill-opacity="1" /><path clip-path="url(#clip930)" d="M 0 0 M69.1049 1431.16 Q65.4939 1431.16 63.6652 1434.72 Q61.8596 1438.27 61.8596 1445.4 Q61.8596 1452.5 63.6652 1456.07 Q65.4939 1459.61 69.1049 1459.61 Q72.7392 1459.61 74.5447 1456.07 Q76.3734 1452.5 76.3734 1445.4 Q76.3734 1438.27 74.5447 1434.72 Q72.7392 1431.16 69.1049 1431.16 M69.1049 1427.46 Q74.9151 1427.46 77.9706 1432.06 Q81.0493 1436.65 81.0493 1445.4 Q81.0493 1454.12 77.9706 1458.73 Q74.9151 1463.31 69.1049 1463.31 Q63.2948 1463.31 60.2161 1458.73 Q57.1606 1454.12 57.1606 1445.4 Q57.1606 1436.65 60.2161 1432.06 Q63.2948 1427.46 69.1049 1427.46 Z" fill="#000000" fill-rule="evenodd" fill-opacity="1" /><path clip-path="url(#clip930)" d="M 0 0 M96.1187 1431.16 Q92.5076 1431.16 90.6789 1434.72 Q88.8734 1438.27 88.8734 1445.4 Q88.8734 1452.5 90.6789 1456.07 Q92.5076 1459.61 96.1187 1459.61 Q99.7529 1459.61 101.558 1456.07 Q103.387 1452.5 103.387 1445.4 Q103.387 1438.27 101.558 1434.72 Q99.7529 1431.16 96.1187 1431.16 M96.1187 1427.46 Q101.929 1427.46 104.984 1432.06 Q108.063 1436.65 108.063 1445.4 Q108.063 1454.12 104.984 1458.73 Q101.929 1463.31 96.1187 1463.31 Q90.3085 1463.31 87.2299 1458.73 Q84.1743 1454.12 84.1743 1445.4 Q84.1743 1436.65 87.2299 1432.06 Q90.3085 1427.46 96.1187 1427.46 Z" fill="#000000" fill-rule="evenodd" fill-opacity="1" /><path clip-path="url(#clip930)" d="M 0 0 M34.7301 1119.28 Q31.119 1119.28 29.2903 1122.85 Q27.4848 1126.39 27.4848 1133.52 Q27.4848 1140.62 29.2903 1144.19 Q31.119 1147.73 34.7301 1147.73 Q38.3644 1147.73 40.1699 1144.19 Q41.9986 1140.62 41.9986 1133.52 Q41.9986 1126.39 40.1699 1122.85 Q38.3644 1119.28 34.7301 1119.28 M34.7301 1115.58 Q40.5403 1115.58 43.5958 1120.18 Q46.6745 1124.77 46.6745 1133.52 Q46.6745 1142.24 43.5958 1146.85 Q40.5403 1151.43 34.7301 1151.43 Q28.92 1151.43 25.8413 1146.85 Q22.7858 1142.24 22.7858 1133.52 Q22.7858 1124.77 25.8413 1120.18 Q28.92 1115.58 34.7301 1115.58 Z" fill="#000000" fill-rule="evenodd" fill-opacity="1" /><path clip-path="url(#clip930)" d="M 0 0 M51.7439 1144.88 L56.6282 1144.88 L56.6282 1150.76 L51.7439 1150.76 L51.7439 1144.88 Z" fill="#000000" fill-rule="evenodd" fill-opacity="1" /><path clip-path="url(#clip930)" d="M 0 0 M65.7253 1146.83 L82.0447 1146.83 L82.0447 1150.76 L60.1004 1150.76 L60.1004 1146.83 Q62.7624 1144.07 67.3457 1139.44 Q71.9522 1134.79 73.1327 1133.45 Q75.3781 1130.93 76.2577 1129.19 Q77.1605 1127.43 77.1605 1125.74 Q77.1605 1122.99 75.216 1121.25 Q73.2947 1119.51 70.1929 1119.51 Q67.9938 1119.51 65.5402 1120.28 Q63.1096 1121.04 60.3318 1122.59 L60.3318 1117.87 Q63.1559 1116.74 65.6096 1116.16 Q68.0633 1115.58 70.1003 1115.58 Q75.4707 1115.58 78.6651 1118.26 Q81.8595 1120.95 81.8595 1125.44 Q81.8595 1127.57 81.0493 1129.49 Q80.2623 1131.39 78.1558 1133.98 Q77.5771 1134.65 74.4753 1137.87 Q71.3735 1141.06 65.7253 1146.83 Z" fill="#000000" fill-rule="evenodd" fill-opacity="1" /><path clip-path="url(#clip930)" d="M 0 0 M87.1604 1116.2 L105.517 1116.2 L105.517 1120.14 L91.4428 1120.14 L91.4428 1128.61 Q92.4613 1128.26 93.4798 1128.1 Q94.4983 1127.92 95.5168 1127.92 Q101.304 1127.92 104.683 1131.09 Q108.063 1134.26 108.063 1139.68 Q108.063 1145.25 104.591 1148.36 Q101.119 1151.43 94.7993 1151.43 Q92.6233 1151.43 90.3548 1151.06 Q88.1095 1150.69 85.7021 1149.95 L85.7021 1145.25 Q87.7854 1146.39 90.0076 1146.94 Q92.2298 1147.5 94.7067 1147.5 Q98.7113 1147.5 101.049 1145.39 Q103.387 1143.29 103.387 1139.68 Q103.387 1136.06 101.049 1133.96 Q98.7113 1131.85 94.7067 1131.85 Q92.8317 1131.85 90.9567 1132.27 Q89.1048 1132.68 87.1604 1133.56 L87.1604 1116.2 Z" fill="#000000" fill-rule="evenodd" fill-opacity="1" /><path clip-path="url(#clip930)" d="M 0 0 M33.1329 807.404 Q29.5218 807.404 27.6931 810.969 Q25.8876 814.51 25.8876 821.64 Q25.8876 828.746 27.6931 832.311 Q29.5218 835.853 33.1329 835.853 Q36.7672 835.853 38.5727 832.311 Q40.4014 828.746 40.4014 821.64 Q40.4014 814.51 38.5727 810.969 Q36.7672 807.404 33.1329 807.404 M33.1329 803.7 Q38.9431 803.7 41.9986 808.307 Q45.0773 812.89 45.0773 821.64 Q45.0773 830.367 41.9986 834.973 Q38.9431 839.556 33.1329 839.556 Q27.3228 839.556 24.2441 834.973 Q21.1885 830.367 21.1885 821.64 Q21.1885 812.89 24.2441 808.307 Q27.3228 803.7 33.1329 803.7 Z" fill="#000000" fill-rule="evenodd" fill-opacity="1" /><path clip-path="url(#clip930)" d="M 0 0 M50.1467 833.006 L55.031 833.006 L55.031 838.885 L50.1467 838.885 L50.1467 833.006 Z" fill="#000000" fill-rule="evenodd" fill-opacity="1" /><path clip-path="url(#clip930)" d="M 0 0 M60.1467 804.325 L78.503 804.325 L78.503 808.26 L64.429 808.26 L64.429 816.733 Q65.4476 816.385 66.4661 816.223 Q67.4846 816.038 68.5031 816.038 Q74.2901 816.038 77.6697 819.209 Q81.0493 822.381 81.0493 827.797 Q81.0493 833.376 77.5771 836.478 Q74.1049 839.556 67.7855 839.556 Q65.6096 839.556 63.3411 839.186 Q61.0957 838.816 58.6883 838.075 L58.6883 833.376 Q60.7717 834.51 62.9939 835.066 Q65.2161 835.621 67.6929 835.621 Q71.6975 835.621 74.0355 833.515 Q76.3734 831.408 76.3734 827.797 Q76.3734 824.186 74.0355 822.08 Q71.6975 819.973 67.6929 819.973 Q65.8179 819.973 63.9429 820.39 Q62.0911 820.807 60.1467 821.686 L60.1467 804.325 Z" fill="#000000" fill-rule="evenodd" fill-opacity="1" /><path clip-path="url(#clip930)" d="M 0 0 M96.1187 807.404 Q92.5076 807.404 90.6789 810.969 Q88.8734 814.51 88.8734 821.64 Q88.8734 828.746 90.6789 832.311 Q92.5076 835.853 96.1187 835.853 Q99.7529 835.853 101.558 832.311 Q103.387 828.746 103.387 821.64 Q103.387 814.51 101.558 810.969 Q99.7529 807.404 96.1187 807.404 M96.1187 803.7 Q101.929 803.7 104.984 808.307 Q108.063 812.89 108.063 821.64 Q108.063 830.367 104.984 834.973 Q101.929 839.556 96.1187 839.556 Q90.3085 839.556 87.2299 834.973 Q84.1743 830.367 84.1743 821.64 Q84.1743 812.89 87.2299 808.307 Q90.3085 803.7 96.1187 803.7 Z" fill="#000000" fill-rule="evenodd" fill-opacity="1" /><path clip-path="url(#clip930)" d="M 0 0 M34.0357 495.526 Q30.4246 495.526 28.5959 499.091 Q26.7904 502.632 26.7904 509.762 Q26.7904 516.868 28.5959 520.433 Q30.4246 523.975 34.0357 523.975 Q37.6699 523.975 39.4755 520.433 Q41.3042 516.868 41.3042 509.762 Q41.3042 502.632 39.4755 499.091 Q37.6699 495.526 34.0357 495.526 M34.0357 491.822 Q39.8458 491.822 42.9014 496.429 Q45.9801 501.012 45.9801 509.762 Q45.9801 518.489 42.9014 523.095 Q39.8458 527.678 34.0357 527.678 Q28.2255 527.678 25.1469 523.095 Q22.0913 518.489 22.0913 509.762 Q22.0913 501.012 25.1469 496.429 Q28.2255 491.822 34.0357 491.822 Z" fill="#000000" fill-rule="evenodd" fill-opacity="1" /><path clip-path="url(#clip930)" d="M 0 0 M51.0495 521.128 L55.9337 521.128 L55.9337 527.007 L51.0495 527.007 L51.0495 521.128 Z" fill="#000000" fill-rule="evenodd" fill-opacity="1" /><path clip-path="url(#clip930)" d="M 0 0 M59.8226 492.447 L82.0447 492.447 L82.0447 494.438 L69.4985 527.007 L64.6142 527.007 L76.4197 496.382 L59.8226 496.382 L59.8226 492.447 Z" fill="#000000" fill-rule="evenodd" fill-opacity="1" /><path clip-path="url(#clip930)" d="M 0 0 M87.1604 492.447 L105.517 492.447 L105.517 496.382 L91.4428 496.382 L91.4428 504.855 Q92.4613 504.507 93.4798 504.345 Q94.4983 504.16 95.5168 504.16 Q101.304 504.16 104.683 507.331 Q108.063 510.503 108.063 515.919 Q108.063 521.498 104.591 524.6 Q101.119 527.678 94.7993 527.678 Q92.6233 527.678 90.3548 527.308 Q88.1095 526.938 85.7021 526.197 L85.7021 521.498 Q87.7854 522.632 90.0076 523.188 Q92.2298 523.743 94.7067 523.743 Q98.7113 523.743 101.049 521.637 Q103.387 519.53 103.387 515.919 Q103.387 512.308 101.049 510.202 Q98.7113 508.095 94.7067 508.095 Q92.8317 508.095 90.9567 508.512 Q89.1048 508.929 87.1604 509.808 L87.1604 492.447 Z" fill="#000000" fill-rule="evenodd" fill-opacity="1" /><path clip-path="url(#clip930)" d="M 0 0 M24.1746 211.194 L31.8135 211.194 L31.8135 184.828 L23.5033 186.495 L23.5033 182.236 L31.7672 180.569 L36.4431 180.569 L36.4431 211.194 L44.0819 211.194 L44.0819 215.129 L24.1746 215.129 L24.1746 211.194 Z" fill="#000000" fill-rule="evenodd" fill-opacity="1" /><path clip-path="url(#clip930)" d="M 0 0 M49.1514 209.25 L54.0356 209.25 L54.0356 215.129 L49.1514 215.129 L49.1514 209.25 Z" fill="#000000" fill-rule="evenodd" fill-opacity="1" /><path clip-path="url(#clip930)" d="M 0 0 M69.1049 183.648 Q65.4939 183.648 63.6652 187.213 Q61.8596 190.754 61.8596 197.884 Q61.8596 204.99 63.6652 208.555 Q65.4939 212.097 69.1049 212.097 Q72.7392 212.097 74.5447 208.555 Q76.3734 204.99 76.3734 197.884 Q76.3734 190.754 74.5447 187.213 Q72.7392 183.648 69.1049 183.648 M69.1049 179.944 Q74.9151 179.944 77.9706 184.551 Q81.0493 189.134 81.0493 197.884 Q81.0493 206.611 77.9706 211.217 Q74.9151 215.8 69.1049 215.8 Q63.2948 215.8 60.2161 211.217 Q57.1606 206.611 57.1606 197.884 Q57.1606 189.134 60.2161 184.551 Q63.2948 179.944 69.1049 179.944 Z" fill="#000000" fill-rule="evenodd" fill-opacity="1" /><path clip-path="url(#clip930)" d="M 0 0 M96.1187 183.648 Q92.5076 183.648 90.6789 187.213 Q88.8734 190.754 88.8734 197.884 Q88.8734 204.99 90.6789 208.555 Q92.5076 212.097 96.1187 212.097 Q99.7529 212.097 101.558 208.555 Q103.387 204.99 103.387 197.884 Q103.387 190.754 101.558 187.213 Q99.7529 183.648 96.1187 183.648 M96.1187 179.944 Q101.929 179.944 104.984 184.551 Q108.063 189.134 108.063 197.884 Q108.063 206.611 104.984 211.217 Q101.929 215.8 96.1187 215.8 Q90.3085 215.8 87.2299 211.217 Q84.1743 206.611 84.1743 197.884 Q84.1743 189.134 87.2299 184.551 Q90.3085 179.944 96.1187 179.944 Z" fill="#000000" fill-rule="evenodd" fill-opacity="1" /><path clip-path="url(#clip930)" d="M 0 0 M773.254 12.096 L781.437 12.096 L781.437 72.576 L773.254 72.576 L773.254 12.096 Z" fill="#000000" fill-rule="evenodd" fill-opacity="1" /><path clip-path="url(#clip930)" d="M 0 0 M826.969 45.1919 L826.969 72.576 L819.515 72.576 L819.515 45.4349 Q819.515 38.994 817.004 35.7938 Q814.492 32.5936 809.469 32.5936 Q803.433 32.5936 799.949 36.4419 Q796.466 40.2903 796.466 46.9338 L796.466 72.576 L788.972 72.576 L788.972 27.2059 L796.466 27.2059 L796.466 34.2544 Q799.139 30.163 802.745 28.1376 Q806.39 26.1121 811.13 26.1121 Q818.948 26.1121 822.959 30.9732 Q826.969 35.7938 826.969 45.1919 Z" fill="#000000" fill-rule="evenodd" fill-opacity="1" /><path clip-path="url(#clip930)" d="M 0 0 M834.787 27.2059 L842.241 27.2059 L842.241 72.576 L834.787 72.576 L834.787 27.2059 M834.787 9.54393 L842.241 9.54393 L842.241 18.9825 L834.787 18.9825 L834.787 9.54393 Z" fill="#000000" fill-rule="evenodd" fill-opacity="1" /><path clip-path="url(#clip930)" d="M 0 0 M857.432 14.324 L857.432 27.2059 L872.785 27.2059 L872.785 32.9987 L857.432 32.9987 L857.432 57.6282 Q857.432 63.1779 858.931 64.7578 Q860.47 66.3376 865.129 66.3376 L872.785 66.3376 L872.785 72.576 L865.129 72.576 Q856.5 72.576 853.219 69.3758 Q849.938 66.1351 849.938 57.6282 L849.938 32.9987 L844.469 32.9987 L844.469 27.2059 L849.938 27.2059 L849.938 14.324 L857.432 14.324 Z" fill="#000000" fill-rule="evenodd" fill-opacity="1" /><path clip-path="url(#clip930)" d="M 0 0 M880.603 27.2059 L888.057 27.2059 L888.057 72.576 L880.603 72.576 L880.603 27.2059 M880.603 9.54393 L888.057 9.54393 L888.057 18.9825 L880.603 18.9825 L880.603 9.54393 Z" fill="#000000" fill-rule="evenodd" fill-opacity="1" /><path clip-path="url(#clip930)" d="M 0 0 M916.494 49.7694 Q907.46 49.7694 903.977 51.8354 Q900.493 53.9013 900.493 58.8839 Q900.493 62.8538 903.085 65.2034 Q905.719 67.5124 910.215 67.5124 Q916.413 67.5124 920.14 63.1374 Q923.907 58.7219 923.907 51.4303 L923.907 49.7694 L916.494 49.7694 M931.361 46.6907 L931.361 72.576 L923.907 72.576 L923.907 65.6895 Q921.355 69.8214 917.547 71.8063 Q913.739 73.7508 908.23 73.7508 Q901.263 73.7508 897.131 69.8619 Q893.039 65.9325 893.039 59.3701 Q893.039 51.7138 898.143 47.825 Q903.288 43.9361 913.456 43.9361 L923.907 43.9361 L923.907 43.2069 Q923.907 38.0623 920.504 35.2672 Q917.142 32.4315 911.025 32.4315 Q907.136 32.4315 903.45 33.3632 Q899.764 34.295 896.361 36.1584 L896.361 29.2718 Q900.452 27.692 904.301 26.9223 Q908.149 26.1121 911.795 26.1121 Q921.639 26.1121 926.5 31.2163 Q931.361 36.3204 931.361 46.6907 Z" fill="#000000" fill-rule="evenodd" fill-opacity="1" /><path clip-path="url(#clip930)" d="M 0 0 M939.179 9.54393 L946.633 9.54393 L946.633 72.576 L939.179 72.576 L939.179 9.54393 Z" fill="#000000" fill-rule="evenodd" fill-opacity="1" /><path clip-path="url(#clip930)" d="M 0 0 M988.195 14.324 L988.195 27.2059 L1003.55 27.2059 L1003.55 32.9987 L988.195 32.9987 L988.195 57.6282 Q988.195 63.1779 989.694 64.7578 Q991.233 66.3376 995.892 66.3376 L1003.55 66.3376 L1003.55 72.576 L995.892 72.576 Q987.263 72.576 983.982 69.3758 Q980.701 66.1351 980.701 57.6282 L980.701 32.9987 L975.232 32.9987 L975.232 27.2059 L980.701 27.2059 L980.701 14.324 L988.195 14.324 Z" fill="#000000" fill-rule="evenodd" fill-opacity="1" /><path clip-path="url(#clip930)" d="M 0 0 M1050.17 48.0275 L1050.17 51.6733 L1015.9 51.6733 Q1016.39 59.3701 1020.52 63.421 Q1024.69 67.4314 1032.11 67.4314 Q1036.4 67.4314 1040.41 66.3781 Q1044.46 65.3249 1048.43 63.2184 L1048.43 70.267 Q1044.42 71.9684 1040.21 72.8596 Q1036 73.7508 1031.66 73.7508 Q1020.8 73.7508 1014.44 67.4314 Q1008.13 61.1119 1008.13 50.3365 Q1008.13 39.1965 1014.12 32.6746 Q1020.16 26.1121 1030.36 26.1121 Q1039.52 26.1121 1044.83 32.0264 Q1050.17 37.9003 1050.17 48.0275 M1042.72 45.84 Q1042.64 39.7232 1039.28 36.0774 Q1035.96 32.4315 1030.45 32.4315 Q1024.21 32.4315 1020.44 35.9558 Q1016.71 39.4801 1016.15 45.8805 L1042.72 45.84 Z" fill="#000000" fill-rule="evenodd" fill-opacity="1" /><path clip-path="url(#clip930)" d="M 0 0 M1093.32 35.9153 Q1096.11 30.8922 1100 28.5022 Q1103.89 26.1121 1109.15 26.1121 Q1116.24 26.1121 1120.09 31.0947 Q1123.94 36.0368 1123.94 45.1919 L1123.94 72.576 L1116.45 72.576 L1116.45 45.4349 Q1116.45 38.913 1114.14 35.7533 Q1111.83 32.5936 1107.09 32.5936 Q1101.3 32.5936 1097.93 36.4419 Q1094.57 40.2903 1094.57 46.9338 L1094.57 72.576 L1087.08 72.576 L1087.08 45.4349 Q1087.08 38.8725 1084.77 35.7533 Q1082.46 32.5936 1077.64 32.5936 Q1071.93 32.5936 1068.56 36.4824 Q1065.2 40.3308 1065.2 46.9338 L1065.2 72.576 L1057.71 72.576 L1057.71 27.2059 L1065.2 27.2059 L1065.2 34.2544 Q1067.75 30.082 1071.32 28.0971 Q1074.88 26.1121 1079.79 26.1121 Q1084.73 26.1121 1088.17 28.6237 Q1091.66 31.1352 1093.32 35.9153 Z" fill="#000000" fill-rule="evenodd" fill-opacity="1" /><path clip-path="url(#clip930)" d="M 0 0 M1138.97 65.7705 L1138.97 89.8329 L1131.48 89.8329 L1131.48 27.2059 L1138.97 27.2059 L1138.97 34.0924 Q1141.32 30.0415 1144.88 28.0971 Q1148.49 26.1121 1153.47 26.1121 Q1161.74 26.1121 1166.88 32.6746 Q1172.07 39.2371 1172.07 49.9314 Q1172.07 60.6258 1166.88 67.1883 Q1161.74 73.7508 1153.47 73.7508 Q1148.49 73.7508 1144.88 71.8063 Q1141.32 69.8214 1138.97 65.7705 M1164.33 49.9314 Q1164.33 41.7081 1160.93 37.0496 Q1157.56 32.3505 1151.65 32.3505 Q1145.73 32.3505 1142.33 37.0496 Q1138.97 41.7081 1138.97 49.9314 Q1138.97 58.1548 1142.33 62.8538 Q1145.73 67.5124 1151.65 67.5124 Q1157.56 67.5124 1160.93 62.8538 Q1164.33 58.1548 1164.33 49.9314 Z" fill="#000000" fill-rule="evenodd" fill-opacity="1" /><path clip-path="url(#clip930)" d="M 0 0 M1218.69 48.0275 L1218.69 51.6733 L1184.42 51.6733 Q1184.91 59.3701 1189.04 63.421 Q1193.21 67.4314 1200.62 67.4314 Q1204.92 67.4314 1208.93 66.3781 Q1212.98 65.3249 1216.95 63.2184 L1216.95 70.267 Q1212.94 71.9684 1208.73 72.8596 Q1204.51 73.7508 1200.18 73.7508 Q1189.32 73.7508 1182.96 67.4314 Q1176.64 61.1119 1176.64 50.3365 Q1176.64 39.1965 1182.64 32.6746 Q1188.67 26.1121 1198.88 26.1121 Q1208.04 26.1121 1213.34 32.0264 Q1218.69 37.9003 1218.69 48.0275 M1211.24 45.84 Q1211.16 39.7232 1207.79 36.0774 Q1204.47 32.4315 1198.96 32.4315 Q1192.73 32.4315 1188.96 35.9558 Q1185.23 39.4801 1184.66 45.8805 L1211.24 45.84 Z" fill="#000000" fill-rule="evenodd" fill-opacity="1" /><path clip-path="url(#clip930)" d="M 0 0 M1252.8 34.1734 Q1251.54 33.4443 1250.05 33.1202 Q1248.59 32.7556 1246.8 32.7556 Q1240.49 32.7556 1237.08 36.8875 Q1233.72 40.9789 1233.72 48.6757 L1233.72 72.576 L1226.23 72.576 L1226.23 27.2059 L1233.72 27.2059 L1233.72 34.2544 Q1236.07 30.1225 1239.84 28.1376 Q1243.6 26.1121 1248.99 26.1121 Q1249.76 26.1121 1250.69 26.2337 Q1251.63 26.3147 1252.76 26.5172 L1252.8 34.1734 Z" fill="#000000" fill-rule="evenodd" fill-opacity="1" /><path clip-path="url(#clip930)" d="M 0 0 M1281.24 49.7694 Q1272.2 49.7694 1268.72 51.8354 Q1265.24 53.9013 1265.24 58.8839 Q1265.24 62.8538 1267.83 65.2034 Q1270.46 67.5124 1274.96 67.5124 Q1281.16 67.5124 1284.88 63.1374 Q1288.65 58.7219 1288.65 51.4303 L1288.65 49.7694 L1281.24 49.7694 M1296.1 46.6907 L1296.1 72.576 L1288.65 72.576 L1288.65 65.6895 Q1286.1 69.8214 1282.29 71.8063 Q1278.48 73.7508 1272.97 73.7508 Q1266.01 73.7508 1261.87 69.8619 Q1257.78 65.9325 1257.78 59.3701 Q1257.78 51.7138 1262.89 47.825 Q1268.03 43.9361 1278.2 43.9361 L1288.65 43.9361 L1288.65 43.2069 Q1288.65 38.0623 1285.25 35.2672 Q1281.89 32.4315 1275.77 32.4315 Q1271.88 32.4315 1268.19 33.3632 Q1264.51 34.295 1261.1 36.1584 L1261.1 29.2718 Q1265.2 27.692 1269.04 26.9223 Q1272.89 26.1121 1276.54 26.1121 Q1286.38 26.1121 1291.24 31.2163 Q1296.1 36.3204 1296.1 46.6907 Z" fill="#000000" fill-rule="evenodd" fill-opacity="1" /><path clip-path="url(#clip930)" d="M 0 0 M1311.3 14.324 L1311.3 27.2059 L1326.65 27.2059 L1326.65 32.9987 L1311.3 32.9987 L1311.3 57.6282 Q1311.3 63.1779 1312.79 64.7578 Q1314.33 66.3376 1318.99 66.3376 L1326.65 66.3376 L1326.65 72.576 L1318.99 72.576 Q1310.36 72.576 1307.08 69.3758 Q1303.8 66.1351 1303.8 57.6282 L1303.8 32.9987 L1298.33 32.9987 L1298.33 27.2059 L1303.8 27.2059 L1303.8 14.324 L1311.3 14.324 Z" fill="#000000" fill-rule="evenodd" fill-opacity="1" /><path clip-path="url(#clip930)" d="M 0 0 M1333.7 54.671 L1333.7 27.2059 L1341.15 27.2059 L1341.15 54.3874 Q1341.15 60.8284 1343.66 64.0691 Q1346.17 67.2693 1351.2 67.2693 Q1357.23 67.2693 1360.72 63.421 Q1364.24 59.5726 1364.24 52.9291 L1364.24 27.2059 L1371.69 27.2059 L1371.69 72.576 L1364.24 72.576 L1364.24 65.6084 Q1361.53 69.7404 1357.92 71.7658 Q1354.36 73.7508 1349.62 73.7508 Q1341.8 73.7508 1337.75 68.8897 Q1333.7 64.0286 1333.7 54.671 M1352.45 26.1121 L1352.45 26.1121 Z" fill="#000000" fill-rule="evenodd" fill-opacity="1" /><path clip-path="url(#clip930)" d="M 0 0 M1405.8 34.1734 Q1404.55 33.4443 1403.05 33.1202 Q1401.59 32.7556 1399.81 32.7556 Q1393.49 32.7556 1390.09 36.8875 Q1386.72 40.9789 1386.72 48.6757 L1386.72 72.576 L1379.23 72.576 L1379.23 27.2059 L1386.72 27.2059 L1386.72 34.2544 Q1389.07 30.1225 1392.84 28.1376 Q1396.61 26.1121 1401.99 26.1121 Q1402.76 26.1121 1403.7 26.2337 Q1404.63 26.3147 1405.76 26.5172 L1405.8 34.1734 Z" fill="#000000" fill-rule="evenodd" fill-opacity="1" /><path clip-path="url(#clip930)" d="M 0 0 M1450.61 48.0275 L1450.61 51.6733 L1416.34 51.6733 Q1416.82 59.3701 1420.95 63.421 Q1425.13 67.4314 1432.54 67.4314 Q1436.83 67.4314 1440.84 66.3781 Q1444.89 65.3249 1448.86 63.2184 L1448.86 70.267 Q1444.85 71.9684 1440.64 72.8596 Q1436.43 73.7508 1432.09 73.7508 Q1421.24 73.7508 1414.88 67.4314 Q1408.56 61.1119 1408.56 50.3365 Q1408.56 39.1965 1414.55 32.6746 Q1420.59 26.1121 1430.8 26.1121 Q1439.95 26.1121 1445.26 32.0264 Q1450.61 37.9003 1450.61 48.0275 M1443.15 45.84 Q1443.07 39.7232 1439.71 36.0774 Q1436.39 32.4315 1430.88 32.4315 Q1424.64 32.4315 1420.87 35.9558 Q1417.15 39.4801 1416.58 45.8805 L1443.15 45.84 Z" fill="#000000" fill-rule="evenodd" fill-opacity="1" /><path clip-path="url(#clip930)" d="M 0 0 M1492.01 65.7705 L1492.01 89.8329 L1484.51 89.8329 L1484.51 27.2059 L1492.01 27.2059 L1492.01 34.0924 Q1494.36 30.0415 1497.92 28.0971 Q1501.53 26.1121 1506.51 26.1121 Q1514.77 26.1121 1519.92 32.6746 Q1525.1 39.2371 1525.1 49.9314 Q1525.1 60.6258 1519.92 67.1883 Q1514.77 73.7508 1506.51 73.7508 Q1501.53 73.7508 1497.92 71.8063 Q1494.36 69.8214 1492.01 65.7705 M1517.36 49.9314 Q1517.36 41.7081 1513.96 37.0496 Q1510.6 32.3505 1504.69 32.3505 Q1498.77 32.3505 1495.37 37.0496 Q1492.01 41.7081 1492.01 49.9314 Q1492.01 58.1548 1495.37 62.8538 Q1498.77 67.5124 1504.69 67.5124 Q1510.6 67.5124 1513.96 62.8538 Q1517.36 58.1548 1517.36 49.9314 Z" fill="#000000" fill-rule="evenodd" fill-opacity="1" /><path clip-path="url(#clip930)" d="M 0 0 M1559.21 34.1734 Q1557.95 33.4443 1556.46 33.1202 Q1555 32.7556 1553.22 32.7556 Q1546.9 32.7556 1543.49 36.8875 Q1540.13 40.9789 1540.13 48.6757 L1540.13 72.576 L1532.64 72.576 L1532.64 27.2059 L1540.13 27.2059 L1540.13 34.2544 Q1542.48 30.1225 1546.25 28.1376 Q1550.01 26.1121 1555.4 26.1121 Q1556.17 26.1121 1557.1 26.2337 Q1558.04 26.3147 1559.17 26.5172 L1559.21 34.1734 Z" fill="#000000" fill-rule="evenodd" fill-opacity="1" /><path clip-path="url(#clip930)" d="M 0 0 M1582.79 32.4315 Q1576.79 32.4315 1573.31 37.1306 Q1569.82 41.7891 1569.82 49.9314 Q1569.82 58.0738 1573.27 62.7728 Q1576.75 67.4314 1582.79 67.4314 Q1588.74 67.4314 1592.23 62.7323 Q1595.71 58.0333 1595.71 49.9314 Q1595.71 41.8701 1592.23 37.1711 Q1588.74 32.4315 1582.79 32.4315 M1582.79 26.1121 Q1592.51 26.1121 1598.06 32.4315 Q1603.61 38.7509 1603.61 49.9314 Q1603.61 61.0714 1598.06 67.4314 Q1592.51 73.7508 1582.79 73.7508 Q1573.02 73.7508 1567.47 67.4314 Q1561.97 61.0714 1561.97 49.9314 Q1561.97 38.7509 1567.47 32.4315 Q1573.02 26.1121 1582.79 26.1121 Z" fill="#000000" fill-rule="evenodd" fill-opacity="1" /><path clip-path="url(#clip930)" d="M 0 0 M1634.4 9.54393 L1634.4 15.7418 L1627.27 15.7418 Q1623.26 15.7418 1621.68 17.3622 Q1620.14 18.9825 1620.14 23.1955 L1620.14 27.2059 L1632.41 27.2059 L1632.41 32.9987 L1620.14 32.9987 L1620.14 72.576 L1612.64 72.576 L1612.64 32.9987 L1605.51 32.9987 L1605.51 27.2059 L1612.64 27.2059 L1612.64 24.0462 Q1612.64 16.471 1616.17 13.0277 Q1619.69 9.54393 1627.35 9.54393 L1634.4 9.54393 Z" fill="#000000" fill-rule="evenodd" fill-opacity="1" /><path clip-path="url(#clip930)" d="M 0 0 M1642.21 27.2059 L1649.67 27.2059 L1649.67 72.576 L1642.21 72.576 L1642.21 27.2059 M1642.21 9.54393 L1649.67 9.54393 L1649.67 18.9825 L1642.21 18.9825 L1642.21 9.54393 Z" fill="#000000" fill-rule="evenodd" fill-opacity="1" /><path clip-path="url(#clip930)" d="M 0 0 M1657.49 9.54393 L1664.94 9.54393 L1664.94 72.576 L1657.49 72.576 L1657.49 9.54393 Z" fill="#000000" fill-rule="evenodd" fill-opacity="1" /><path clip-path="url(#clip930)" d="M 0 0 M1711.56 48.0275 L1711.56 51.6733 L1677.29 51.6733 Q1677.78 59.3701 1681.91 63.421 Q1686.08 67.4314 1693.5 67.4314 Q1697.79 67.4314 1701.8 66.3781 Q1705.85 65.3249 1709.82 63.2184 L1709.82 70.267 Q1705.81 71.9684 1701.6 72.8596 Q1697.39 73.7508 1693.05 73.7508 Q1682.2 73.7508 1675.84 67.4314 Q1669.52 61.1119 1669.52 50.3365 Q1669.52 39.1965 1675.51 32.6746 Q1681.55 26.1121 1691.76 26.1121 Q1700.91 26.1121 1706.22 32.0264 Q1711.56 37.9003 1711.56 48.0275 M1704.11 45.84 Q1704.03 39.7232 1700.67 36.0774 Q1697.35 32.4315 1691.84 32.4315 Q1685.6 32.4315 1681.83 35.9558 Q1678.1 39.4801 1677.54 45.8805 L1704.11 45.84 Z" fill="#000000" fill-rule="evenodd" fill-opacity="1" /><path clip-path="url(#clip930)" d="M 0 0 M1256.57 1565.38 Q1256.57 1567.19 1255.44 1568.22 Q1254.32 1569.22 1253.03 1569.22 Q1251.8 1569.22 1251.16 1568.51 Q1250.51 1567.8 1250.51 1566.9 Q1250.51 1565.67 1251.42 1564.61 Q1252.32 1563.55 1253.67 1563.32 Q1252.35 1562.49 1250.39 1562.49 Q1249.1 1562.49 1247.97 1563.16 Q1246.88 1563.84 1246.2 1564.71 Q1245.56 1565.58 1244.98 1566.83 Q1244.43 1568.06 1244.2 1568.8 Q1244.01 1569.51 1243.85 1570.28 L1241.59 1579.3 Q1240.5 1583.58 1240.5 1585.09 Q1240.5 1586.96 1241.4 1588.22 Q1242.3 1589.44 1244.11 1589.44 Q1244.81 1589.44 1245.62 1589.25 Q1246.42 1589.02 1247.46 1588.44 Q1248.52 1587.83 1249.45 1586.93 Q1250.42 1586 1251.35 1584.42 Q1252.29 1582.84 1252.9 1580.81 Q1253.09 1580.1 1253.74 1580.1 Q1254.54 1580.1 1254.54 1580.75 Q1254.54 1581.29 1254.09 1582.45 Q1253.67 1583.58 1252.74 1585.06 Q1251.84 1586.51 1250.64 1587.83 Q1249.45 1589.12 1247.68 1590.02 Q1245.91 1590.92 1243.98 1590.92 Q1241.21 1590.92 1239.37 1589.44 Q1237.54 1587.96 1236.86 1585.9 Q1236.7 1586.19 1236.47 1586.58 Q1236.25 1586.96 1235.57 1587.83 Q1234.93 1588.67 1234.19 1589.31 Q1233.45 1589.93 1232.29 1590.41 Q1231.16 1590.92 1229.94 1590.92 Q1228.39 1590.92 1227 1590.47 Q1225.65 1590.02 1224.69 1588.99 Q1223.72 1587.96 1223.72 1586.54 Q1223.72 1584.97 1224.78 1583.87 Q1225.88 1582.74 1227.36 1582.74 Q1228.29 1582.74 1229.03 1583.29 Q1229.81 1583.84 1229.81 1585.03 Q1229.81 1586.35 1228.9 1587.35 Q1228 1588.35 1226.71 1588.61 Q1228.04 1589.44 1230 1589.44 Q1232.13 1589.44 1233.8 1587.57 Q1235.47 1585.71 1236.28 1582.58 Q1238.28 1575.08 1239.05 1571.73 Q1239.82 1568.35 1239.82 1566.9 Q1239.82 1565.55 1239.47 1564.61 Q1239.11 1563.68 1238.5 1563.26 Q1237.92 1562.81 1237.37 1562.65 Q1236.86 1562.49 1236.28 1562.49 Q1235.31 1562.49 1234.22 1562.87 Q1233.16 1563.26 1231.87 1564.16 Q1230.61 1565.03 1229.42 1566.83 Q1228.23 1568.64 1227.42 1571.12 Q1227.26 1571.86 1226.55 1571.86 Q1225.78 1571.83 1225.78 1571.18 Q1225.78 1570.63 1226.2 1569.51 Q1226.65 1568.35 1227.55 1566.9 Q1228.49 1565.45 1229.68 1564.16 Q1230.9 1562.84 1232.67 1561.94 Q1234.48 1561.04 1236.41 1561.04 Q1237.28 1561.04 1238.12 1561.23 Q1238.99 1561.39 1240.02 1561.87 Q1241.08 1562.36 1242.01 1563.42 Q1242.95 1564.48 1243.53 1566.03 Q1243.91 1565.29 1244.43 1564.58 Q1244.98 1563.87 1245.81 1563 Q1246.68 1562.1 1247.87 1561.58 Q1249.1 1561.04 1250.45 1561.04 Q1251.77 1561.04 1253.06 1561.39 Q1254.35 1561.71 1255.44 1562.78 Q1256.57 1563.81 1256.57 1565.38 Z" fill="#000000" fill-rule="evenodd" fill-opacity="1" /><path clip-path="url(#clip930)" d="M 0 0 M-47.7356 748.535 Q-47.1237 748.535 -46.6084 748.663 L-35.1431 750.467 Q-34.2736 750.563 -33.9515 750.757 Q-33.6295 750.918 -33.6295 751.433 Q-33.6295 752.238 -34.4668 752.238 Q-34.9499 752.238 -35.7228 752.045 Q-39.3621 751.497 -41.0046 751.497 Q-42.0996 751.497 -42.9047 751.723 Q-43.7421 751.916 -44.3218 752.238 Q-44.9015 752.528 -45.288 753.204 Q-45.6744 753.881 -45.8999 754.525 Q-46.1253 755.169 -46.2219 756.328 Q-46.3508 757.488 -46.383 758.486 Q-46.4152 759.484 -46.4152 761.127 Q-46.4152 764.702 -46.2864 765.282 Q-46.1253 765.893 -45.6422 766.216 Q-45.1914 766.505 -43.8387 766.827 L-8.83094 775.587 L-7.44609 775.845 Q-6.67315 775.845 -6.4155 775.362 Q-6.15785 774.879 -5.99682 773.397 Q-5.83579 771.272 -5.83579 769.178 Q-5.83579 769.114 -5.83579 768.985 Q-5.83579 768.277 -5.80359 767.987 Q-5.80359 767.697 -5.73918 767.407 Q-5.67477 767.117 -5.51374 767.053 Q-5.38491 766.956 -5.12727 766.956 Q-4.51535 766.956 -4.1933 767.214 Q-3.90344 767.472 -3.83903 767.729 Q-3.80683 767.955 -3.80683 768.406 Q-3.80683 769.307 -3.87124 771.24 Q-3.93565 773.172 -3.93565 774.138 L-4.00006 779.613 L-3.93565 785.217 Q-3.93565 786.087 -3.87124 787.922 Q-3.80683 789.758 -3.80683 790.628 Q-3.80683 791.755 -4.61197 791.755 Q-5.51374 791.755 -5.67477 791.336 Q-5.83579 790.885 -5.83579 788.985 Q-5.83579 786.312 -5.96462 784.863 Q-6.09344 783.413 -6.54432 782.641 Q-6.99521 781.835 -7.44609 781.61 Q-7.92918 781.384 -9.02417 781.127 L-44.2252 772.27 Q-44.9981 772.013 -45.61 772.013 Q-45.9321 772.013 -46.0609 772.109 Q-46.1897 772.174 -46.2864 772.592 Q-46.4152 773.011 -46.4152 773.881 L-46.4152 776.457 Q-46.4152 779.098 -46.2864 780.74 Q-46.1897 782.351 -45.7067 783.897 Q-45.2236 785.41 -44.5472 786.312 Q-43.8709 787.182 -42.4861 788.148 Q-41.1012 789.114 -39.4265 789.822 Q-37.7518 790.499 -35.0143 791.465 Q-34.1125 791.787 -33.8549 791.98 Q-33.6295 792.141 -33.6295 792.592 Q-33.6295 792.914 -33.8227 793.172 Q-34.0481 793.397 -34.338 793.397 Q-35.4008 793.075 -35.5296 793.011 L-47.1559 789.049 Q-48.0899 788.727 -48.2509 788.438 Q-48.4441 788.116 -48.4441 786.924 L-48.4441 750.338 Q-48.4441 749.758 -48.4441 749.565 Q-48.4441 749.372 -48.3797 749.05 Q-48.3153 748.728 -48.1543 748.631 Q-47.9933 748.535 -47.7356 748.535 Z" fill="#000000" fill-rule="evenodd" fill-opacity="1" /><polyline clip-path="url(#clip932)" style="stroke:#009af9; stroke-width:4; stroke-opacity:1; fill:none" points="
  194.913,1445.36 197.008,1435.56 199.103,1425.77 201.198,1415.97 203.293,1406.18 205.388,1396.38 207.483,1386.59 209.578,1376.81 211.673,1367.03 213.768,1357.25 
  215.863,1347.48 217.958,1337.71 220.053,1327.95 222.148,1318.19 224.243,1308.45 226.338,1298.71 228.433,1288.98 230.528,1279.26 232.623,1269.54 234.718,1259.84 
  236.813,1250.15 238.908,1240.47 241.003,1230.8 243.098,1221.14 245.193,1211.5 247.288,1201.87 249.383,1192.25 251.478,1182.65 253.573,1173.06 255.668,1163.49 
  257.763,1153.94 259.858,1144.4 261.953,1134.88 264.048,1125.37 266.143,1115.89 268.238,1106.42 270.333,1096.97 272.428,1087.55 274.523,1078.14 276.618,1068.75 
  278.713,1059.39 280.808,1050.04 282.903,1040.72 284.998,1031.43 287.093,1022.15 289.188,1012.9 291.283,1003.68 293.378,994.474 295.473,985.299 297.568,976.15 
  299.663,967.028 301.758,957.933 303.853,948.865 305.948,939.825 308.043,930.814 310.137,921.832 312.232,912.88 314.327,903.957 316.422,895.066 318.517,886.205 
  320.612,877.376 322.707,868.578 324.802,859.813 326.897,851.082 328.992,842.383 331.087,833.719 333.182,825.088 335.277,816.493 337.372,807.933 339.467,799.409 
  341.562,790.92 343.657,782.469 345.752,774.054 347.847,765.678 349.942,757.339 352.037,749.038 354.132,740.777 356.227,732.554 358.322,724.372 360.417,716.229 
  362.512,708.127 364.607,700.066 366.702,692.047 368.797,684.069 370.892,676.134 372.987,668.241 375.082,660.391 377.177,652.585 379.272,644.822 381.367,637.104 
  383.462,629.43 385.557,621.801 387.652,614.218 389.747,606.681 391.842,599.189 393.937,591.744 396.032,584.346 398.127,576.995 400.222,569.692 402.317,562.437 
  404.412,555.23 406.507,548.071 408.602,540.962 410.697,533.901 412.792,526.891 414.887,519.93 416.982,513.02 419.077,506.161 421.172,499.352 423.267,492.594 
  425.362,485.889 427.457,479.235 429.552,472.633 431.647,466.083 433.742,459.587 435.837,453.143 437.932,446.753 440.027,440.416 442.122,434.133 444.217,427.904 
  446.312,421.73 448.407,415.61 450.502,409.546 452.597,403.536 454.692,397.582 456.787,391.684 458.882,385.841 460.977,380.055 463.072,374.325 465.167,368.651 
  467.262,363.034 469.357,357.475 471.452,351.972 473.547,346.527 475.642,341.14 477.737,335.81 479.832,330.539 481.927,325.326 484.022,320.171 486.117,315.074 
  488.212,310.037 490.307,305.058 492.402,300.139 494.497,295.278 496.592,290.477 498.687,285.736 500.782,281.054 502.877,276.432 504.972,271.87 507.067,267.368 
  509.162,262.926 511.257,258.545 513.352,254.223 515.447,249.963 517.542,245.763 519.637,241.624 521.732,237.546 523.827,233.528 525.922,229.572 528.017,225.677 
  530.112,221.842 532.207,218.07 534.302,214.358 536.397,210.708 538.492,207.119 540.587,203.591 542.682,200.126 544.777,196.721 546.872,193.378 548.967,190.097 
  551.062,186.878 553.157,183.72 555.252,180.623 557.347,177.589 559.442,174.616 561.537,171.705 563.632,168.855 565.727,166.067 567.822,163.341 569.917,160.676 
  572.012,158.073 574.107,155.532 576.202,153.052 578.297,150.633 580.392,148.276 582.487,145.981 584.582,143.746 586.677,141.573 588.772,139.462 590.867,137.411 
  592.962,135.421 595.057,133.493 597.152,131.625 599.247,129.818 601.342,128.072 603.437,126.387 605.532,124.762 607.627,123.197 609.722,121.693 611.817,120.249 
  613.912,118.865 616.007,117.541 618.102,116.276 620.196,115.072 622.291,113.927 624.386,112.841 626.481,111.814 628.576,110.847 630.671,109.938 632.766,109.089 
  634.861,108.297 636.956,107.564 639.051,106.89 641.146,106.273 643.241,105.714 645.336,105.213 647.431,104.77 649.526,104.383 651.621,104.054 653.716,103.781 
  655.811,103.565 657.906,103.406 660.001,103.303 662.096,103.255 664.191,103.264 666.286,103.327 668.381,103.447 670.476,103.621 672.571,103.849 674.666,104.133 
  676.761,104.47 678.856,104.862 680.951,105.307 683.046,105.805 685.141,106.357 687.236,106.962 689.331,107.619 691.426,108.329 693.521,109.09 695.616,109.903 
  697.711,110.768 699.806,111.684 701.901,112.651 703.996,113.668 706.091,114.735 708.186,115.852 710.281,117.019 712.376,118.235 714.471,119.5 716.566,120.813 
  718.661,122.175 720.756,123.584 722.851,125.041 724.946,126.546 727.041,128.097 729.136,129.694 731.231,131.338 733.326,133.028 735.421,134.762 737.516,136.542 
  739.611,138.367 741.706,140.236 743.801,142.149 745.896,144.105 747.991,146.104 750.086,148.147 752.181,150.231 754.276,152.358 756.371,154.526 758.466,156.736 
  760.561,158.986 762.656,161.276 764.751,163.607 766.846,165.977 768.941,168.386 771.036,170.834 773.131,173.32 775.226,175.844 777.321,178.406 779.416,181.005 
  781.511,183.64 783.606,186.311 785.701,189.018 787.796,191.761 789.891,194.538 791.986,197.35 794.081,200.196 796.176,203.075 798.271,205.988 800.366,208.933 
  802.461,211.91 804.556,214.919 806.651,217.959 808.746,221.03 810.841,224.132 812.936,227.263 815.031,230.424 817.126,233.613 819.221,236.832 821.316,240.078 
  823.411,243.352 825.506,246.652 827.601,249.98 829.696,253.333 831.791,256.713 833.886,260.117 835.981,263.546 838.076,267 840.171,270.477 842.266,273.977 
  844.361,277.5 846.456,281.045 848.551,284.612 850.646,288.201 852.741,291.81 854.836,295.44 856.931,299.089 859.026,302.758 861.121,306.445 863.216,310.151 
  865.311,313.875 867.406,317.616 869.501,321.373 871.596,325.148 873.691,328.938 875.786,332.743 877.881,336.563 879.976,340.398 882.071,344.246 884.166,348.108 
  886.261,351.982 888.356,355.869 890.451,359.768 892.546,363.678 894.641,367.599 896.736,371.53 898.831,375.472 900.926,379.422 903.021,383.381 905.116,387.349 
  907.211,391.324 909.306,395.307 911.401,399.296 913.496,403.292 915.591,407.293 917.686,411.3 919.781,415.312 921.876,419.328 923.971,423.348 926.066,427.371 
  928.161,431.397 930.255,435.425 932.35,439.455 934.445,443.486 936.54,447.518 938.635,451.551 940.73,455.583 942.825,459.615 944.92,463.645 947.015,467.674 
  949.11,471.7 951.205,475.724 953.3,479.745 955.395,483.762 957.49,487.776 959.585,491.784 961.68,495.788 963.775,499.785 965.87,503.777 967.965,507.763 
  970.06,511.741 972.155,515.712 974.25,519.675 976.345,523.629 978.44,527.575 980.535,531.511 982.63,535.438 984.725,539.354 986.82,543.26 988.915,547.154 
  991.01,551.036 993.105,554.907 995.2,558.764 997.295,562.609 999.39,566.44 1001.49,570.258 1003.58,574.06 1005.68,577.848 1007.77,581.621 1009.87,585.378 
  1011.96,589.119 1014.06,592.843 1016.15,596.55 1018.25,600.24 1020.34,603.911 1022.44,607.565 1024.53,611.199 1026.63,614.815 1028.72,618.41 1030.82,621.986 
  1032.91,625.541 1035.01,629.076 1037.1,632.589 1039.2,636.08 1041.29,639.55 1043.39,642.997 1045.48,646.421 1047.58,649.822 1049.67,653.199 1051.77,656.552 
  1053.86,659.881 1055.96,663.184 1058.05,666.463 1060.15,669.716 1062.24,672.943 1064.34,676.144 1066.43,679.318 1068.53,682.465 1070.62,685.585 1072.72,688.677 
  1074.81,691.741 1076.91,694.776 1079,697.782 1081.1,700.76 1083.19,703.708 1085.28,706.626 1087.38,709.514 1089.47,712.371 1091.57,715.198 1093.66,717.993 
  1095.76,720.757 1097.85,723.489 1099.95,726.19 1102.04,728.857 1104.14,731.493 1106.23,734.095 1108.33,736.664 1110.42,739.199 1112.52,741.7 1114.61,744.168 
  1116.71,746.601 1118.8,748.999 1120.9,751.362 1122.99,753.69 1125.09,755.983 1127.18,758.24 1129.28,760.46 1131.37,762.645 1133.47,764.793 1135.56,766.904 
  1137.66,768.979 1139.75,771.016 1141.85,773.016 1143.94,774.978 1146.04,776.902 1148.13,778.788 1150.23,780.636 1152.32,782.445 1154.42,784.216 1156.51,785.947 
  1158.61,787.64 1160.7,789.293 1162.8,790.907 1164.89,792.481 1166.99,794.015 1169.08,795.509 1171.18,796.963 1173.27,798.377 1175.37,799.75 1177.46,801.083 
  1179.56,802.375 1181.65,803.625 1183.75,804.835 1185.84,806.004 1187.94,807.131 1190.03,808.216 1192.13,809.26 1194.22,810.263 1196.32,811.223 1198.41,812.142 
  1200.51,813.018 1202.6,813.853 1204.7,814.645 1206.79,815.395 1208.89,816.102 1210.98,816.767 1213.08,817.39 1215.17,817.969 1217.27,818.507 1219.36,819.001 
  1221.46,819.453 1223.55,819.861 1225.65,820.227 1227.74,820.55 1229.84,820.83 1231.93,821.067 1234.03,821.26 1236.12,821.411 1238.22,821.519 1240.31,821.584 
  1242.41,821.605 1244.5,821.584 1246.6,821.519 1248.69,821.411 1250.79,821.26 1252.88,821.067 1254.98,820.83 1257.07,820.55 1259.17,820.227 1261.26,819.861 
  1263.36,819.453 1265.45,819.001 1267.55,818.507 1269.64,817.969 1271.74,817.39 1273.83,816.767 1275.93,816.102 1278.02,815.395 1280.12,814.645 1282.21,813.853 
  1284.31,813.018 1286.4,812.142 1288.5,811.223 1290.59,810.263 1292.69,809.26 1294.78,808.216 1296.88,807.131 1298.97,806.004 1301.07,804.835 1303.16,803.625 
  1305.26,802.375 1307.35,801.083 1309.45,799.75 1311.54,798.377 1313.64,796.963 1315.73,795.509 1317.83,794.015 1319.92,792.481 1322.02,790.907 1324.11,789.293 
  1326.21,787.64 1328.3,785.947 1330.4,784.216 1332.49,782.445 1334.59,780.636 1336.68,778.788 1338.78,776.902 1340.87,774.978 1342.97,773.016 1345.06,771.016 
  1347.16,768.979 1349.25,766.904 1351.35,764.793 1353.44,762.645 1355.54,760.46 1357.63,758.24 1359.73,755.983 1361.82,753.69 1363.92,751.362 1366.01,748.999 
  1368.11,746.601 1370.2,744.168 1372.3,741.7 1374.39,739.199 1376.49,736.664 1378.58,734.095 1380.68,731.493 1382.77,728.857 1384.87,726.19 1386.96,723.489 
  1389.06,720.757 1391.15,717.993 1393.25,715.198 1395.34,712.371 1397.44,709.514 1399.53,706.626 1401.63,703.708 1403.72,700.76 1405.82,697.782 1407.91,694.776 
  1410.01,691.741 1412.1,688.677 1414.2,685.585 1416.29,682.465 1418.39,679.318 1420.48,676.144 1422.58,672.943 1424.67,669.716 1426.77,666.463 1428.86,663.184 
  1430.96,659.881 1433.05,656.552 1435.15,653.199 1437.24,649.822 1439.34,646.421 1441.43,642.997 1443.53,639.55 1445.62,636.08 1447.72,632.589 1449.81,629.076 
  1451.91,625.541 1454,621.986 1456.1,618.41 1458.19,614.815 1460.29,611.199 1462.38,607.565 1464.48,603.911 1466.57,600.24 1468.67,596.55 1470.76,592.843 
  1472.86,589.119 1474.95,585.378 1477.05,581.621 1479.14,577.848 1481.24,574.06 1483.33,570.258 1485.43,566.44 1487.52,562.609 1489.62,558.764 1491.71,554.907 
  1493.81,551.036 1495.9,547.154 1498,543.26 1500.09,539.354 1502.19,535.438 1504.28,531.511 1506.38,527.575 1508.47,523.629 1510.57,519.675 1512.66,515.712 
  1514.76,511.741 1516.85,507.763 1518.95,503.777 1521.04,499.785 1523.14,495.788 1525.23,491.784 1527.33,487.776 1529.42,483.762 1531.52,479.745 1533.61,475.724 
  1535.71,471.7 1537.8,467.674 1539.9,463.645 1541.99,459.615 1544.09,455.583 1546.18,451.551 1548.28,447.518 1550.37,443.486 1552.47,439.455 1554.56,435.425 
  1556.66,431.397 1558.75,427.371 1560.85,423.348 1562.94,419.328 1565.04,415.312 1567.13,411.3 1569.23,407.293 1571.32,403.292 1573.42,399.296 1575.51,395.307 
  1577.61,391.324 1579.7,387.349 1581.8,383.381 1583.89,379.422 1585.99,375.472 1588.08,371.53 1590.18,367.599 1592.27,363.678 1594.37,359.768 1596.46,355.869 
  1598.56,351.982 1600.65,348.108 1602.75,344.246 1604.84,340.398 1606.94,336.563 1609.03,332.743 1611.13,328.938 1613.22,325.148 1615.32,321.373 1617.41,317.616 
  1619.51,313.875 1621.6,310.151 1623.7,306.445 1625.79,302.758 1627.89,299.089 1629.98,295.44 1632.08,291.81 1634.17,288.201 1636.27,284.612 1638.36,281.045 
  1640.46,277.5 1642.55,273.977 1644.65,270.477 1646.74,267 1648.84,263.546 1650.93,260.117 1653.03,256.713 1655.12,253.333 1657.22,249.98 1659.31,246.652 
  1661.41,243.352 1663.5,240.078 1665.6,236.832 1667.69,233.613 1669.79,230.424 1671.88,227.263 1673.98,224.132 1676.07,221.03 1678.17,217.959 1680.26,214.919 
  1682.36,211.91 1684.45,208.933 1686.55,205.988 1688.64,203.075 1690.74,200.196 1692.83,197.35 1694.93,194.538 1697.02,191.761 1699.12,189.018 1701.21,186.311 
  1703.31,183.64 1705.4,181.005 1707.5,178.406 1709.59,175.844 1711.69,173.32 1713.78,170.834 1715.88,168.386 1717.97,165.977 1720.07,163.607 1722.16,161.276 
  1724.26,158.986 1726.35,156.736 1728.45,154.526 1730.54,152.358 1732.64,150.231 1734.73,148.147 1736.83,146.104 1738.92,144.105 1741.02,142.149 1743.11,140.236 
  1745.21,138.367 1747.3,136.542 1749.4,134.762 1751.49,133.028 1753.59,131.338 1755.68,129.694 1757.78,128.097 1759.87,126.546 1761.97,125.041 1764.06,123.584 
  1766.16,122.175 1768.25,120.813 1770.35,119.5 1772.44,118.235 1774.54,117.019 1776.63,115.852 1778.73,114.735 1780.82,113.668 1782.92,112.651 1785.01,111.684 
  1787.11,110.768 1789.2,109.903 1791.3,109.09 1793.39,108.329 1795.49,107.619 1797.58,106.962 1799.68,106.357 1801.77,105.805 1803.87,105.307 1805.96,104.862 
  1808.06,104.47 1810.15,104.133 1812.25,103.849 1814.34,103.621 1816.44,103.447 1818.53,103.327 1820.63,103.264 1822.72,103.255 1824.82,103.303 1826.91,103.406 
  1829.01,103.565 1831.1,103.781 1833.2,104.054 1835.29,104.383 1837.39,104.77 1839.48,105.213 1841.58,105.714 1843.67,106.273 1845.77,106.89 1847.86,107.564 
  1849.96,108.297 1852.05,109.089 1854.15,109.938 1856.24,110.847 1858.34,111.814 1860.43,112.841 1862.53,113.927 1864.62,115.072 1866.72,116.276 1868.81,117.541 
  1870.91,118.865 1873,120.249 1875.1,121.693 1877.19,123.197 1879.29,124.762 1881.38,126.387 1883.48,128.072 1885.57,129.818 1887.67,131.625 1889.76,133.493 
  1891.86,135.421 1893.95,137.411 1896.05,139.462 1898.14,141.573 1900.24,143.746 1902.33,145.981 1904.43,148.276 1906.52,150.633 1908.62,153.052 1910.71,155.532 
  1912.81,158.073 1914.9,160.676 1917,163.341 1919.09,166.067 1921.19,168.855 1923.28,171.705 1925.38,174.616 1927.47,177.589 1929.57,180.623 1931.66,183.72 
  1933.76,186.878 1935.85,190.097 1937.95,193.378 1940.04,196.721 1942.14,200.126 1944.23,203.591 1946.33,207.119 1948.42,210.708 1950.52,214.358 1952.61,218.07 
  1954.71,221.842 1956.8,225.677 1958.9,229.572 1960.99,233.528 1963.09,237.546 1965.18,241.624 1967.28,245.763 1969.37,249.963 1971.47,254.223 1973.56,258.545 
  1975.66,262.926 1977.75,267.368 1979.85,271.87 1981.94,276.432 1984.04,281.054 1986.13,285.736 1988.23,290.477 1990.32,295.278 1992.42,300.139 1994.51,305.058 
  1996.61,310.037 1998.7,315.074 2000.8,320.171 2002.89,325.326 2004.99,330.539 2007.08,335.81 2009.18,341.14 2011.27,346.527 2013.37,351.972 2015.46,357.475 
  2017.56,363.034 2019.65,368.651 2021.75,374.325 2023.84,380.055 2025.94,385.841 2028.03,391.684 2030.13,397.582 2032.22,403.536 2034.32,409.546 2036.41,415.61 
  2038.51,421.73 2040.6,427.904 2042.7,434.133 2044.79,440.416 2046.89,446.753 2048.98,453.143 2051.08,459.587 2053.17,466.083 2055.27,472.633 2057.36,479.235 
  2059.46,485.889 2061.55,492.594 2063.65,499.352 2065.74,506.161 2067.84,513.02 2069.93,519.93 2072.03,526.891 2074.12,533.901 2076.22,540.962 2078.31,548.071 
  2080.41,555.23 2082.5,562.437 2084.6,569.692 2086.69,576.995 2088.79,584.346 2090.88,591.744 2092.98,599.189 2095.07,606.681 2097.17,614.218 2099.26,621.801 
  2101.36,629.43 2103.45,637.104 2105.55,644.822 2107.64,652.585 2109.74,660.391 2111.83,668.241 2113.93,676.134 2116.02,684.069 2118.12,692.047 2120.21,700.066 
  2122.31,708.127 2124.4,716.229 2126.5,724.372 2128.59,732.554 2130.69,740.777 2132.78,749.038 2134.88,757.339 2136.97,765.678 2139.07,774.054 2141.16,782.469 
  2143.26,790.92 2145.35,799.409 2147.45,807.933 2149.54,816.493 2151.64,825.088 2153.73,833.719 2155.83,842.383 2157.92,851.082 2160.02,859.813 2162.11,868.578 
  2164.21,877.376 2166.3,886.205 2168.4,895.066 2170.49,903.957 2172.59,912.88 2174.68,921.832 2176.78,930.814 2178.87,939.825 2180.97,948.865 2183.06,957.933 
  2185.16,967.028 2187.25,976.15 2189.35,985.299 2191.44,994.474 2193.54,1003.68 2195.63,1012.9 2197.73,1022.15 2199.82,1031.43 2201.92,1040.72 2204.01,1050.04 
  2206.11,1059.39 2208.2,1068.75 2210.3,1078.14 2212.39,1087.55 2214.49,1096.97 2216.58,1106.42 2218.68,1115.89 2220.77,1125.37 2222.87,1134.88 2224.96,1144.4 
  2227.06,1153.94 2229.15,1163.49 2231.25,1173.06 2233.34,1182.65 2235.44,1192.25 2237.53,1201.87 2239.63,1211.5 2241.72,1221.14 2243.82,1230.8 2245.91,1240.47 
  2248.01,1250.15 2250.1,1259.84 2252.2,1269.54 2254.29,1279.26 2256.39,1288.98 2258.48,1298.71 2260.58,1308.45 2262.67,1318.19 2264.77,1327.95 2266.86,1337.71 
  2268.96,1347.48 2271.05,1357.25 2273.15,1367.03 2275.24,1376.81 2277.34,1386.59 2279.43,1396.38 2281.53,1406.18 2283.62,1415.97 2285.72,1425.77 2287.81,1435.56 
  2289.91,1445.36 
  "/>
<circle clip-path="url(#clip932)" cx="194.913" cy="1445.36" r="14" fill="#e26f46" fill-rule="evenodd" fill-opacity="1" stroke="#000000" stroke-opacity="1" stroke-width="3.2"/>
<circle clip-path="url(#clip932)" cx="236.813" cy="1250.15" r="14" fill="#e26f46" fill-rule="evenodd" fill-opacity="1" stroke="#000000" stroke-opacity="1" stroke-width="3.2"/>
<circle clip-path="url(#clip932)" cx="278.713" cy="1059.39" r="14" fill="#e26f46" fill-rule="evenodd" fill-opacity="1" stroke="#000000" stroke-opacity="1" stroke-width="3.2"/>
<circle clip-path="url(#clip932)" cx="320.612" cy="877.376" r="14" fill="#e26f46" fill-rule="evenodd" fill-opacity="1" stroke="#000000" stroke-opacity="1" stroke-width="3.2"/>
<circle clip-path="url(#clip932)" cx="362.512" cy="708.127" r="14" fill="#e26f46" fill-rule="evenodd" fill-opacity="1" stroke="#000000" stroke-opacity="1" stroke-width="3.2"/>
<circle clip-path="url(#clip932)" cx="404.412" cy="555.23" r="14" fill="#e26f46" fill-rule="evenodd" fill-opacity="1" stroke="#000000" stroke-opacity="1" stroke-width="3.2"/>
<circle clip-path="url(#clip932)" cx="446.312" cy="421.73" r="14" fill="#e26f46" fill-rule="evenodd" fill-opacity="1" stroke="#000000" stroke-opacity="1" stroke-width="3.2"/>
<circle clip-path="url(#clip932)" cx="488.212" cy="310.037" r="14" fill="#e26f46" fill-rule="evenodd" fill-opacity="1" stroke="#000000" stroke-opacity="1" stroke-width="3.2"/>
<circle clip-path="url(#clip932)" cx="530.112" cy="221.842" r="14" fill="#e26f46" fill-rule="evenodd" fill-opacity="1" stroke="#000000" stroke-opacity="1" stroke-width="3.2"/>
<circle clip-path="url(#clip932)" cx="572.012" cy="158.073" r="14" fill="#e26f46" fill-rule="evenodd" fill-opacity="1" stroke="#000000" stroke-opacity="1" stroke-width="3.2"/>
<circle clip-path="url(#clip932)" cx="613.912" cy="118.865" r="14" fill="#e26f46" fill-rule="evenodd" fill-opacity="1" stroke="#000000" stroke-opacity="1" stroke-width="3.2"/>
<circle clip-path="url(#clip932)" cx="655.811" cy="103.565" r="14" fill="#e26f46" fill-rule="evenodd" fill-opacity="1" stroke="#000000" stroke-opacity="1" stroke-width="3.2"/>
<circle clip-path="url(#clip932)" cx="697.711" cy="110.768" r="14" fill="#e26f46" fill-rule="evenodd" fill-opacity="1" stroke="#000000" stroke-opacity="1" stroke-width="3.2"/>
<circle clip-path="url(#clip932)" cx="739.611" cy="138.367" r="14" fill="#e26f46" fill-rule="evenodd" fill-opacity="1" stroke="#000000" stroke-opacity="1" stroke-width="3.2"/>
<circle clip-path="url(#clip932)" cx="781.511" cy="183.64" r="14" fill="#e26f46" fill-rule="evenodd" fill-opacity="1" stroke="#000000" stroke-opacity="1" stroke-width="3.2"/>
<circle clip-path="url(#clip932)" cx="823.411" cy="243.352" r="14" fill="#e26f46" fill-rule="evenodd" fill-opacity="1" stroke="#000000" stroke-opacity="1" stroke-width="3.2"/>
<circle clip-path="url(#clip932)" cx="865.311" cy="313.875" r="14" fill="#e26f46" fill-rule="evenodd" fill-opacity="1" stroke="#000000" stroke-opacity="1" stroke-width="3.2"/>
<circle clip-path="url(#clip932)" cx="907.211" cy="391.324" r="14" fill="#e26f46" fill-rule="evenodd" fill-opacity="1" stroke="#000000" stroke-opacity="1" stroke-width="3.2"/>
<circle clip-path="url(#clip932)" cx="949.11" cy="471.7" r="14" fill="#e26f46" fill-rule="evenodd" fill-opacity="1" stroke="#000000" stroke-opacity="1" stroke-width="3.2"/>
<circle clip-path="url(#clip932)" cx="991.01" cy="551.036" r="14" fill="#e26f46" fill-rule="evenodd" fill-opacity="1" stroke="#000000" stroke-opacity="1" stroke-width="3.2"/>
<circle clip-path="url(#clip932)" cx="1032.91" cy="625.541" r="14" fill="#e26f46" fill-rule="evenodd" fill-opacity="1" stroke="#000000" stroke-opacity="1" stroke-width="3.2"/>
<circle clip-path="url(#clip932)" cx="1074.81" cy="691.741" r="14" fill="#e26f46" fill-rule="evenodd" fill-opacity="1" stroke="#000000" stroke-opacity="1" stroke-width="3.2"/>
<circle clip-path="url(#clip932)" cx="1116.71" cy="746.601" r="14" fill="#e26f46" fill-rule="evenodd" fill-opacity="1" stroke="#000000" stroke-opacity="1" stroke-width="3.2"/>
<circle clip-path="url(#clip932)" cx="1158.61" cy="787.64" r="14" fill="#e26f46" fill-rule="evenodd" fill-opacity="1" stroke="#000000" stroke-opacity="1" stroke-width="3.2"/>
<circle clip-path="url(#clip932)" cx="1200.51" cy="813.018" r="14" fill="#e26f46" fill-rule="evenodd" fill-opacity="1" stroke="#000000" stroke-opacity="1" stroke-width="3.2"/>
<circle clip-path="url(#clip932)" cx="1242.41" cy="821.605" r="14" fill="#e26f46" fill-rule="evenodd" fill-opacity="1" stroke="#000000" stroke-opacity="1" stroke-width="3.2"/>
<circle clip-path="url(#clip932)" cx="1284.31" cy="813.018" r="14" fill="#e26f46" fill-rule="evenodd" fill-opacity="1" stroke="#000000" stroke-opacity="1" stroke-width="3.2"/>
<circle clip-path="url(#clip932)" cx="1326.21" cy="787.64" r="14" fill="#e26f46" fill-rule="evenodd" fill-opacity="1" stroke="#000000" stroke-opacity="1" stroke-width="3.2"/>
<circle clip-path="url(#clip932)" cx="1368.11" cy="746.601" r="14" fill="#e26f46" fill-rule="evenodd" fill-opacity="1" stroke="#000000" stroke-opacity="1" stroke-width="3.2"/>
<circle clip-path="url(#clip932)" cx="1410.01" cy="691.741" r="14" fill="#e26f46" fill-rule="evenodd" fill-opacity="1" stroke="#000000" stroke-opacity="1" stroke-width="3.2"/>
<circle clip-path="url(#clip932)" cx="1451.91" cy="625.541" r="14" fill="#e26f46" fill-rule="evenodd" fill-opacity="1" stroke="#000000" stroke-opacity="1" stroke-width="3.2"/>
<circle clip-path="url(#clip932)" cx="1493.81" cy="551.036" r="14" fill="#e26f46" fill-rule="evenodd" fill-opacity="1" stroke="#000000" stroke-opacity="1" stroke-width="3.2"/>
<circle clip-path="url(#clip932)" cx="1535.71" cy="471.7" r="14" fill="#e26f46" fill-rule="evenodd" fill-opacity="1" stroke="#000000" stroke-opacity="1" stroke-width="3.2"/>
<circle clip-path="url(#clip932)" cx="1577.61" cy="391.324" r="14" fill="#e26f46" fill-rule="evenodd" fill-opacity="1" stroke="#000000" stroke-opacity="1" stroke-width="3.2"/>
<circle clip-path="url(#clip932)" cx="1619.51" cy="313.875" r="14" fill="#e26f46" fill-rule="evenodd" fill-opacity="1" stroke="#000000" stroke-opacity="1" stroke-width="3.2"/>
<circle clip-path="url(#clip932)" cx="1661.41" cy="243.352" r="14" fill="#e26f46" fill-rule="evenodd" fill-opacity="1" stroke="#000000" stroke-opacity="1" stroke-width="3.2"/>
<circle clip-path="url(#clip932)" cx="1703.31" cy="183.64" r="14" fill="#e26f46" fill-rule="evenodd" fill-opacity="1" stroke="#000000" stroke-opacity="1" stroke-width="3.2"/>
<circle clip-path="url(#clip932)" cx="1745.21" cy="138.367" r="14" fill="#e26f46" fill-rule="evenodd" fill-opacity="1" stroke="#000000" stroke-opacity="1" stroke-width="3.2"/>
<circle clip-path="url(#clip932)" cx="1787.11" cy="110.768" r="14" fill="#e26f46" fill-rule="evenodd" fill-opacity="1" stroke="#000000" stroke-opacity="1" stroke-width="3.2"/>
<circle clip-path="url(#clip932)" cx="1829.01" cy="103.565" r="14" fill="#e26f46" fill-rule="evenodd" fill-opacity="1" stroke="#000000" stroke-opacity="1" stroke-width="3.2"/>
<circle clip-path="url(#clip932)" cx="1870.91" cy="118.865" r="14" fill="#e26f46" fill-rule="evenodd" fill-opacity="1" stroke="#000000" stroke-opacity="1" stroke-width="3.2"/>
<circle clip-path="url(#clip932)" cx="1912.81" cy="158.073" r="14" fill="#e26f46" fill-rule="evenodd" fill-opacity="1" stroke="#000000" stroke-opacity="1" stroke-width="3.2"/>
<circle clip-path="url(#clip932)" cx="1954.71" cy="221.842" r="14" fill="#e26f46" fill-rule="evenodd" fill-opacity="1" stroke="#000000" stroke-opacity="1" stroke-width="3.2"/>
<circle clip-path="url(#clip932)" cx="1996.61" cy="310.037" r="14" fill="#e26f46" fill-rule="evenodd" fill-opacity="1" stroke="#000000" stroke-opacity="1" stroke-width="3.2"/>
<circle clip-path="url(#clip932)" cx="2038.51" cy="421.73" r="14" fill="#e26f46" fill-rule="evenodd" fill-opacity="1" stroke="#000000" stroke-opacity="1" stroke-width="3.2"/>
<circle clip-path="url(#clip932)" cx="2080.41" cy="555.23" r="14" fill="#e26f46" fill-rule="evenodd" fill-opacity="1" stroke="#000000" stroke-opacity="1" stroke-width="3.2"/>
<circle clip-path="url(#clip932)" cx="2122.31" cy="708.127" r="14" fill="#e26f46" fill-rule="evenodd" fill-opacity="1" stroke="#000000" stroke-opacity="1" stroke-width="3.2"/>
<circle clip-path="url(#clip932)" cx="2164.21" cy="877.376" r="14" fill="#e26f46" fill-rule="evenodd" fill-opacity="1" stroke="#000000" stroke-opacity="1" stroke-width="3.2"/>
<circle clip-path="url(#clip932)" cx="2206.11" cy="1059.39" r="14" fill="#e26f46" fill-rule="evenodd" fill-opacity="1" stroke="#000000" stroke-opacity="1" stroke-width="3.2"/>
<circle clip-path="url(#clip932)" cx="2248.01" cy="1250.15" r="14" fill="#e26f46" fill-rule="evenodd" fill-opacity="1" stroke="#000000" stroke-opacity="1" stroke-width="3.2"/>
<circle clip-path="url(#clip932)" cx="2289.91" cy="1445.36" r="14" fill="#e26f46" fill-rule="evenodd" fill-opacity="1" stroke="#000000" stroke-opacity="1" stroke-width="3.2"/>
<path clip-path="url(#clip930)" d="
M1708.5 1438.2 L2278.73 1438.2 L2278.73 1256.76 L1708.5 1256.76  Z
  " fill="#ffffff" fill-rule="evenodd" fill-opacity="1"/>
<polyline clip-path="url(#clip930)" style="stroke:#000000; stroke-width:4; stroke-opacity:1; fill:none" points="
  1708.5,1438.2 2278.73,1438.2 2278.73,1256.76 1708.5,1256.76 1708.5,1438.2 
  "/>
<polyline clip-path="url(#clip930)" style="stroke:#009af9; stroke-width:4; stroke-opacity:1; fill:none" points="
  1733.17,1317.24 1881.22,1317.24 
  "/>
<path clip-path="url(#clip930)" d="M 0 0 M1931.05 1316.67 Q1931.05 1319.03 1929.83 1321.4 Q1928.61 1323.76 1926.62 1325.59 Q1924.63 1327.39 1921.92 1328.56 Q1919.2 1329.74 1916.36 1329.83 L1914.54 1336.97 Q1914.19 1338.71 1914 1338.89 Q1913.81 1339.08 1913.53 1339.08 Q1912.94 1339.08 1912.94 1338.54 Q1912.94 1338.38 1914 1334.33 L1915.12 1329.83 Q1910.86 1329.59 1908.38 1327.14 Q1905.89 1324.68 1905.89 1321.14 Q1905.89 1318.75 1907.11 1316.38 Q1908.35 1314 1910.34 1312.19 Q1912.36 1310.39 1915.08 1309.24 Q1917.79 1308.09 1920.58 1308 L1923.37 1296.92 Q1923.51 1296.29 1923.63 1296.12 Q1923.74 1295.96 1924.09 1295.96 Q1924.35 1295.96 1924.49 1296.08 Q1924.63 1296.19 1924.63 1296.31 L1924.66 1296.43 L1924.52 1297.11 L1921.82 1308 Q1924.21 1308.16 1926.06 1309.01 Q1927.91 1309.85 1928.97 1311.11 Q1930.02 1312.36 1930.53 1313.76 Q1931.05 1315.17 1931.05 1316.67 M1920.3 1309.05 Q1917.72 1309.29 1915.54 1310.55 Q1913.37 1311.82 1911.96 1313.69 Q1910.56 1315.54 1909.78 1317.77 Q1909.01 1319.97 1909.01 1322.15 Q1909.01 1323.86 1909.57 1325.17 Q1910.16 1326.48 1911.12 1327.23 Q1912.08 1327.96 1913.13 1328.35 Q1914.21 1328.73 1915.36 1328.77 L1920.3 1309.05 M1927.91 1315.66 Q1927.91 1312.61 1926.15 1310.9 Q1924.4 1309.19 1921.54 1309.05 L1916.6 1328.77 Q1918.68 1328.61 1920.51 1327.74 Q1922.36 1326.85 1923.7 1325.54 Q1925.03 1324.21 1925.99 1322.57 Q1926.95 1320.9 1927.42 1319.15 Q1927.91 1317.37 1927.91 1315.66 Z" fill="#000000" fill-rule="evenodd" fill-opacity="1" /><path clip-path="url(#clip930)" d="M 0 0 M1934.19 1317.25 Q1934.19 1309.15 1937.21 1302.61 Q1938.5 1299.87 1940.3 1297.58 Q1942.11 1295.28 1943.3 1294.27 Q1944.5 1293.27 1944.82 1293.27 Q1945.29 1293.27 1945.32 1293.73 Q1945.32 1293.97 1944.68 1294.55 Q1936.95 1302.42 1936.98 1317.25 Q1936.98 1332.12 1944.5 1339.69 Q1945.32 1340.51 1945.32 1340.77 Q1945.32 1341.24 1944.82 1341.24 Q1944.5 1341.24 1943.35 1340.28 Q1942.2 1339.32 1940.42 1337.11 Q1938.64 1334.91 1937.35 1332.22 Q1934.19 1325.68 1934.19 1317.25 Z" fill="#000000" fill-rule="evenodd" fill-opacity="1" /><path clip-path="url(#clip930)" d="M 0 0 M1976.5 1311.21 Q1976.5 1312.52 1975.68 1313.27 Q1974.86 1314 1973.92 1314 Q1973.03 1314 1972.56 1313.48 Q1972.09 1312.96 1972.09 1312.31 Q1972.09 1311.42 1972.75 1310.65 Q1973.41 1309.87 1974.39 1309.71 Q1973.43 1309.1 1972 1309.1 Q1971.06 1309.1 1970.24 1309.59 Q1969.45 1310.08 1968.95 1310.72 Q1968.49 1311.35 1968.06 1312.26 Q1967.67 1313.15 1967.5 1313.69 Q1967.36 1314.21 1967.24 1314.77 L1965.61 1321.33 Q1964.81 1324.44 1964.81 1325.54 Q1964.81 1326.9 1965.46 1327.81 Q1966.12 1328.7 1967.43 1328.7 Q1967.95 1328.7 1968.53 1328.56 Q1969.12 1328.4 1969.87 1327.98 Q1970.64 1327.53 1971.32 1326.88 Q1972.02 1326.2 1972.7 1325.05 Q1973.38 1323.9 1973.83 1322.43 Q1973.97 1321.91 1974.44 1321.91 Q1975.02 1321.91 1975.02 1322.38 Q1975.02 1322.78 1974.69 1323.62 Q1974.39 1324.44 1973.71 1325.52 Q1973.05 1326.57 1972.19 1327.53 Q1971.32 1328.47 1970.03 1329.13 Q1968.74 1329.78 1967.34 1329.78 Q1965.32 1329.78 1963.99 1328.7 Q1962.65 1327.63 1962.16 1326.13 Q1962.05 1326.34 1961.88 1326.62 Q1961.72 1326.9 1961.23 1327.53 Q1960.76 1328.14 1960.22 1328.61 Q1959.68 1329.06 1958.84 1329.41 Q1958.02 1329.78 1957.13 1329.78 Q1956 1329.78 1955 1329.45 Q1954.01 1329.13 1953.31 1328.38 Q1952.61 1327.63 1952.61 1326.6 Q1952.61 1325.45 1953.38 1324.65 Q1954.18 1323.83 1955.25 1323.83 Q1955.93 1323.83 1956.47 1324.23 Q1957.03 1324.63 1957.03 1325.5 Q1957.03 1326.46 1956.38 1327.18 Q1955.72 1327.91 1954.78 1328.1 Q1955.74 1328.7 1957.17 1328.7 Q1958.72 1328.7 1959.94 1327.35 Q1961.16 1325.99 1961.74 1323.72 Q1963.19 1318.26 1963.76 1315.82 Q1964.32 1313.36 1964.32 1312.31 Q1964.32 1311.33 1964.06 1310.65 Q1963.8 1309.97 1963.36 1309.66 Q1962.94 1309.33 1962.54 1309.22 Q1962.16 1309.1 1961.74 1309.1 Q1961.04 1309.1 1960.24 1309.38 Q1959.47 1309.66 1958.53 1310.32 Q1957.62 1310.95 1956.75 1312.26 Q1955.89 1313.57 1955.3 1315.38 Q1955.18 1315.92 1954.67 1315.92 Q1954.1 1315.89 1954.1 1315.42 Q1954.1 1315.03 1954.41 1314.21 Q1954.74 1313.36 1955.39 1312.31 Q1956.07 1311.25 1956.94 1310.32 Q1957.83 1309.36 1959.12 1308.7 Q1960.43 1308.05 1961.83 1308.05 Q1962.47 1308.05 1963.08 1308.19 Q1963.71 1308.3 1964.46 1308.66 Q1965.23 1309.01 1965.91 1309.78 Q1966.59 1310.55 1967.01 1311.68 Q1967.29 1311.14 1967.67 1310.62 Q1968.06 1310.11 1968.67 1309.47 Q1969.31 1308.82 1970.17 1308.44 Q1971.06 1308.05 1972.05 1308.05 Q1973.01 1308.05 1973.94 1308.3 Q1974.88 1308.54 1975.68 1309.31 Q1976.5 1310.06 1976.5 1311.21 Z" fill="#000000" fill-rule="evenodd" fill-opacity="1" /><path clip-path="url(#clip930)" d="M 0 0 M1979.77 1340.77 Q1979.77 1340.53 1980.37 1339.95 Q1988.1 1332.08 1988.1 1317.25 Q1988.1 1302.38 1980.68 1294.86 Q1979.77 1293.99 1979.77 1293.73 Q1979.77 1293.27 1980.23 1293.27 Q1980.56 1293.27 1981.71 1294.23 Q1982.88 1295.19 1984.64 1297.39 Q1986.42 1299.59 1987.73 1302.28 Q1990.89 1308.82 1990.89 1317.25 Q1990.89 1325.36 1987.87 1331.89 Q1986.58 1334.63 1984.78 1336.93 Q1982.97 1339.22 1981.78 1340.23 Q1980.59 1341.24 1980.23 1341.24 Q1979.77 1341.24 1979.77 1340.77 Z" fill="#000000" fill-rule="evenodd" fill-opacity="1" /><circle clip-path="url(#clip930)" cx="1807.2" cy="1377.72" r="23" fill="#e26f46" fill-rule="evenodd" fill-opacity="1" stroke="#000000" stroke-opacity="1" stroke-width="5.12"/>
<path clip-path="url(#clip930)" d="M 0 0 M1938.52 1357.78 Q1938.52 1358.22 1938.43 1358.59 L1937.12 1366.93 Q1937.05 1367.57 1936.91 1367.8 Q1936.79 1368.03 1936.41 1368.03 Q1935.83 1368.03 1935.83 1367.43 Q1935.83 1367.07 1935.97 1366.51 Q1936.37 1363.86 1936.37 1362.67 Q1936.37 1361.87 1936.2 1361.29 Q1936.06 1360.68 1935.83 1360.26 Q1935.62 1359.84 1935.13 1359.56 Q1934.63 1359.27 1934.17 1359.11 Q1933.7 1358.95 1932.85 1358.88 Q1932.01 1358.78 1931.28 1358.76 Q1930.56 1358.74 1929.36 1358.74 Q1926.76 1358.74 1926.34 1358.83 Q1925.9 1358.95 1925.66 1359.3 Q1925.45 1359.63 1925.22 1360.61 L1918.85 1386.07 L1918.66 1387.08 Q1918.66 1387.64 1919.01 1387.83 Q1919.36 1388.01 1920.44 1388.13 Q1921.99 1388.25 1923.51 1388.25 Q1923.56 1388.25 1923.65 1388.25 Q1924.16 1388.25 1924.37 1388.27 Q1924.59 1388.27 1924.8 1388.32 Q1925.01 1388.36 1925.05 1388.48 Q1925.12 1388.58 1925.12 1388.76 Q1925.12 1389.21 1924.94 1389.44 Q1924.75 1389.65 1924.56 1389.7 Q1924.4 1389.72 1924.07 1389.72 Q1923.41 1389.72 1922.01 1389.68 Q1920.6 1389.63 1919.9 1389.63 L1915.92 1389.58 L1911.84 1389.63 Q1911.21 1389.63 1909.88 1389.68 Q1908.54 1389.72 1907.91 1389.72 Q1907.09 1389.72 1907.09 1389.14 Q1907.09 1388.48 1907.39 1388.36 Q1907.72 1388.25 1909.1 1388.25 Q1911.05 1388.25 1912.1 1388.15 Q1913.16 1388.06 1913.72 1387.73 Q1914.3 1387.4 1914.47 1387.08 Q1914.63 1386.73 1914.82 1385.93 L1921.26 1360.33 Q1921.45 1359.77 1921.45 1359.32 Q1921.45 1359.09 1921.38 1358.99 Q1921.33 1358.9 1921.03 1358.83 Q1920.72 1358.74 1920.09 1358.74 L1918.21 1358.74 Q1916.29 1358.74 1915.1 1358.83 Q1913.93 1358.9 1912.8 1359.25 Q1911.7 1359.6 1911.05 1360.09 Q1910.42 1360.59 1909.71 1361.59 Q1909.01 1362.6 1908.49 1363.82 Q1908 1365.04 1907.3 1367.03 Q1907.07 1367.68 1906.93 1367.87 Q1906.81 1368.03 1906.48 1368.03 Q1906.25 1368.03 1906.06 1367.89 Q1905.89 1367.73 1905.89 1367.52 Q1906.13 1366.75 1906.18 1366.65 L1909.06 1358.2 Q1909.29 1357.52 1909.5 1357.4 Q1909.74 1357.26 1910.6 1357.26 L1937.21 1357.26 Q1937.63 1357.26 1937.77 1357.26 Q1937.91 1357.26 1938.15 1357.31 Q1938.38 1357.35 1938.45 1357.47 Q1938.52 1357.59 1938.52 1357.78 Z" fill="#000000" fill-rule="evenodd" fill-opacity="1" /><path clip-path="url(#clip930)" d="M 0 0 M1933.63 1377.73 Q1933.63 1369.63 1936.66 1363.09 Q1937.94 1360.35 1939.75 1358.06 Q1941.55 1355.76 1942.75 1354.75 Q1943.94 1353.75 1944.27 1353.75 Q1944.74 1353.75 1944.76 1354.21 Q1944.76 1354.45 1944.13 1355.03 Q1936.4 1362.9 1936.42 1377.73 Q1936.42 1392.6 1943.94 1400.17 Q1944.76 1400.99 1944.76 1401.25 Q1944.76 1401.72 1944.27 1401.72 Q1943.94 1401.72 1942.79 1400.76 Q1941.64 1399.8 1939.86 1397.59 Q1938.08 1395.39 1936.8 1392.7 Q1933.63 1386.16 1933.63 1377.73 Z" fill="#000000" fill-rule="evenodd" fill-opacity="1" /><path clip-path="url(#clip930)" d="M 0 0 M1975.94 1371.69 Q1975.94 1373 1975.12 1373.75 Q1974.3 1374.48 1973.36 1374.48 Q1972.47 1374.48 1972.01 1373.96 Q1971.54 1373.44 1971.54 1372.79 Q1971.54 1371.9 1972.19 1371.13 Q1972.85 1370.35 1973.83 1370.19 Q1972.87 1369.58 1971.44 1369.58 Q1970.51 1369.58 1969.69 1370.07 Q1968.89 1370.56 1968.4 1371.2 Q1967.93 1371.83 1967.51 1372.74 Q1967.11 1373.63 1966.95 1374.17 Q1966.81 1374.69 1966.69 1375.25 L1965.05 1381.81 Q1964.25 1384.92 1964.25 1386.02 Q1964.25 1387.38 1964.91 1388.29 Q1965.56 1389.18 1966.88 1389.18 Q1967.39 1389.18 1967.98 1389.04 Q1968.56 1388.88 1969.31 1388.46 Q1970.08 1388.01 1970.76 1387.36 Q1971.47 1386.68 1972.15 1385.53 Q1972.83 1384.38 1973.27 1382.91 Q1973.41 1382.39 1973.88 1382.39 Q1974.46 1382.39 1974.46 1382.86 Q1974.46 1383.26 1974.14 1384.1 Q1973.83 1384.92 1973.15 1386 Q1972.5 1387.05 1971.63 1388.01 Q1970.76 1388.95 1969.48 1389.61 Q1968.19 1390.26 1966.78 1390.26 Q1964.77 1390.26 1963.43 1389.18 Q1962.1 1388.11 1961.61 1386.61 Q1961.49 1386.82 1961.32 1387.1 Q1961.16 1387.38 1960.67 1388.01 Q1960.2 1388.62 1959.66 1389.09 Q1959.12 1389.54 1958.28 1389.89 Q1957.46 1390.26 1956.57 1390.26 Q1955.45 1390.26 1954.44 1389.93 Q1953.45 1389.61 1952.75 1388.86 Q1952.05 1388.11 1952.05 1387.08 Q1952.05 1385.93 1952.82 1385.13 Q1953.62 1384.31 1954.7 1384.31 Q1955.38 1384.31 1955.91 1384.71 Q1956.48 1385.11 1956.48 1385.98 Q1956.48 1386.94 1955.82 1387.66 Q1955.16 1388.39 1954.23 1388.58 Q1955.19 1389.18 1956.62 1389.18 Q1958.16 1389.18 1959.38 1387.83 Q1960.6 1386.47 1961.18 1384.2 Q1962.64 1378.74 1963.2 1376.3 Q1963.76 1373.84 1963.76 1372.79 Q1963.76 1371.81 1963.5 1371.13 Q1963.25 1370.45 1962.8 1370.14 Q1962.38 1369.81 1961.98 1369.7 Q1961.61 1369.58 1961.18 1369.58 Q1960.48 1369.58 1959.69 1369.86 Q1958.91 1370.14 1957.98 1370.8 Q1957.06 1371.43 1956.2 1372.74 Q1955.33 1374.05 1954.74 1375.86 Q1954.63 1376.4 1954.11 1376.4 Q1953.55 1376.37 1953.55 1375.9 Q1953.55 1375.51 1953.85 1374.69 Q1954.18 1373.84 1954.84 1372.79 Q1955.52 1371.73 1956.38 1370.8 Q1957.27 1369.84 1958.56 1369.18 Q1959.87 1368.53 1961.28 1368.53 Q1961.91 1368.53 1962.52 1368.67 Q1963.15 1368.78 1963.9 1369.14 Q1964.67 1369.49 1965.35 1370.26 Q1966.03 1371.03 1966.45 1372.16 Q1966.74 1371.62 1967.11 1371.1 Q1967.51 1370.59 1968.12 1369.95 Q1968.75 1369.3 1969.62 1368.92 Q1970.51 1368.53 1971.49 1368.53 Q1972.45 1368.53 1973.39 1368.78 Q1974.32 1369.02 1975.12 1369.79 Q1975.94 1370.54 1975.94 1371.69 Z" fill="#000000" fill-rule="evenodd" fill-opacity="1" /><path clip-path="url(#clip930)" d="M 0 0 M1986.81 1382.44 Q1986.86 1381.85 1987.77 1381.85 L2017.17 1381.85 Q2018.55 1381.85 2018.57 1382.39 Q2018.57 1382.98 2017.26 1382.95 L1988.1 1382.95 Q1986.81 1382.98 1986.81 1382.44 M1986.81 1373.07 Q1986.81 1372.48 1987.82 1372.51 L2017.12 1372.51 Q2018.55 1372.51 2018.57 1373.07 Q2018.57 1373.61 2017.35 1373.61 L1987.77 1373.61 Q1986.81 1373.61 1986.81 1373.07 Z" fill="#000000" fill-rule="evenodd" fill-opacity="1" /><path clip-path="url(#clip930)" d="M 0 0 M2055.25 1371.69 Q2055.25 1373 2054.43 1373.75 Q2053.61 1374.48 2052.68 1374.48 Q2051.79 1374.48 2051.32 1373.96 Q2050.85 1373.44 2050.85 1372.79 Q2050.85 1371.9 2051.5 1371.13 Q2052.16 1370.35 2053.14 1370.19 Q2052.18 1369.58 2050.75 1369.58 Q2049.82 1369.58 2049 1370.07 Q2048.2 1370.56 2047.71 1371.2 Q2047.24 1371.83 2046.82 1372.74 Q2046.42 1373.63 2046.26 1374.17 Q2046.12 1374.69 2046 1375.25 L2044.36 1381.81 Q2043.56 1384.92 2043.56 1386.02 Q2043.56 1387.38 2044.22 1388.29 Q2044.88 1389.18 2046.19 1389.18 Q2046.7 1389.18 2047.29 1389.04 Q2047.87 1388.88 2048.62 1388.46 Q2049.4 1388.01 2050.08 1387.36 Q2050.78 1386.68 2051.46 1385.53 Q2052.14 1384.38 2052.58 1382.91 Q2052.72 1382.39 2053.19 1382.39 Q2053.78 1382.39 2053.78 1382.86 Q2053.78 1383.26 2053.45 1384.1 Q2053.14 1384.92 2052.46 1386 Q2051.81 1387.05 2050.94 1388.01 Q2050.08 1388.95 2048.79 1389.61 Q2047.5 1390.26 2046.09 1390.26 Q2044.08 1390.26 2042.74 1389.18 Q2041.41 1388.11 2040.92 1386.61 Q2040.8 1386.82 2040.64 1387.1 Q2040.47 1387.38 2039.98 1388.01 Q2039.51 1388.62 2038.97 1389.09 Q2038.43 1389.54 2037.59 1389.89 Q2036.77 1390.26 2035.88 1390.26 Q2034.76 1390.26 2033.75 1389.93 Q2032.77 1389.61 2032.06 1388.86 Q2031.36 1388.11 2031.36 1387.08 Q2031.36 1385.93 2032.13 1385.13 Q2032.93 1384.31 2034.01 1384.31 Q2034.69 1384.31 2035.23 1384.71 Q2035.79 1385.11 2035.79 1385.98 Q2035.79 1386.94 2035.13 1387.66 Q2034.48 1388.39 2033.54 1388.58 Q2034.5 1389.18 2035.93 1389.18 Q2037.47 1389.18 2038.69 1387.83 Q2039.91 1386.47 2040.5 1384.2 Q2041.95 1378.74 2042.51 1376.3 Q2043.07 1373.84 2043.07 1372.79 Q2043.07 1371.81 2042.81 1371.13 Q2042.56 1370.45 2042.11 1370.14 Q2041.69 1369.81 2041.29 1369.7 Q2040.92 1369.58 2040.5 1369.58 Q2039.79 1369.58 2039 1369.86 Q2038.22 1370.14 2037.29 1370.8 Q2036.37 1371.43 2035.51 1372.74 Q2034.64 1374.05 2034.05 1375.86 Q2033.94 1376.4 2033.42 1376.4 Q2032.86 1376.37 2032.86 1375.9 Q2032.86 1375.51 2033.16 1374.69 Q2033.49 1373.84 2034.15 1372.79 Q2034.83 1371.73 2035.69 1370.8 Q2036.58 1369.84 2037.87 1369.18 Q2039.18 1368.53 2040.59 1368.53 Q2041.22 1368.53 2041.83 1368.67 Q2042.46 1368.78 2043.21 1369.14 Q2043.99 1369.49 2044.67 1370.26 Q2045.34 1371.03 2045.77 1372.16 Q2046.05 1371.62 2046.42 1371.1 Q2046.82 1370.59 2047.43 1369.95 Q2048.06 1369.3 2048.93 1368.92 Q2049.82 1368.53 2050.8 1368.53 Q2051.76 1368.53 2052.7 1368.78 Q2053.64 1369.02 2054.43 1369.79 Q2055.25 1370.54 2055.25 1371.69 Z" fill="#000000" fill-rule="evenodd" fill-opacity="1" /><path clip-path="url(#clip930)" d="M 0 0 M2072.91 1395.3 Q2073.04 1395.44 2073.04 1395.59 Q2073.04 1395.74 2072.71 1396.17 Q2072.4 1396.59 2071.73 1397.17 Q2071.06 1397.74 2070.19 1398.28 Q2069.32 1398.82 2068.04 1399.18 Q2066.76 1399.56 2065.42 1399.56 Q2063.01 1399.56 2061.56 1397.84 Q2060.14 1396.12 2060.14 1393.48 Q2060.14 1391.79 2060.69 1390.3 Q2061.25 1388.79 2062.15 1387.72 Q2063.07 1386.66 2064.22 1385.89 Q2065.38 1385.1 2066.6 1384.72 Q2067.81 1384.34 2068.94 1384.34 Q2070.6 1384.34 2071.57 1385.18 Q2072.53 1386.02 2072.53 1387.2 Q2072.53 1387.48 2072.45 1387.82 Q2072.38 1388.16 2072.16 1388.71 Q2071.94 1389.25 2071.38 1389.79 Q2070.83 1390.31 2070.01 1390.66 Q2068.19 1391.43 2064.88 1391.43 L2063.09 1391.43 Q2062.56 1393.54 2062.56 1394.92 Q2062.56 1395.46 2062.66 1396.02 Q2062.76 1396.56 2063.02 1397.25 Q2063.3 1397.94 2063.92 1398.38 Q2064.56 1398.8 2065.48 1398.8 Q2065.78 1398.8 2066.09 1398.79 Q2066.42 1398.77 2067.24 1398.59 Q2068.07 1398.41 2068.81 1398.1 Q2069.55 1397.79 2070.48 1397.12 Q2071.43 1396.43 2072.19 1395.49 Q2072.45 1395.15 2072.63 1395.15 Q2072.78 1395.15 2072.91 1395.3 M2071.42 1387.2 Q2071.42 1386.3 2070.75 1385.69 Q2070.09 1385.08 2068.94 1385.08 Q2068.58 1385.08 2068.14 1385.16 Q2067.7 1385.25 2066.96 1385.59 Q2066.24 1385.93 2065.6 1386.51 Q2064.96 1387.07 2064.32 1388.16 Q2063.68 1389.25 2063.3 1390.69 L2064.68 1390.69 Q2065.15 1390.69 2065.5 1390.69 Q2065.84 1390.67 2066.6 1390.61 Q2067.37 1390.54 2067.93 1390.43 Q2068.48 1390.3 2069.19 1390.03 Q2069.89 1389.77 2070.34 1389.43 Q2070.79 1389.07 2071.11 1388.49 Q2071.42 1387.92 2071.42 1387.2 Z" fill="#000000" fill-rule="evenodd" fill-opacity="1" /><path clip-path="url(#clip930)" d="M 0 0 M2078.71 1388.95 Q2078.03 1388.18 2078.03 1387.17 Q2078.03 1386.16 2078.69 1385.41 Q2079.37 1384.64 2080.59 1384.64 Q2082.01 1384.64 2082.83 1386.02 Q2083.65 1387.38 2083.65 1389.68 Q2083.65 1392.16 2082.65 1394.45 Q2081.64 1396.77 2080.66 1397.87 Q2079.67 1398.98 2079.27 1398.98 Q2078.81 1398.98 2078.81 1398.46 Q2078.81 1398.27 2079.13 1397.92 Q2082.58 1394.22 2082.6 1389.68 Q2082.6 1388.95 2082.51 1388.95 L2082.39 1389.04 Q2081.57 1389.72 2080.59 1389.72 Q2079.39 1389.72 2078.71 1388.95 Z" fill="#000000" fill-rule="evenodd" fill-opacity="1" /><path clip-path="url(#clip930)" d="M 0 0 M2098.79 1374.38 Q2098.79 1367.33 2100.57 1363.49 Q2103.05 1357.78 2108.9 1357.78 Q2110.15 1357.78 2111.43 1358.13 Q2112.75 1358.45 2114.39 1359.74 Q2116.05 1361.03 2117.06 1363.14 Q2118.98 1367.21 2118.98 1374.38 Q2118.98 1381.38 2117.2 1385.2 Q2114.6 1390.78 2108.86 1390.78 Q2106.7 1390.78 2104.5 1389.68 Q2102.32 1388.58 2100.94 1385.93 Q2098.79 1381.97 2098.79 1374.38 M2102.77 1373.8 Q2102.77 1381.03 2103.28 1383.91 Q2103.87 1387.03 2105.46 1388.39 Q2107.08 1389.72 2108.86 1389.72 Q2110.78 1389.72 2112.37 1388.29 Q2113.99 1386.84 2114.48 1383.73 Q2115.02 1380.66 2114.99 1373.8 Q2114.99 1367.12 2114.53 1364.45 Q2113.89 1361.34 2112.21 1360.09 Q2110.54 1358.83 2108.86 1358.83 Q2108.22 1358.83 2107.55 1359.02 Q2106.89 1359.2 2105.93 1359.74 Q2104.97 1360.28 2104.22 1361.62 Q2103.49 1362.95 2103.14 1364.97 Q2102.77 1367.57 2102.77 1373.8 Z" fill="#000000" fill-rule="evenodd" fill-opacity="1" /><path clip-path="url(#clip930)" d="M 0 0 M2122.54 1401.25 Q2122.54 1401.01 2123.14 1400.43 Q2130.87 1392.56 2130.87 1377.73 Q2130.87 1362.86 2123.45 1355.34 Q2122.54 1354.47 2122.54 1354.21 Q2122.54 1353.75 2123 1353.75 Q2123.33 1353.75 2124.48 1354.71 Q2125.65 1355.67 2127.41 1357.87 Q2129.19 1360.07 2130.5 1362.76 Q2133.66 1369.3 2133.66 1377.73 Q2133.66 1385.84 2130.64 1392.37 Q2129.35 1395.11 2127.55 1397.41 Q2125.74 1399.7 2124.55 1400.71 Q2123.36 1401.72 2123 1401.72 Q2122.54 1401.72 2122.54 1401.25 Z" fill="#000000" fill-rule="evenodd" fill-opacity="1" /></svg>
