<?xml version="1.0" encoding="utf-8"?>
<svg xmlns="http://www.w3.org/2000/svg" xmlns:xlink="http://www.w3.org/1999/xlink" width="600" height="400" viewBox="0 0 2400 1600">
<defs>
  <clipPath id="clip740">
    <rect x="0" y="0" width="2400" height="1600"/>
  </clipPath>
</defs>
<path clip-path="url(#clip740)" d="
M0 1600 L2400 1600 L2400 0 L0 0  Z
  " fill="#ffffff" fill-rule="evenodd" fill-opacity="1"/>
<defs>
  <clipPath id="clip741">
    <rect x="480" y="0" width="1681" height="1600"/>
  </clipPath>
</defs>
<path clip-path="url(#clip740)" d="
M132.063 1485.62 L2352.76 1485.62 L2352.76 62.9921 L132.063 62.9921  Z
  " fill="#ffffff" fill-rule="evenodd" fill-opacity="1"/>
<defs>
  <clipPath id="clip742">
    <rect x="132" y="62" width="2222" height="1424"/>
  </clipPath>
</defs>
<polyline clip-path="url(#clip742)" style="stroke:#000000; stroke-width:2; stroke-opacity:0.1; fill:none" points="
  194.913,1485.62 194.913,62.9921 
  "/>
<polyline clip-path="url(#clip742)" style="stroke:#000000; stroke-width:2; stroke-opacity:0.1; fill:none" points="
  718.661,1485.62 718.661,62.9921 
  "/>
<polyline clip-path="url(#clip742)" style="stroke:#000000; stroke-width:2; stroke-opacity:0.1; fill:none" points="
  1242.41,1485.62 1242.41,62.9921 
  "/>
<polyline clip-path="url(#clip742)" style="stroke:#000000; stroke-width:2; stroke-opacity:0.1; fill:none" points="
  1766.16,1485.62 1766.16,62.9921 
  "/>
<polyline clip-path="url(#clip742)" style="stroke:#000000; stroke-width:2; stroke-opacity:0.1; fill:none" points="
  2289.91,1485.62 2289.91,62.9921 
  "/>
<polyline clip-path="url(#clip740)" style="stroke:#000000; stroke-width:4; stroke-opacity:1; fill:none" points="
  132.063,1485.62 2352.76,1485.62 
  "/>
<polyline clip-path="url(#clip740)" style="stroke:#000000; stroke-width:4; stroke-opacity:1; fill:none" points="
  194.913,1485.62 194.913,1468.55 
  "/>
<polyline clip-path="url(#clip740)" style="stroke:#000000; stroke-width:4; stroke-opacity:1; fill:none" points="
  718.661,1485.62 718.661,1468.55 
  "/>
<polyline clip-path="url(#clip740)" style="stroke:#000000; stroke-width:4; stroke-opacity:1; fill:none" points="
  1242.41,1485.62 1242.41,1468.55 
  "/>
<polyline clip-path="url(#clip740)" style="stroke:#000000; stroke-width:4; stroke-opacity:1; fill:none" points="
  1766.16,1485.62 1766.16,1468.55 
  "/>
<polyline clip-path="url(#clip740)" style="stroke:#000000; stroke-width:4; stroke-opacity:1; fill:none" points="
  2289.91,1485.62 2289.91,1468.55 
  "/>
<path clip-path="url(#clip740)" d="M 0 0 M162.922 1514.82 Q159.311 1514.82 157.483 1518.38 Q155.677 1521.92 155.677 1529.05 Q155.677 1536.16 157.483 1539.72 Q159.311 1543.26 162.922 1543.26 Q166.557 1543.26 168.362 1539.72 Q170.191 1536.16 170.191 1529.05 Q170.191 1521.92 168.362 1518.38 Q166.557 1514.82 162.922 1514.82 M162.922 1511.11 Q168.732 1511.11 171.788 1515.72 Q174.867 1520.3 174.867 1529.05 Q174.867 1537.78 171.788 1542.38 Q168.732 1546.97 162.922 1546.97 Q157.112 1546.97 154.033 1542.38 Q150.978 1537.78 150.978 1529.05 Q150.978 1520.3 154.033 1515.72 Q157.112 1511.11 162.922 1511.11 Z" fill="#000000" fill-rule="evenodd" fill-opacity="1" /><path clip-path="url(#clip740)" d="M 0 0 M179.936 1540.42 L184.82 1540.42 L184.82 1546.3 L179.936 1546.3 L179.936 1540.42 Z" fill="#000000" fill-rule="evenodd" fill-opacity="1" /><path clip-path="url(#clip740)" d="M 0 0 M199.89 1514.82 Q196.279 1514.82 194.45 1518.38 Q192.644 1521.92 192.644 1529.05 Q192.644 1536.16 194.45 1539.72 Q196.279 1543.26 199.89 1543.26 Q203.524 1543.26 205.329 1539.72 Q207.158 1536.16 207.158 1529.05 Q207.158 1521.92 205.329 1518.38 Q203.524 1514.82 199.89 1514.82 M199.89 1511.11 Q205.7 1511.11 208.755 1515.72 Q211.834 1520.3 211.834 1529.05 Q211.834 1537.78 208.755 1542.38 Q205.7 1546.97 199.89 1546.97 Q194.08 1546.97 191.001 1542.38 Q187.945 1537.78 187.945 1529.05 Q187.945 1520.3 191.001 1515.72 Q194.08 1511.11 199.89 1511.11 Z" fill="#000000" fill-rule="evenodd" fill-opacity="1" /><path clip-path="url(#clip740)" d="M 0 0 M226.903 1514.82 Q223.292 1514.82 221.464 1518.38 Q219.658 1521.92 219.658 1529.05 Q219.658 1536.16 221.464 1539.72 Q223.292 1543.26 226.903 1543.26 Q230.538 1543.26 232.343 1539.72 Q234.172 1536.16 234.172 1529.05 Q234.172 1521.92 232.343 1518.38 Q230.538 1514.82 226.903 1514.82 M226.903 1511.11 Q232.714 1511.11 235.769 1515.72 Q238.848 1520.3 238.848 1529.05 Q238.848 1537.78 235.769 1542.38 Q232.714 1546.97 226.903 1546.97 Q221.093 1546.97 218.015 1542.38 Q214.959 1537.78 214.959 1529.05 Q214.959 1520.3 218.015 1515.72 Q221.093 1511.11 226.903 1511.11 Z" fill="#000000" fill-rule="evenodd" fill-opacity="1" /><path clip-path="url(#clip740)" d="M 0 0 M687.967 1514.82 Q684.356 1514.82 682.527 1518.38 Q680.722 1521.92 680.722 1529.05 Q680.722 1536.16 682.527 1539.72 Q684.356 1543.26 687.967 1543.26 Q691.601 1543.26 693.407 1539.72 Q695.235 1536.16 695.235 1529.05 Q695.235 1521.92 693.407 1518.38 Q691.601 1514.82 687.967 1514.82 M687.967 1511.11 Q693.777 1511.11 696.833 1515.72 Q699.911 1520.3 699.911 1529.05 Q699.911 1537.78 696.833 1542.38 Q693.777 1546.97 687.967 1546.97 Q682.157 1546.97 679.078 1542.38 Q676.023 1537.78 676.023 1529.05 Q676.023 1520.3 679.078 1515.72 Q682.157 1511.11 687.967 1511.11 Z" fill="#000000" fill-rule="evenodd" fill-opacity="1" /><path clip-path="url(#clip740)" d="M 0 0 M704.981 1540.42 L709.865 1540.42 L709.865 1546.3 L704.981 1546.3 L704.981 1540.42 Z" fill="#000000" fill-rule="evenodd" fill-opacity="1" /><path clip-path="url(#clip740)" d="M 0 0 M718.962 1542.36 L735.281 1542.36 L735.281 1546.3 L713.337 1546.3 L713.337 1542.36 Q715.999 1539.61 720.582 1534.98 Q725.189 1530.32 726.369 1528.98 Q728.615 1526.46 729.494 1524.72 Q730.397 1522.96 730.397 1521.27 Q730.397 1518.52 728.453 1516.78 Q726.532 1515.05 723.43 1515.05 Q721.231 1515.05 718.777 1515.81 Q716.346 1516.57 713.569 1518.13 L713.569 1513.4 Q716.393 1512.27 718.846 1511.69 Q721.3 1511.11 723.337 1511.11 Q728.707 1511.11 731.902 1513.8 Q735.096 1516.48 735.096 1520.97 Q735.096 1523.1 734.286 1525.02 Q733.499 1526.92 731.393 1529.51 Q730.814 1530.19 727.712 1533.4 Q724.61 1536.6 718.962 1542.36 Z" fill="#000000" fill-rule="evenodd" fill-opacity="1" /><path clip-path="url(#clip740)" d="M 0 0 M740.397 1511.74 L758.754 1511.74 L758.754 1515.67 L744.68 1515.67 L744.68 1524.14 Q745.698 1523.8 746.717 1523.63 Q747.735 1523.45 748.754 1523.45 Q754.541 1523.45 757.92 1526.62 Q761.3 1529.79 761.3 1535.21 Q761.3 1540.79 757.828 1543.89 Q754.355 1546.97 748.036 1546.97 Q745.86 1546.97 743.592 1546.6 Q741.346 1546.23 738.939 1545.49 L738.939 1540.79 Q741.022 1541.92 743.244 1542.48 Q745.467 1543.03 747.943 1543.03 Q751.948 1543.03 754.286 1540.93 Q756.624 1538.82 756.624 1535.21 Q756.624 1531.6 754.286 1529.49 Q751.948 1527.38 747.943 1527.38 Q746.068 1527.38 744.193 1527.8 Q742.342 1528.22 740.397 1529.1 L740.397 1511.74 Z" fill="#000000" fill-rule="evenodd" fill-opacity="1" /><path clip-path="url(#clip740)" d="M 0 0 M1210.92 1514.82 Q1207.31 1514.82 1205.48 1518.38 Q1203.67 1521.92 1203.67 1529.05 Q1203.67 1536.16 1205.48 1539.72 Q1207.31 1543.26 1210.92 1543.26 Q1214.55 1543.26 1216.36 1539.72 Q1218.19 1536.16 1218.19 1529.05 Q1218.19 1521.92 1216.36 1518.38 Q1214.55 1514.82 1210.92 1514.82 M1210.92 1511.11 Q1216.73 1511.11 1219.78 1515.72 Q1222.86 1520.3 1222.86 1529.05 Q1222.86 1537.78 1219.78 1542.38 Q1216.73 1546.97 1210.92 1546.97 Q1205.11 1546.97 1202.03 1542.38 Q1198.97 1537.78 1198.97 1529.05 Q1198.97 1520.3 1202.03 1515.72 Q1205.11 1511.11 1210.92 1511.11 Z" fill="#000000" fill-rule="evenodd" fill-opacity="1" /><path clip-path="url(#clip740)" d="M 0 0 M1227.93 1540.42 L1232.81 1540.42 L1232.81 1546.3 L1227.93 1546.3 L1227.93 1540.42 Z" fill="#000000" fill-rule="evenodd" fill-opacity="1" /><path clip-path="url(#clip740)" d="M 0 0 M1237.93 1511.74 L1256.29 1511.74 L1256.29 1515.67 L1242.21 1515.67 L1242.21 1524.14 Q1243.23 1523.8 1244.25 1523.63 Q1245.27 1523.45 1246.29 1523.45 Q1252.07 1523.45 1255.45 1526.62 Q1258.83 1529.79 1258.83 1535.21 Q1258.83 1540.79 1255.36 1543.89 Q1251.89 1546.97 1245.57 1546.97 Q1243.39 1546.97 1241.12 1546.6 Q1238.88 1546.23 1236.47 1545.49 L1236.47 1540.79 Q1238.56 1541.92 1240.78 1542.48 Q1243 1543.03 1245.48 1543.03 Q1249.48 1543.03 1251.82 1540.93 Q1254.16 1538.82 1254.16 1535.21 Q1254.16 1531.6 1251.82 1529.49 Q1249.48 1527.38 1245.48 1527.38 Q1243.6 1527.38 1241.73 1527.8 Q1239.87 1528.22 1237.93 1529.1 L1237.93 1511.74 Z" fill="#000000" fill-rule="evenodd" fill-opacity="1" /><path clip-path="url(#clip740)" d="M 0 0 M1273.9 1514.82 Q1270.29 1514.82 1268.46 1518.38 Q1266.66 1521.92 1266.66 1529.05 Q1266.66 1536.16 1268.46 1539.72 Q1270.29 1543.26 1273.9 1543.26 Q1277.54 1543.26 1279.34 1539.72 Q1281.17 1536.16 1281.17 1529.05 Q1281.17 1521.92 1279.34 1518.38 Q1277.54 1514.82 1273.9 1514.82 M1273.9 1511.11 Q1279.71 1511.11 1282.77 1515.72 Q1285.85 1520.3 1285.85 1529.05 Q1285.85 1537.78 1282.77 1542.38 Q1279.71 1546.97 1273.9 1546.97 Q1268.09 1546.97 1265.01 1542.38 Q1261.96 1537.78 1261.96 1529.05 Q1261.96 1520.3 1265.01 1515.72 Q1268.09 1511.11 1273.9 1511.11 Z" fill="#000000" fill-rule="evenodd" fill-opacity="1" /><path clip-path="url(#clip740)" d="M 0 0 M1735.12 1514.82 Q1731.51 1514.82 1729.68 1518.38 Q1727.87 1521.92 1727.87 1529.05 Q1727.87 1536.16 1729.68 1539.72 Q1731.51 1543.26 1735.12 1543.26 Q1738.75 1543.26 1740.56 1539.72 Q1742.38 1536.16 1742.38 1529.05 Q1742.38 1521.92 1740.56 1518.38 Q1738.75 1514.82 1735.12 1514.82 M1735.12 1511.11 Q1740.93 1511.11 1743.98 1515.72 Q1747.06 1520.3 1747.06 1529.05 Q1747.06 1537.78 1743.98 1542.38 Q1740.93 1546.97 1735.12 1546.97 Q1729.31 1546.97 1726.23 1542.38 Q1723.17 1537.78 1723.17 1529.05 Q1723.17 1520.3 1726.23 1515.72 Q1729.31 1511.11 1735.12 1511.11 Z" fill="#000000" fill-rule="evenodd" fill-opacity="1" /><path clip-path="url(#clip740)" d="M 0 0 M1752.13 1540.42 L1757.01 1540.42 L1757.01 1546.3 L1752.13 1546.3 L1752.13 1540.42 Z" fill="#000000" fill-rule="evenodd" fill-opacity="1" /><path clip-path="url(#clip740)" d="M 0 0 M1760.9 1511.74 L1783.13 1511.74 L1783.13 1513.73 L1770.58 1546.3 L1765.69 1546.3 L1777.5 1515.67 L1760.9 1515.67 L1760.9 1511.74 Z" fill="#000000" fill-rule="evenodd" fill-opacity="1" /><path clip-path="url(#clip740)" d="M 0 0 M1788.24 1511.74 L1806.6 1511.74 L1806.6 1515.67 L1792.52 1515.67 L1792.52 1524.14 Q1793.54 1523.8 1794.56 1523.63 Q1795.58 1523.45 1796.6 1523.45 Q1802.38 1523.45 1805.76 1526.62 Q1809.14 1529.79 1809.14 1535.21 Q1809.14 1540.79 1805.67 1543.89 Q1802.2 1546.97 1795.88 1546.97 Q1793.7 1546.97 1791.44 1546.6 Q1789.19 1546.23 1786.78 1545.49 L1786.78 1540.79 Q1788.87 1541.92 1791.09 1542.48 Q1793.31 1543.03 1795.79 1543.03 Q1799.79 1543.03 1802.13 1540.93 Q1804.47 1538.82 1804.47 1535.21 Q1804.47 1531.6 1802.13 1529.49 Q1799.79 1527.38 1795.79 1527.38 Q1793.91 1527.38 1792.04 1527.8 Q1790.19 1528.22 1788.24 1529.1 L1788.24 1511.74 Z" fill="#000000" fill-rule="evenodd" fill-opacity="1" /><path clip-path="url(#clip740)" d="M 0 0 M2248.3 1542.36 L2255.94 1542.36 L2255.94 1516 L2247.63 1517.66 L2247.63 1513.4 L2255.89 1511.74 L2260.57 1511.74 L2260.57 1542.36 L2268.2 1542.36 L2268.2 1546.3 L2248.3 1546.3 L2248.3 1542.36 Z" fill="#000000" fill-rule="evenodd" fill-opacity="1" /><path clip-path="url(#clip740)" d="M 0 0 M2273.27 1540.42 L2278.16 1540.42 L2278.16 1546.3 L2273.27 1546.3 L2273.27 1540.42 Z" fill="#000000" fill-rule="evenodd" fill-opacity="1" /><path clip-path="url(#clip740)" d="M 0 0 M2293.23 1514.82 Q2289.62 1514.82 2287.79 1518.38 Q2285.98 1521.92 2285.98 1529.05 Q2285.98 1536.16 2287.79 1539.72 Q2289.62 1543.26 2293.23 1543.26 Q2296.86 1543.26 2298.67 1539.72 Q2300.5 1536.16 2300.5 1529.05 Q2300.5 1521.92 2298.67 1518.38 Q2296.86 1514.82 2293.23 1514.82 M2293.23 1511.11 Q2299.04 1511.11 2302.09 1515.72 Q2305.17 1520.3 2305.17 1529.05 Q2305.17 1537.78 2302.09 1542.38 Q2299.04 1546.97 2293.23 1546.97 Q2287.42 1546.97 2284.34 1542.38 Q2281.28 1537.78 2281.28 1529.05 Q2281.28 1520.3 2284.34 1515.72 Q2287.42 1511.11 2293.23 1511.11 Z" fill="#000000" fill-rule="evenodd" fill-opacity="1" /><path clip-path="url(#clip740)" d="M 0 0 M2320.24 1514.82 Q2316.63 1514.82 2314.8 1518.38 Q2313 1521.92 2313 1529.05 Q2313 1536.16 2314.8 1539.72 Q2316.63 1543.26 2320.24 1543.26 Q2323.88 1543.26 2325.68 1539.72 Q2327.51 1536.16 2327.51 1529.05 Q2327.51 1521.92 2325.68 1518.38 Q2323.88 1514.82 2320.24 1514.82 M2320.24 1511.11 Q2326.05 1511.11 2329.11 1515.72 Q2332.19 1520.3 2332.19 1529.05 Q2332.19 1537.78 2329.11 1542.38 Q2326.05 1546.97 2320.24 1546.97 Q2314.43 1546.97 2311.35 1542.38 Q2308.3 1537.78 2308.3 1529.05 Q2308.3 1520.3 2311.35 1515.72 Q2314.43 1511.11 2320.24 1511.11 Z" fill="#000000" fill-rule="evenodd" fill-opacity="1" /><path clip-path="url(#clip740)" d="M 0 0 M1256.57 1562.44 Q1256.57 1564.24 1255.44 1565.27 Q1254.32 1566.27 1253.03 1566.27 Q1251.8 1566.27 1251.16 1565.56 Q1250.51 1564.85 1250.51 1563.95 Q1250.51 1562.73 1251.42 1561.67 Q1252.32 1560.6 1253.67 1560.38 Q1252.35 1559.54 1250.39 1559.54 Q1249.1 1559.54 1247.97 1560.22 Q1246.88 1560.89 1246.2 1561.76 Q1245.56 1562.63 1244.98 1563.89 Q1244.43 1565.11 1244.2 1565.85 Q1244.01 1566.56 1243.85 1567.33 L1241.59 1576.35 Q1240.5 1580.64 1240.5 1582.15 Q1240.5 1584.02 1241.4 1585.27 Q1242.3 1586.5 1244.11 1586.5 Q1244.81 1586.5 1245.62 1586.3 Q1246.42 1586.08 1247.46 1585.5 Q1248.52 1584.89 1249.45 1583.99 Q1250.42 1583.05 1251.35 1581.47 Q1252.29 1579.89 1252.9 1577.87 Q1253.09 1577.16 1253.74 1577.16 Q1254.54 1577.16 1254.54 1577.8 Q1254.54 1578.35 1254.09 1579.51 Q1253.67 1580.64 1252.74 1582.12 Q1251.84 1583.57 1250.64 1584.89 Q1249.45 1586.18 1247.68 1587.08 Q1245.91 1587.98 1243.98 1587.98 Q1241.21 1587.98 1239.37 1586.5 Q1237.54 1585.02 1236.86 1582.95 Q1236.7 1583.24 1236.47 1583.63 Q1236.25 1584.02 1235.57 1584.89 Q1234.93 1585.72 1234.19 1586.37 Q1233.45 1586.98 1232.29 1587.46 Q1231.16 1587.98 1229.94 1587.98 Q1228.39 1587.98 1227 1587.53 Q1225.65 1587.08 1224.69 1586.05 Q1223.72 1585.02 1223.72 1583.6 Q1223.72 1582.02 1224.78 1580.93 Q1225.88 1579.8 1227.36 1579.8 Q1228.29 1579.8 1229.03 1580.35 Q1229.81 1580.89 1229.81 1582.08 Q1229.81 1583.41 1228.9 1584.4 Q1228 1585.4 1226.71 1585.66 Q1228.04 1586.5 1230 1586.5 Q1232.13 1586.5 1233.8 1584.63 Q1235.47 1582.76 1236.28 1579.64 Q1238.28 1572.13 1239.05 1568.78 Q1239.82 1565.4 1239.82 1563.95 Q1239.82 1562.6 1239.47 1561.67 Q1239.11 1560.73 1238.5 1560.31 Q1237.92 1559.86 1237.37 1559.7 Q1236.86 1559.54 1236.28 1559.54 Q1235.31 1559.54 1234.22 1559.93 Q1233.16 1560.31 1231.87 1561.22 Q1230.61 1562.09 1229.42 1563.89 Q1228.23 1565.69 1227.42 1568.17 Q1227.26 1568.91 1226.55 1568.91 Q1225.78 1568.88 1225.78 1568.24 Q1225.78 1567.69 1226.2 1566.56 Q1226.65 1565.4 1227.55 1563.95 Q1228.49 1562.5 1229.68 1561.22 Q1230.9 1559.9 1232.67 1558.99 Q1234.48 1558.09 1236.41 1558.09 Q1237.28 1558.09 1238.12 1558.28 Q1238.99 1558.45 1240.02 1558.93 Q1241.08 1559.41 1242.01 1560.47 Q1242.95 1561.54 1243.53 1563.08 Q1243.91 1562.34 1244.43 1561.63 Q1244.98 1560.93 1245.81 1560.06 Q1246.68 1559.15 1247.87 1558.64 Q1249.1 1558.09 1250.45 1558.09 Q1251.77 1558.09 1253.06 1558.45 Q1254.35 1558.77 1255.44 1559.83 Q1256.57 1560.86 1256.57 1562.44 Z" fill="#000000" fill-rule="evenodd" fill-opacity="1" /><polyline clip-path="url(#clip742)" style="stroke:#000000; stroke-width:2; stroke-opacity:0.1; fill:none" points="
  132.063,1445.36 2352.76,1445.36 
  "/>
<polyline clip-path="url(#clip742)" style="stroke:#000000; stroke-width:2; stroke-opacity:0.1; fill:none" points="
  132.063,1133.48 2352.76,1133.48 
  "/>
<polyline clip-path="url(#clip742)" style="stroke:#000000; stroke-width:2; stroke-opacity:0.1; fill:none" points="
  132.063,821.605 2352.76,821.605 
  "/>
<polyline clip-path="url(#clip742)" style="stroke:#000000; stroke-width:2; stroke-opacity:0.1; fill:none" points="
  132.063,509.727 2352.76,509.727 
  "/>
<polyline clip-path="url(#clip742)" style="stroke:#000000; stroke-width:2; stroke-opacity:0.1; fill:none" points="
  132.063,197.849 2352.76,197.849 
  "/>
<polyline clip-path="url(#clip740)" style="stroke:#000000; stroke-width:4; stroke-opacity:1; fill:none" points="
  132.063,1485.62 132.063,62.9921 
  "/>
<polyline clip-path="url(#clip740)" style="stroke:#000000; stroke-width:4; stroke-opacity:1; fill:none" points="
  132.063,1445.36 158.711,1445.36 
  "/>
<polyline clip-path="url(#clip740)" style="stroke:#000000; stroke-width:4; stroke-opacity:1; fill:none" points="
  132.063,1133.48 158.711,1133.48 
  "/>
<polyline clip-path="url(#clip740)" style="stroke:#000000; stroke-width:4; stroke-opacity:1; fill:none" points="
  132.063,821.605 158.711,821.605 
  "/>
<polyline clip-path="url(#clip740)" style="stroke:#000000; stroke-width:4; stroke-opacity:1; fill:none" points="
  132.063,509.727 158.711,509.727 
  "/>
<polyline clip-path="url(#clip740)" style="stroke:#000000; stroke-width:4; stroke-opacity:1; fill:none" points="
  132.063,197.849 158.711,197.849 
  "/>
<path clip-path="url(#clip740)" d="M 0 0 M20.1376 1431.16 Q16.5265 1431.16 14.6978 1434.72 Q12.8922 1438.27 12.8922 1445.4 Q12.8922 1452.5 14.6978 1456.07 Q16.5265 1459.61 20.1376 1459.61 Q23.7718 1459.61 25.5773 1456.07 Q27.406 1452.5 27.406 1445.4 Q27.406 1438.27 25.5773 1434.72 Q23.7718 1431.16 20.1376 1431.16 M20.1376 1427.46 Q25.9477 1427.46 29.0032 1432.06 Q32.0819 1436.65 32.0819 1445.4 Q32.0819 1454.12 29.0032 1458.73 Q25.9477 1463.31 20.1376 1463.31 Q14.3274 1463.31 11.2487 1458.73 Q8.19317 1454.12 8.19317 1445.4 Q8.19317 1436.65 11.2487 1432.06 Q14.3274 1427.46 20.1376 1427.46 Z" fill="#000000" fill-rule="evenodd" fill-opacity="1" /><path clip-path="url(#clip740)" d="M 0 0 M37.1514 1456.76 L42.0356 1456.76 L42.0356 1462.64 L37.1514 1462.64 L37.1514 1456.76 Z" fill="#000000" fill-rule="evenodd" fill-opacity="1" /><path clip-path="url(#clip740)" d="M 0 0 M57.1049 1431.16 Q53.4939 1431.16 51.6652 1434.72 Q49.8596 1438.27 49.8596 1445.4 Q49.8596 1452.5 51.6652 1456.07 Q53.4939 1459.61 57.1049 1459.61 Q60.7392 1459.61 62.5447 1456.07 Q64.3734 1452.5 64.3734 1445.4 Q64.3734 1438.27 62.5447 1434.72 Q60.7392 1431.16 57.1049 1431.16 M57.1049 1427.46 Q62.9151 1427.46 65.9706 1432.06 Q69.0493 1436.65 69.0493 1445.4 Q69.0493 1454.12 65.9706 1458.73 Q62.9151 1463.31 57.1049 1463.31 Q51.2948 1463.31 48.2161 1458.73 Q45.1606 1454.12 45.1606 1445.4 Q45.1606 1436.65 48.2161 1432.06 Q51.2948 1427.46 57.1049 1427.46 Z" fill="#000000" fill-rule="evenodd" fill-opacity="1" /><path clip-path="url(#clip740)" d="M 0 0 M84.1187 1431.16 Q80.5076 1431.16 78.6789 1434.72 Q76.8734 1438.27 76.8734 1445.4 Q76.8734 1452.5 78.6789 1456.07 Q80.5076 1459.61 84.1187 1459.61 Q87.7529 1459.61 89.5585 1456.07 Q91.3872 1452.5 91.3872 1445.4 Q91.3872 1438.27 89.5585 1434.72 Q87.7529 1431.16 84.1187 1431.16 M84.1187 1427.46 Q89.9288 1427.46 92.9844 1432.06 Q96.0631 1436.65 96.0631 1445.4 Q96.0631 1454.12 92.9844 1458.73 Q89.9288 1463.31 84.1187 1463.31 Q78.3085 1463.31 75.2299 1458.73 Q72.1743 1454.12 72.1743 1445.4 Q72.1743 1436.65 75.2299 1432.06 Q78.3085 1427.46 84.1187 1427.46 Z" fill="#000000" fill-rule="evenodd" fill-opacity="1" /><path clip-path="url(#clip740)" d="M 0 0 M22.7301 1119.28 Q19.119 1119.28 17.2903 1122.85 Q15.4848 1126.39 15.4848 1133.52 Q15.4848 1140.62 17.2903 1144.19 Q19.119 1147.73 22.7301 1147.73 Q26.3644 1147.73 28.1699 1144.19 Q29.9986 1140.62 29.9986 1133.52 Q29.9986 1126.39 28.1699 1122.85 Q26.3644 1119.28 22.7301 1119.28 M22.7301 1115.58 Q28.5403 1115.58 31.5958 1120.18 Q34.6745 1124.77 34.6745 1133.52 Q34.6745 1142.24 31.5958 1146.85 Q28.5403 1151.43 22.7301 1151.43 Q16.92 1151.43 13.8413 1146.85 Q10.7858 1142.24 10.7858 1133.52 Q10.7858 1124.77 13.8413 1120.18 Q16.92 1115.58 22.7301 1115.58 Z" fill="#000000" fill-rule="evenodd" fill-opacity="1" /><path clip-path="url(#clip740)" d="M 0 0 M39.7439 1144.88 L44.6282 1144.88 L44.6282 1150.76 L39.7439 1150.76 L39.7439 1144.88 Z" fill="#000000" fill-rule="evenodd" fill-opacity="1" /><path clip-path="url(#clip740)" d="M 0 0 M53.7253 1146.83 L70.0447 1146.83 L70.0447 1150.76 L48.1004 1150.76 L48.1004 1146.83 Q50.7624 1144.07 55.3457 1139.44 Q59.9522 1134.79 61.1327 1133.45 Q63.3781 1130.93 64.2577 1129.19 Q65.1605 1127.43 65.1605 1125.74 Q65.1605 1122.99 63.216 1121.25 Q61.2947 1119.51 58.1929 1119.51 Q55.9938 1119.51 53.5402 1120.28 Q51.1096 1121.04 48.3318 1122.59 L48.3318 1117.87 Q51.1559 1116.74 53.6096 1116.16 Q56.0633 1115.58 58.1003 1115.58 Q63.4707 1115.58 66.6651 1118.26 Q69.8595 1120.95 69.8595 1125.44 Q69.8595 1127.57 69.0493 1129.49 Q68.2623 1131.39 66.1558 1133.98 Q65.5771 1134.65 62.4753 1137.87 Q59.3735 1141.06 53.7253 1146.83 Z" fill="#000000" fill-rule="evenodd" fill-opacity="1" /><path clip-path="url(#clip740)" d="M 0 0 M75.1604 1116.2 L93.5168 1116.2 L93.5168 1120.14 L79.4428 1120.14 L79.4428 1128.61 Q80.4613 1128.26 81.4798 1128.1 Q82.4983 1127.92 83.5168 1127.92 Q89.3039 1127.92 92.6835 1131.09 Q96.0631 1134.26 96.0631 1139.68 Q96.0631 1145.25 92.5909 1148.36 Q89.1187 1151.43 82.7993 1151.43 Q80.6233 1151.43 78.3548 1151.06 Q76.1095 1150.69 73.7021 1149.95 L73.7021 1145.25 Q75.7854 1146.39 78.0076 1146.94 Q80.2298 1147.5 82.7067 1147.5 Q86.7113 1147.5 89.0492 1145.39 Q91.3872 1143.29 91.3872 1139.68 Q91.3872 1136.06 89.0492 1133.96 Q86.7113 1131.85 82.7067 1131.85 Q80.8317 1131.85 78.9567 1132.27 Q77.1048 1132.68 75.1604 1133.56 L75.1604 1116.2 Z" fill="#000000" fill-rule="evenodd" fill-opacity="1" /><path clip-path="url(#clip740)" d="M 0 0 M21.1329 807.404 Q17.5218 807.404 15.6931 810.969 Q13.8876 814.51 13.8876 821.64 Q13.8876 828.746 15.6931 832.311 Q17.5218 835.853 21.1329 835.853 Q24.7672 835.853 26.5727 832.311 Q28.4014 828.746 28.4014 821.64 Q28.4014 814.51 26.5727 810.969 Q24.7672 807.404 21.1329 807.404 M21.1329 803.7 Q26.9431 803.7 29.9986 808.307 Q33.0773 812.89 33.0773 821.64 Q33.0773 830.367 29.9986 834.973 Q26.9431 839.556 21.1329 839.556 Q15.3228 839.556 12.2441 834.973 Q9.18854 830.367 9.18854 821.64 Q9.18854 812.89 12.2441 808.307 Q15.3228 803.7 21.1329 803.7 Z" fill="#000000" fill-rule="evenodd" fill-opacity="1" /><path clip-path="url(#clip740)" d="M 0 0 M38.1467 833.006 L43.031 833.006 L43.031 838.885 L38.1467 838.885 L38.1467 833.006 Z" fill="#000000" fill-rule="evenodd" fill-opacity="1" /><path clip-path="url(#clip740)" d="M 0 0 M48.1467 804.325 L66.503 804.325 L66.503 808.26 L52.429 808.26 L52.429 816.733 Q53.4476 816.385 54.4661 816.223 Q55.4846 816.038 56.5031 816.038 Q62.2901 816.038 65.6697 819.209 Q69.0493 822.381 69.0493 827.797 Q69.0493 833.376 65.5771 836.478 Q62.1049 839.556 55.7855 839.556 Q53.6096 839.556 51.3411 839.186 Q49.0957 838.816 46.6883 838.075 L46.6883 833.376 Q48.7717 834.51 50.9939 835.066 Q53.2161 835.621 55.6929 835.621 Q59.6975 835.621 62.0355 833.515 Q64.3734 831.408 64.3734 827.797 Q64.3734 824.186 62.0355 822.08 Q59.6975 819.973 55.6929 819.973 Q53.8179 819.973 51.9429 820.39 Q50.0911 820.807 48.1467 821.686 L48.1467 804.325 Z" fill="#000000" fill-rule="evenodd" fill-opacity="1" /><path clip-path="url(#clip740)" d="M 0 0 M84.1187 807.404 Q80.5076 807.404 78.6789 810.969 Q76.8734 814.51 76.8734 821.64 Q76.8734 828.746 78.6789 832.311 Q80.5076 835.853 84.1187 835.853 Q87.7529 835.853 89.5585 832.311 Q91.3872 828.746 91.3872 821.64 Q91.3872 814.51 89.5585 810.969 Q87.7529 807.404 84.1187 807.404 M84.1187 803.7 Q89.9288 803.7 92.9844 808.307 Q96.0631 812.89 96.0631 821.64 Q96.0631 830.367 92.9844 834.973 Q89.9288 839.556 84.1187 839.556 Q78.3085 839.556 75.2299 834.973 Q72.1743 830.367 72.1743 821.64 Q72.1743 812.89 75.2299 808.307 Q78.3085 803.7 84.1187 803.7 Z" fill="#000000" fill-rule="evenodd" fill-opacity="1" /><path clip-path="url(#clip740)" d="M 0 0 M22.0357 495.526 Q18.4246 495.526 16.5959 499.091 Q14.7904 502.632 14.7904 509.762 Q14.7904 516.868 16.5959 520.433 Q18.4246 523.975 22.0357 523.975 Q25.6699 523.975 27.4755 520.433 Q29.3042 516.868 29.3042 509.762 Q29.3042 502.632 27.4755 499.091 Q25.6699 495.526 22.0357 495.526 M22.0357 491.822 Q27.8458 491.822 30.9014 496.429 Q33.9801 501.012 33.9801 509.762 Q33.9801 518.489 30.9014 523.095 Q27.8458 527.678 22.0357 527.678 Q16.2255 527.678 13.1469 523.095 Q10.0913 518.489 10.0913 509.762 Q10.0913 501.012 13.1469 496.429 Q16.2255 491.822 22.0357 491.822 Z" fill="#000000" fill-rule="evenodd" fill-opacity="1" /><path clip-path="url(#clip740)" d="M 0 0 M39.0495 521.128 L43.9337 521.128 L43.9337 527.007 L39.0495 527.007 L39.0495 521.128 Z" fill="#000000" fill-rule="evenodd" fill-opacity="1" /><path clip-path="url(#clip740)" d="M 0 0 M47.8226 492.447 L70.0447 492.447 L70.0447 494.438 L57.4985 527.007 L52.6142 527.007 L64.4197 496.382 L47.8226 496.382 L47.8226 492.447 Z" fill="#000000" fill-rule="evenodd" fill-opacity="1" /><path clip-path="url(#clip740)" d="M 0 0 M75.1604 492.447 L93.5168 492.447 L93.5168 496.382 L79.4428 496.382 L79.4428 504.855 Q80.4613 504.507 81.4798 504.345 Q82.4983 504.16 83.5168 504.16 Q89.3039 504.16 92.6835 507.331 Q96.0631 510.503 96.0631 515.919 Q96.0631 521.498 92.5909 524.6 Q89.1187 527.678 82.7993 527.678 Q80.6233 527.678 78.3548 527.308 Q76.1095 526.938 73.7021 526.197 L73.7021 521.498 Q75.7854 522.632 78.0076 523.188 Q80.2298 523.743 82.7067 523.743 Q86.7113 523.743 89.0492 521.637 Q91.3872 519.53 91.3872 515.919 Q91.3872 512.308 89.0492 510.202 Q86.7113 508.095 82.7067 508.095 Q80.8317 508.095 78.9567 508.512 Q77.1048 508.929 75.1604 509.808 L75.1604 492.447 Z" fill="#000000" fill-rule="evenodd" fill-opacity="1" /><path clip-path="url(#clip740)" d="M 0 0 M12.1746 211.194 L19.8135 211.194 L19.8135 184.828 L11.5033 186.495 L11.5033 182.236 L19.7672 180.569 L24.4431 180.569 L24.4431 211.194 L32.0819 211.194 L32.0819 215.129 L12.1746 215.129 L12.1746 211.194 Z" fill="#000000" fill-rule="evenodd" fill-opacity="1" /><path clip-path="url(#clip740)" d="M 0 0 M37.1514 209.25 L42.0356 209.25 L42.0356 215.129 L37.1514 215.129 L37.1514 209.25 Z" fill="#000000" fill-rule="evenodd" fill-opacity="1" /><path clip-path="url(#clip740)" d="M 0 0 M57.1049 183.648 Q53.4939 183.648 51.6652 187.213 Q49.8596 190.754 49.8596 197.884 Q49.8596 204.99 51.6652 208.555 Q53.4939 212.097 57.1049 212.097 Q60.7392 212.097 62.5447 208.555 Q64.3734 204.99 64.3734 197.884 Q64.3734 190.754 62.5447 187.213 Q60.7392 183.648 57.1049 183.648 M57.1049 179.944 Q62.9151 179.944 65.9706 184.551 Q69.0493 189.134 69.0493 197.884 Q69.0493 206.611 65.9706 211.217 Q62.9151 215.8 57.1049 215.8 Q51.2948 215.8 48.2161 211.217 Q45.1606 206.611 45.1606 197.884 Q45.1606 189.134 48.2161 184.551 Q51.2948 179.944 57.1049 179.944 Z" fill="#000000" fill-rule="evenodd" fill-opacity="1" /><path clip-path="url(#clip740)" d="M 0 0 M84.1187 183.648 Q80.5076 183.648 78.6789 187.213 Q76.8734 190.754 76.8734 197.884 Q76.8734 204.99 78.6789 208.555 Q80.5076 212.097 84.1187 212.097 Q87.7529 212.097 89.5585 208.555 Q91.3872 204.99 91.3872 197.884 Q91.3872 190.754 89.5585 187.213 Q87.7529 183.648 84.1187 183.648 M84.1187 179.944 Q89.9288 179.944 92.9844 184.551 Q96.0631 189.134 96.0631 197.884 Q96.0631 206.611 92.9844 211.217 Q89.9288 215.8 84.1187 215.8 Q78.3085 215.8 75.2299 211.217 Q72.1743 206.611 72.1743 197.884 Q72.1743 189.134 75.2299 184.551 Q78.3085 179.944 84.1187 179.944 Z" fill="#000000" fill-rule="evenodd" fill-opacity="1" /><path clip-path="url(#clip740)" d="M 0 0 M-43.3372 748.535 Q-42.7253 748.535 -42.21 748.663 L-30.7447 750.467 Q-29.8751 750.563 -29.5531 750.757 Q-29.231 750.918 -29.231 751.433 Q-29.231 752.238 -30.0684 752.238 Q-30.5515 752.238 -31.3244 752.045 Q-34.9637 751.497 -36.6062 751.497 Q-37.7012 751.497 -38.5063 751.723 Q-39.3437 751.916 -39.9234 752.238 Q-40.5031 752.528 -40.8895 753.204 Q-41.276 753.881 -41.5014 754.525 Q-41.7269 755.169 -41.8235 756.328 Q-41.9523 757.488 -41.9845 758.486 Q-42.0167 759.484 -42.0167 761.127 Q-42.0167 764.702 -41.8879 765.282 Q-41.7269 765.893 -41.2438 766.216 Q-40.7929 766.505 -39.4403 766.827 L-4.4325 775.587 L-3.04765 775.845 Q-2.27471 775.845 -2.01706 775.362 Q-1.75942 774.879 -1.59839 773.397 Q-1.43736 771.272 -1.43736 769.178 Q-1.43736 769.114 -1.43736 768.985 Q-1.43736 768.277 -1.40515 767.987 Q-1.40515 767.697 -1.34074 767.407 Q-1.27633 767.117 -1.1153 767.053 Q-0.986475 766.956 -0.728828 766.956 Q-0.116917 766.956 0.205142 767.214 Q0.494995 767.472 0.559406 767.729 Q0.591612 767.955 0.591612 768.406 Q0.591612 769.307 0.5272 771.24 Q0.462789 773.172 0.462789 774.138 L0.398377 779.613 L0.462789 785.217 Q0.462789 786.087 0.5272 787.922 Q0.591612 789.758 0.591612 790.628 Q0.591612 791.755 -0.213534 791.755 Q-1.1153 791.755 -1.27633 791.336 Q-1.43736 790.885 -1.43736 788.985 Q-1.43736 786.312 -1.56618 784.863 Q-1.695 783.413 -2.14589 782.641 Q-2.59677 781.835 -3.04765 781.61 Q-3.53074 781.384 -4.62574 781.127 L-39.8267 772.27 Q-40.5997 772.013 -41.2116 772.013 Q-41.5337 772.013 -41.6625 772.109 Q-41.7913 772.174 -41.8879 772.592 Q-42.0167 773.011 -42.0167 773.881 L-42.0167 776.457 Q-42.0167 779.098 -41.8879 780.74 Q-41.7913 782.351 -41.3082 783.897 Q-40.8251 785.41 -40.1488 786.312 Q-39.4725 787.182 -38.0876 788.148 Q-36.7028 789.114 -35.0281 789.822 Q-33.3534 790.499 -30.6159 791.465 Q-29.7141 791.787 -29.4565 791.98 Q-29.231 792.141 -29.231 792.592 Q-29.231 792.914 -29.4243 793.172 Q-29.6497 793.397 -29.9395 793.397 Q-31.0023 793.075 -31.1312 793.011 L-42.7575 789.049 Q-43.6914 788.727 -43.8525 788.438 Q-44.0457 788.116 -44.0457 786.924 L-44.0457 750.338 Q-44.0457 749.758 -44.0457 749.565 Q-44.0457 749.372 -43.9813 749.05 Q-43.9169 748.728 -43.7559 748.631 Q-43.5948 748.535 -43.3372 748.535 Z" fill="#000000" fill-rule="evenodd" fill-opacity="1" /><path clip-path="url(#clip740)" d="M 0 0 M773.254 12.096 L781.437 12.096 L781.437 72.576 L773.254 72.576 L773.254 12.096 Z" fill="#000000" fill-rule="evenodd" fill-opacity="1" /><path clip-path="url(#clip740)" d="M 0 0 M826.969 45.1919 L826.969 72.576 L819.515 72.576 L819.515 45.4349 Q819.515 38.994 817.004 35.7938 Q814.492 32.5936 809.469 32.5936 Q803.433 32.5936 799.949 36.4419 Q796.466 40.2903 796.466 46.9338 L796.466 72.576 L788.972 72.576 L788.972 27.2059 L796.466 27.2059 L796.466 34.2544 Q799.139 30.163 802.745 28.1376 Q806.39 26.1121 811.13 26.1121 Q818.948 26.1121 822.959 30.9732 Q826.969 35.7938 826.969 45.1919 Z" fill="#000000" fill-rule="evenodd" fill-opacity="1" /><path clip-path="url(#clip740)" d="M 0 0 M834.787 27.2059 L842.241 27.2059 L842.241 72.576 L834.787 72.576 L834.787 27.2059 M834.787 9.54393 L842.241 9.54393 L842.241 18.9825 L834.787 18.9825 L834.787 9.54393 Z" fill="#000000" fill-rule="evenodd" fill-opacity="1" /><path clip-path="url(#clip740)" d="M 0 0 M857.432 14.324 L857.432 27.2059 L872.785 27.2059 L872.785 32.9987 L857.432 32.9987 L857.432 57.6282 Q857.432 63.1779 858.931 64.7578 Q860.47 66.3376 865.129 66.3376 L872.785 66.3376 L872.785 72.576 L865.129 72.576 Q856.5 72.576 853.219 69.3758 Q849.938 66.1351 849.938 57.6282 L849.938 32.9987 L844.469 32.9987 L844.469 27.2059 L849.938 27.2059 L849.938 14.324 L857.432 14.324 Z" fill="#000000" fill-rule="evenodd" fill-opacity="1" /><path clip-path="url(#clip740)" d="M 0 0 M880.603 27.2059 L888.057 27.2059 L888.057 72.576 L880.603 72.576 L880.603 27.2059 M880.603 9.54393 L888.057 9.54393 L888.057 18.9825 L880.603 18.9825 L880.603 9.54393 Z" fill="#000000" fill-rule="evenodd" fill-opacity="1" /><path clip-path="url(#clip740)" d="M 0 0 M916.494 49.7694 Q907.46 49.7694 903.977 51.8354 Q900.493 53.9013 900.493 58.8839 Q900.493 62.8538 903.085 65.2034 Q905.719 67.5124 910.215 67.5124 Q916.413 67.5124 920.14 63.1374 Q923.907 58.7219 923.907 51.4303 L923.907 49.7694 L916.494 49.7694 M931.361 46.6907 L931.361 72.576 L923.907 72.576 L923.907 65.6895 Q921.355 69.8214 917.547 71.8063 Q913.739 73.7508 908.23 73.7508 Q901.263 73.7508 897.131 69.8619 Q893.039 65.9325 893.039 59.3701 Q893.039 51.7138 898.143 47.825 Q903.288 43.9361 913.456 43.9361 L923.907 43.9361 L923.907 43.2069 Q923.907 38.0623 920.504 35.2672 Q917.142 32.4315 911.025 32.4315 Q907.136 32.4315 903.45 33.3632 Q899.764 34.295 896.361 36.1584 L896.361 29.2718 Q900.452 27.692 904.301 26.9223 Q908.149 26.1121 911.795 26.1121 Q921.639 26.1121 926.5 31.2163 Q931.361 36.3204 931.361 46.6907 Z" fill="#000000" fill-rule="evenodd" fill-opacity="1" /><path clip-path="url(#clip740)" d="M 0 0 M939.179 9.54393 L946.633 9.54393 L946.633 72.576 L939.179 72.576 L939.179 9.54393 Z" fill="#000000" fill-rule="evenodd" fill-opacity="1" /><path clip-path="url(#clip740)" d="M 0 0 M988.195 14.324 L988.195 27.2059 L1003.55 27.2059 L1003.55 32.9987 L988.195 32.9987 L988.195 57.6282 Q988.195 63.1779 989.694 64.7578 Q991.233 66.3376 995.892 66.3376 L1003.55 66.3376 L1003.55 72.576 L995.892 72.576 Q987.263 72.576 983.982 69.3758 Q980.701 66.1351 980.701 57.6282 L980.701 32.9987 L975.232 32.9987 L975.232 27.2059 L980.701 27.2059 L980.701 14.324 L988.195 14.324 Z" fill="#000000" fill-rule="evenodd" fill-opacity="1" /><path clip-path="url(#clip740)" d="M 0 0 M1050.17 48.0275 L1050.17 51.6733 L1015.9 51.6733 Q1016.39 59.3701 1020.52 63.421 Q1024.69 67.4314 1032.11 67.4314 Q1036.4 67.4314 1040.41 66.3781 Q1044.46 65.3249 1048.43 63.2184 L1048.43 70.267 Q1044.42 71.9684 1040.21 72.8596 Q1036 73.7508 1031.66 73.7508 Q1020.8 73.7508 1014.44 67.4314 Q1008.13 61.1119 1008.13 50.3365 Q1008.13 39.1965 1014.12 32.6746 Q1020.16 26.1121 1030.36 26.1121 Q1039.52 26.1121 1044.83 32.0264 Q1050.17 37.9003 1050.17 48.0275 M1042.72 45.84 Q1042.64 39.7232 1039.28 36.0774 Q1035.96 32.4315 1030.45 32.4315 Q1024.21 32.4315 1020.44 35.9558 Q1016.71 39.4801 1016.15 45.8805 L1042.72 45.84 Z" fill="#000000" fill-rule="evenodd" fill-opacity="1" /><path clip-path="url(#clip740)" d="M 0 0 M1093.32 35.9153 Q1096.11 30.8922 1100 28.5022 Q1103.89 26.1121 1109.15 26.1121 Q1116.24 26.1121 1120.09 31.0947 Q1123.94 36.0368 1123.94 45.1919 L1123.94 72.576 L1116.45 72.576 L1116.45 45.4349 Q1116.45 38.913 1114.14 35.7533 Q1111.83 32.5936 1107.09 32.5936 Q1101.3 32.5936 1097.93 36.4419 Q1094.57 40.2903 1094.57 46.9338 L1094.57 72.576 L1087.08 72.576 L1087.08 45.4349 Q1087.08 38.8725 1084.77 35.7533 Q1082.46 32.5936 1077.64 32.5936 Q1071.93 32.5936 1068.56 36.4824 Q1065.2 40.3308 1065.2 46.9338 L1065.2 72.576 L1057.71 72.576 L1057.71 27.2059 L1065.2 27.2059 L1065.2 34.2544 Q1067.75 30.082 1071.32 28.0971 Q1074.88 26.1121 1079.79 26.1121 Q1084.73 26.1121 1088.17 28.6237 Q1091.66 31.1352 1093.32 35.9153 Z" fill="#000000" fill-rule="evenodd" fill-opacity="1" /><path clip-path="url(#clip740)" d="M 0 0 M1138.97 65.7705 L1138.97 89.8329 L1131.48 89.8329 L1131.48 27.2059 L1138.97 27.2059 L1138.97 34.0924 Q1141.32 30.0415 1144.88 28.0971 Q1148.49 26.1121 1153.47 26.1121 Q1161.74 26.1121 1166.88 32.6746 Q1172.07 39.2371 1172.07 49.9314 Q1172.07 60.6258 1166.88 67.1883 Q1161.74 73.7508 1153.47 73.7508 Q1148.49 73.7508 1144.88 71.8063 Q1141.32 69.8214 1138.97 65.7705 M1164.33 49.9314 Q1164.33 41.7081 1160.93 37.0496 Q1157.56 32.3505 1151.65 32.3505 Q1145.73 32.3505 1142.33 37.0496 Q1138.97 41.7081 1138.97 49.9314 Q1138.97 58.1548 1142.33 62.8538 Q1145.73 67.5124 1151.65 67.5124 Q1157.56 67.5124 1160.93 62.8538 Q1164.33 58.1548 1164.33 49.9314 Z" fill="#000000" fill-rule="evenodd" fill-opacity="1" /><path clip-path="url(#clip740)" d="M 0 0 M1218.69 48.0275 L1218.69 51.6733 L1184.42 51.6733 Q1184.91 59.3701 1189.04 63.421 Q1193.21 67.4314 1200.62 67.4314 Q1204.92 67.4314 1208.93 66.3781 Q1212.98 65.3249 1216.95 63.2184 L1216.95 70.267 Q1212.94 71.9684 1208.73 72.8596 Q1204.51 73.7508 1200.18 73.7508 Q1189.32 73.7508 1182.96 67.4314 Q1176.64 61.1119 1176.64 50.3365 Q1176.64 39.1965 1182.64 32.6746 Q1188.67 26.1121 1198.88 26.1121 Q1208.04 26.1121 1213.34 32.0264 Q1218.69 37.9003 1218.69 48.0275 M1211.24 45.84 Q1211.16 39.7232 1207.79 36.0774 Q1204.47 32.4315 1198.96 32.4315 Q1192.73 32.4315 1188.96 35.9558 Q1185.23 39.4801 1184.66 45.8805 L1211.24 45.84 Z" fill="#000000" fill-rule="evenodd" fill-opacity="1" /><path clip-path="url(#clip740)" d="M 0 0 M1252.8 34.1734 Q1251.54 33.4443 1250.05 33.1202 Q1248.59 32.7556 1246.8 32.7556 Q1240.49 32.7556 1237.08 36.8875 Q1233.72 40.9789 1233.72 48.6757 L1233.72 72.576 L1226.23 72.576 L1226.23 27.2059 L1233.72 27.2059 L1233.72 34.2544 Q1236.07 30.1225 1239.84 28.1376 Q1243.6 26.1121 1248.99 26.1121 Q1249.76 26.1121 1250.69 26.2337 Q1251.63 26.3147 1252.76 26.5172 L1252.8 34.1734 Z" fill="#000000" fill-rule="evenodd" fill-opacity="1" /><path clip-path="url(#clip740)" d="M 0 0 M1281.24 49.7694 Q1272.2 49.7694 1268.72 51.8354 Q1265.24 53.9013 1265.24 58.8839 Q1265.24 62.8538 1267.83 65.2034 Q1270.46 67.5124 1274.96 67.5124 Q1281.16 67.5124 1284.88 63.1374 Q1288.65 58.7219 1288.65 51.4303 L1288.65 49.7694 L1281.24 49.7694 M1296.1 46.6907 L1296.1 72.576 L1288.65 72.576 L1288.65 65.6895 Q1286.1 69.8214 1282.29 71.8063 Q1278.48 73.7508 1272.97 73.7508 Q1266.01 73.7508 1261.87 69.8619 Q1257.78 65.9325 1257.78 59.3701 Q1257.78 51.7138 1262.89 47.825 Q1268.03 43.9361 1278.2 43.9361 L1288.65 43.9361 L1288.65 43.2069 Q1288.65 38.0623 1285.25 35.2672 Q1281.89 32.4315 1275.77 32.4315 Q1271.88 32.4315 1268.19 33.3632 Q1264.51 34.295 1261.1 36.1584 L1261.1 29.2718 Q1265.2 27.692 1269.04 26.9223 Q1272.89 26.1121 1276.54 26.1121 Q1286.38 26.1121 1291.24 31.2163 Q1296.1 36.3204 1296.1 46.6907 Z" fill="#000000" fill-rule="evenodd" fill-opacity="1" /><path clip-path="url(#clip740)" d="M 0 0 M1311.3 14.324 L1311.3 27.2059 L1326.65 27.2059 L1326.65 32.9987 L1311.3 32.9987 L1311.3 57.6282 Q1311.3 63.1779 1312.79 64.7578 Q1314.33 66.3376 1318.99 66.3376 L1326.65 66.3376 L1326.65 72.576 L1318.99 72.576 Q1310.36 72.576 1307.08 69.3758 Q1303.8 66.1351 1303.8 57.6282 L1303.8 32.9987 L1298.33 32.9987 L1298.33 27.2059 L1303.8 27.2059 L1303.8 14.324 L1311.3 14.324 Z" fill="#000000" fill-rule="evenodd" fill-opacity="1" /><path clip-path="url(#clip740)" d="M 0 0 M1333.7 54.671 L1333.7 27.2059 L1341.15 27.2059 L1341.15 54.3874 Q1341.15 60.8284 1343.66 64.0691 Q1346.17 67.2693 1351.2 67.2693 Q1357.23 67.2693 1360.72 63.421 Q1364.24 59.5726 1364.24 52.9291 L1364.24 27.2059 L1371.69 27.2059 L1371.69 72.576 L1364.24 72.576 L1364.24 65.6084 Q1361.53 69.7404 1357.92 71.7658 Q1354.36 73.7508 1349.62 73.7508 Q1341.8 73.7508 1337.75 68.8897 Q1333.7 64.0286 1333.7 54.671 M1352.45 26.1121 L1352.45 26.1121 Z" fill="#000000" fill-rule="evenodd" fill-opacity="1" /><path clip-path="url(#clip740)" d="M 0 0 M1405.8 34.1734 Q1404.55 33.4443 1403.05 33.1202 Q1401.59 32.7556 1399.81 32.7556 Q1393.49 32.7556 1390.09 36.8875 Q1386.72 40.9789 1386.72 48.6757 L1386.72 72.576 L1379.23 72.576 L1379.23 27.2059 L1386.72 27.2059 L1386.72 34.2544 Q1389.07 30.1225 1392.84 28.1376 Q1396.61 26.1121 1401.99 26.1121 Q1402.76 26.1121 1403.7 26.2337 Q1404.63 26.3147 1405.76 26.5172 L1405.8 34.1734 Z" fill="#000000" fill-rule="evenodd" fill-opacity="1" /><path clip-path="url(#clip740)" d="M 0 0 M1450.61 48.0275 L1450.61 51.6733 L1416.34 51.6733 Q1416.82 59.3701 1420.95 63.421 Q1425.13 67.4314 1432.54 67.4314 Q1436.83 67.4314 1440.84 66.3781 Q1444.89 65.3249 1448.86 63.2184 L1448.86 70.267 Q1444.85 71.9684 1440.64 72.8596 Q1436.43 73.7508 1432.09 73.7508 Q1421.24 73.7508 1414.88 67.4314 Q1408.56 61.1119 1408.56 50.3365 Q1408.56 39.1965 1414.55 32.6746 Q1420.59 26.1121 1430.8 26.1121 Q1439.95 26.1121 1445.26 32.0264 Q1450.61 37.9003 1450.61 48.0275 M1443.15 45.84 Q1443.07 39.7232 1439.71 36.0774 Q1436.39 32.4315 1430.88 32.4315 Q1424.64 32.4315 1420.87 35.9558 Q1417.15 39.4801 1416.58 45.8805 L1443.15 45.84 Z" fill="#000000" fill-rule="evenodd" fill-opacity="1" /><path clip-path="url(#clip740)" d="M 0 0 M1492.01 65.7705 L1492.01 89.8329 L1484.51 89.8329 L1484.51 27.2059 L1492.01 27.2059 L1492.01 34.0924 Q1494.36 30.0415 1497.92 28.0971 Q1501.53 26.1121 1506.51 26.1121 Q1514.77 26.1121 1519.92 32.6746 Q1525.1 39.2371 1525.1 49.9314 Q1525.1 60.6258 1519.92 67.1883 Q1514.77 73.7508 1506.51 73.7508 Q1501.53 73.7508 1497.92 71.8063 Q1494.36 69.8214 1492.01 65.7705 M1517.36 49.9314 Q1517.36 41.7081 1513.96 37.0496 Q1510.6 32.3505 1504.69 32.3505 Q1498.77 32.3505 1495.37 37.0496 Q1492.01 41.7081 1492.01 49.9314 Q1492.01 58.1548 1495.37 62.8538 Q1498.77 67.5124 1504.69 67.5124 Q1510.6 67.5124 1513.96 62.8538 Q1517.36 58.1548 1517.36 49.9314 Z" fill="#000000" fill-rule="evenodd" fill-opacity="1" /><path clip-path="url(#clip740)" d="M 0 0 M1559.21 34.1734 Q1557.95 33.4443 1556.46 33.1202 Q1555 32.7556 1553.22 32.7556 Q1546.9 32.7556 1543.49 36.8875 Q1540.13 40.9789 1540.13 48.6757 L1540.13 72.576 L1532.64 72.576 L1532.64 27.2059 L1540.13 27.2059 L1540.13 34.2544 Q1542.48 30.1225 1546.25 28.1376 Q1550.01 26.1121 1555.4 26.1121 Q1556.17 26.1121 1557.1 26.2337 Q1558.04 26.3147 1559.17 26.5172 L1559.21 34.1734 Z" fill="#000000" fill-rule="evenodd" fill-opacity="1" /><path clip-path="url(#clip740)" d="M 0 0 M1582.79 32.4315 Q1576.79 32.4315 1573.31 37.1306 Q1569.82 41.7891 1569.82 49.9314 Q1569.82 58.0738 1573.27 62.7728 Q1576.75 67.4314 1582.79 67.4314 Q1588.74 67.4314 1592.23 62.7323 Q1595.71 58.0333 1595.71 49.9314 Q1595.71 41.8701 1592.23 37.1711 Q1588.74 32.4315 1582.79 32.4315 M1582.79 26.1121 Q1592.51 26.1121 1598.06 32.4315 Q1603.61 38.7509 1603.61 49.9314 Q1603.61 61.0714 1598.06 67.4314 Q1592.51 73.7508 1582.79 73.7508 Q1573.02 73.7508 1567.47 67.4314 Q1561.97 61.0714 1561.97 49.9314 Q1561.97 38.7509 1567.47 32.4315 Q1573.02 26.1121 1582.79 26.1121 Z" fill="#000000" fill-rule="evenodd" fill-opacity="1" /><path clip-path="url(#clip740)" d="M 0 0 M1634.4 9.54393 L1634.4 15.7418 L1627.27 15.7418 Q1623.26 15.7418 1621.68 17.3622 Q1620.14 18.9825 1620.14 23.1955 L1620.14 27.2059 L1632.41 27.2059 L1632.41 32.9987 L1620.14 32.9987 L1620.14 72.576 L1612.64 72.576 L1612.64 32.9987 L1605.51 32.9987 L1605.51 27.2059 L1612.64 27.2059 L1612.64 24.0462 Q1612.64 16.471 1616.17 13.0277 Q1619.69 9.54393 1627.35 9.54393 L1634.4 9.54393 Z" fill="#000000" fill-rule="evenodd" fill-opacity="1" /><path clip-path="url(#clip740)" d="M 0 0 M1642.21 27.2059 L1649.67 27.2059 L1649.67 72.576 L1642.21 72.576 L1642.21 27.2059 M1642.21 9.54393 L1649.67 9.54393 L1649.67 18.9825 L1642.21 18.9825 L1642.21 9.54393 Z" fill="#000000" fill-rule="evenodd" fill-opacity="1" /><path clip-path="url(#clip740)" d="M 0 0 M1657.49 9.54393 L1664.94 9.54393 L1664.94 72.576 L1657.49 72.576 L1657.49 9.54393 Z" fill="#000000" fill-rule="evenodd" fill-opacity="1" /><path clip-path="url(#clip740)" d="M 0 0 M1711.56 48.0275 L1711.56 51.6733 L1677.29 51.6733 Q1677.78 59.3701 1681.91 63.421 Q1686.08 67.4314 1693.5 67.4314 Q1697.79 67.4314 1701.8 66.3781 Q1705.85 65.3249 1709.82 63.2184 L1709.82 70.267 Q1705.81 71.9684 1701.6 72.8596 Q1697.39 73.7508 1693.05 73.7508 Q1682.2 73.7508 1675.84 67.4314 Q1669.52 61.1119 1669.52 50.3365 Q1669.52 39.1965 1675.51 32.6746 Q1681.55 26.1121 1691.76 26.1121 Q1700.91 26.1121 1706.22 32.0264 Q1711.56 37.9003 1711.56 48.0275 M1704.11 45.84 Q1704.03 39.7232 1700.67 36.0774 Q1697.35 32.4315 1691.84 32.4315 Q1685.6 32.4315 1681.83 35.9558 Q1678.1 39.4801 1677.54 45.8805 L1704.11 45.84 Z" fill="#000000" fill-rule="evenodd" fill-opacity="1" /><polyline clip-path="url(#clip742)" style="stroke:#009af9; stroke-width:4; stroke-opacity:1; fill:none" points="
  194.913,1445.36 197.008,1435.56 199.103,1425.77 201.198,1415.97 203.293,1406.18 205.388,1396.38 207.483,1386.59 209.578,1376.81 211.673,1367.03 213.768,1357.25 
  215.863,1347.48 217.958,1337.71 220.053,1327.95 222.148,1318.19 224.243,1308.45 226.338,1298.71 228.433,1288.98 230.528,1279.26 232.623,1269.54 234.718,1259.84 
  236.813,1250.15 238.908,1240.47 241.003,1230.8 243.098,1221.14 245.193,1211.5 247.288,1201.87 249.383,1192.25 251.478,1182.65 253.573,1173.06 255.668,1163.49 
  257.763,1153.94 259.858,1144.4 261.953,1134.88 264.048,1125.37 266.143,1115.89 268.238,1106.42 270.333,1096.97 272.428,1087.55 274.523,1078.14 276.618,1068.75 
  278.713,1059.39 280.808,1050.04 282.903,1040.72 284.998,1031.43 287.093,1022.15 289.188,1012.9 291.283,1003.68 293.378,994.474 295.473,985.299 297.568,976.15 
  299.663,967.028 301.758,957.933 303.853,948.865 305.948,939.825 308.043,930.814 310.137,921.832 312.232,912.88 314.327,903.957 316.422,895.066 318.517,886.205 
  320.612,877.376 322.707,868.578 324.802,859.813 326.897,851.082 328.992,842.383 331.087,833.719 333.182,825.088 335.277,816.493 337.372,807.933 339.467,799.409 
  341.562,790.92 343.657,782.469 345.752,774.054 347.847,765.678 349.942,757.339 352.037,749.038 354.132,740.777 356.227,732.554 358.322,724.372 360.417,716.229 
  362.512,708.127 364.607,700.066 366.702,692.047 368.797,684.069 370.892,676.134 372.987,668.241 375.082,660.391 377.177,652.585 379.272,644.822 381.367,637.104 
  383.462,629.43 385.557,621.801 387.652,614.218 389.747,606.681 391.842,599.189 393.937,591.744 396.032,584.346 398.127,576.995 400.222,569.692 402.317,562.437 
  404.412,555.23 406.507,548.071 408.602,540.962 410.697,533.901 412.792,526.891 414.887,519.93 416.982,513.02 419.077,506.161 421.172,499.352 423.267,492.594 
  425.362,485.889 427.457,479.235 429.552,472.633 431.647,466.083 433.742,459.587 435.837,453.143 437.932,446.753 440.027,440.416 442.122,434.133 444.217,427.904 
  446.312,421.73 448.407,415.61 450.502,409.546 452.597,403.536 454.692,397.582 456.787,391.684 458.882,385.841 460.977,380.055 463.072,374.325 465.167,368.651 
  467.262,363.034 469.357,357.475 471.452,351.972 473.547,346.527 475.642,341.14 477.737,335.81 479.832,330.539 481.927,325.326 484.022,320.171 486.117,315.074 
  488.212,310.037 490.307,305.058 492.402,300.139 494.497,295.278 496.592,290.477 498.687,285.736 500.782,281.054 502.877,276.432 504.972,271.87 507.067,267.368 
  509.162,262.926 511.257,258.545 513.352,254.223 515.447,249.963 517.542,245.763 519.637,241.624 521.732,237.546 523.827,233.528 525.922,229.572 528.017,225.677 
  530.112,221.842 532.207,218.07 534.302,214.358 536.397,210.708 538.492,207.119 540.587,203.591 542.682,200.126 544.777,196.721 546.872,193.378 548.967,190.097 
  551.062,186.878 553.157,183.72 555.252,180.623 557.347,177.589 559.442,174.616 561.537,171.705 563.632,168.855 565.727,166.067 567.822,163.341 569.917,160.676 
  572.012,158.073 574.107,155.532 576.202,153.052 578.297,150.633 580.392,148.276 582.487,145.981 584.582,143.746 586.677,141.573 588.772,139.462 590.867,137.411 
  592.962,135.421 595.057,133.493 597.152,131.625 599.247,129.818 601.342,128.072 603.437,126.387 605.532,124.762 607.627,123.197 609.722,121.693 611.817,120.249 
  613.912,118.865 616.007,117.541 618.102,116.276 620.196,115.072 622.291,113.927 624.386,112.841 626.481,111.814 628.576,110.847 630.671,109.938 632.766,109.089 
  634.861,108.297 636.956,107.564 639.051,106.89 641.146,106.273 643.241,105.714 645.336,105.213 647.431,104.77 649.526,104.383 651.621,104.054 653.716,103.781 
  655.811,103.565 657.906,103.406 660.001,103.303 662.096,103.255 664.191,103.264 666.286,103.327 668.381,103.447 670.476,103.621 672.571,103.849 674.666,104.133 
  676.761,104.47 678.856,104.862 680.951,105.307 683.046,105.805 685.141,106.357 687.236,106.962 689.331,107.619 691.426,108.329 693.521,109.09 695.616,109.903 
  697.711,110.768 699.806,111.684 701.901,112.651 703.996,113.668 706.091,114.735 708.186,115.852 710.281,117.019 712.376,118.235 714.471,119.5 716.566,120.813 
  718.661,122.175 720.756,123.584 722.851,125.041 724.946,126.546 727.041,128.097 729.136,129.694 731.231,131.338 733.326,133.028 735.421,134.762 737.516,136.542 
  739.611,138.367 741.706,140.236 743.801,142.149 745.896,144.105 747.991,146.104 750.086,148.147 752.181,150.231 754.276,152.358 756.371,154.526 758.466,156.736 
  760.561,158.986 762.656,161.276 764.751,163.607 766.846,165.977 768.941,168.386 771.036,170.834 773.131,173.32 775.226,175.844 777.321,178.406 779.416,181.005 
  781.511,183.64 783.606,186.311 785.701,189.018 787.796,191.761 789.891,194.538 791.986,197.35 794.081,200.196 796.176,203.075 798.271,205.988 800.366,208.933 
  802.461,211.91 804.556,214.919 806.651,217.959 808.746,221.03 810.841,224.132 812.936,227.263 815.031,230.424 817.126,233.613 819.221,236.832 821.316,240.078 
  823.411,243.352 825.506,246.652 827.601,249.98 829.696,253.333 831.791,256.713 833.886,260.117 835.981,263.546 838.076,267 840.171,270.477 842.266,273.977 
  844.361,277.5 846.456,281.045 848.551,284.612 850.646,288.201 852.741,291.81 854.836,295.44 856.931,299.089 859.026,302.758 861.121,306.445 863.216,310.151 
  865.311,313.875 867.406,317.616 869.501,321.373 871.596,325.148 873.691,328.938 875.786,332.743 877.881,336.563 879.976,340.398 882.071,344.246 884.166,348.108 
  886.261,351.982 888.356,355.869 890.451,359.768 892.546,363.678 894.641,367.599 896.736,371.53 898.831,375.472 900.926,379.422 903.021,383.381 905.116,387.349 
  907.211,391.324 909.306,395.307 911.401,399.296 913.496,403.292 915.591,407.293 917.686,411.3 919.781,415.312 921.876,419.328 923.971,423.348 926.066,427.371 
  928.161,431.397 930.255,435.425 932.35,439.455 934.445,443.486 936.54,447.518 938.635,451.551 940.73,455.583 942.825,459.615 944.92,463.645 947.015,467.674 
  949.11,471.7 951.205,475.724 953.3,479.745 955.395,483.762 957.49,487.776 959.585,491.784 961.68,495.788 963.775,499.785 965.87,503.777 967.965,507.763 
  970.06,511.741 972.155,515.712 974.25,519.675 976.345,523.629 978.44,527.575 980.535,531.511 982.63,535.438 984.725,539.354 986.82,543.26 988.915,547.154 
  991.01,551.036 993.105,554.907 995.2,558.764 997.295,562.609 999.39,566.44 1001.49,570.258 1003.58,574.06 1005.68,577.848 1007.77,581.621 1009.87,585.378 
  1011.96,589.119 1014.06,592.843 1016.15,596.55 1018.25,600.24 1020.34,603.911 1022.44,607.565 1024.53,611.199 1026.63,614.815 1028.72,618.41 1030.82,621.986 
  1032.91,625.541 1035.01,629.076 1037.1,632.589 1039.2,636.08 1041.29,639.55 1043.39,642.997 1045.48,646.421 1047.58,649.822 1049.67,653.199 1051.77,656.552 
  1053.86,659.881 1055.96,663.184 1058.05,666.463 1060.15,669.716 1062.24,672.943 1064.34,676.144 1066.43,679.318 1068.53,682.465 1070.62,685.585 1072.72,688.677 
  1074.81,691.741 1076.91,694.776 1079,697.782 1081.1,700.76 1083.19,703.708 1085.28,706.626 1087.38,709.514 1089.47,712.371 1091.57,715.198 1093.66,717.993 
  1095.76,720.757 1097.85,723.489 1099.95,726.19 1102.04,728.857 1104.14,731.493 1106.23,734.095 1108.33,736.664 1110.42,739.199 1112.52,741.7 1114.61,744.168 
  1116.71,746.601 1118.8,748.999 1120.9,751.362 1122.99,753.69 1125.09,755.983 1127.18,758.24 1129.28,760.46 1131.37,762.645 1133.47,764.793 1135.56,766.904 
  1137.66,768.979 1139.75,771.016 1141.85,773.016 1143.94,774.978 1146.04,776.902 1148.13,778.788 1150.23,780.636 1152.32,782.445 1154.42,784.216 1156.51,785.947 
  1158.61,787.64 1160.7,789.293 1162.8,790.907 1164.89,792.481 1166.99,794.015 1169.08,795.509 1171.18,796.963 1173.27,798.377 1175.37,799.75 1177.46,801.083 
  1179.56,802.375 1181.65,803.625 1183.75,804.835 1185.84,806.004 1187.94,807.131 1190.03,808.216 1192.13,809.26 1194.22,810.263 1196.32,811.223 1198.41,812.142 
  1200.51,813.018 1202.6,813.853 1204.7,814.645 1206.79,815.395 1208.89,816.102 1210.98,816.767 1213.08,817.39 1215.17,817.969 1217.27,818.507 1219.36,819.001 
  1221.46,819.453 1223.55,819.861 1225.65,820.227 1227.74,820.55 1229.84,820.83 1231.93,821.067 1234.03,821.26 1236.12,821.411 1238.22,821.519 1240.31,821.584 
  1242.41,821.605 1244.5,821.584 1246.6,821.519 1248.69,821.411 1250.79,821.26 1252.88,821.067 1254.98,820.83 1257.07,820.55 1259.17,820.227 1261.26,819.861 
  1263.36,819.453 1265.45,819.001 1267.55,818.507 1269.64,817.969 1271.74,817.39 1273.83,816.767 1275.93,816.102 1278.02,815.395 1280.12,814.645 1282.21,813.853 
  1284.31,813.018 1286.4,812.142 1288.5,811.223 1290.59,810.263 1292.69,809.26 1294.78,808.216 1296.88,807.131 1298.97,806.004 1301.07,804.835 1303.16,803.625 
  1305.26,802.375 1307.35,801.083 1309.45,799.75 1311.54,798.377 1313.64,796.963 1315.73,795.509 1317.83,794.015 1319.92,792.481 1322.02,790.907 1324.11,789.293 
  1326.21,787.64 1328.3,785.947 1330.4,784.216 1332.49,782.445 1334.59,780.636 1336.68,778.788 1338.78,776.902 1340.87,774.978 1342.97,773.016 1345.06,771.016 
  1347.16,768.979 1349.25,766.904 1351.35,764.793 1353.44,762.645 1355.54,760.46 1357.63,758.24 1359.73,755.983 1361.82,753.69 1363.92,751.362 1366.01,748.999 
  1368.11,746.601 1370.2,744.168 1372.3,741.7 1374.39,739.199 1376.49,736.664 1378.58,734.095 1380.68,731.493 1382.77,728.857 1384.87,726.19 1386.96,723.489 
  1389.06,720.757 1391.15,717.993 1393.25,715.198 1395.34,712.371 1397.44,709.514 1399.53,706.626 1401.63,703.708 1403.72,700.76 1405.82,697.782 1407.91,694.776 
  1410.01,691.741 1412.1,688.677 1414.2,685.585 1416.29,682.465 1418.39,679.318 1420.48,676.144 1422.58,672.943 1424.67,669.716 1426.77,666.463 1428.86,663.184 
  1430.96,659.881 1433.05,656.552 1435.15,653.199 1437.24,649.822 1439.34,646.421 1441.43,642.997 1443.53,639.55 1445.62,636.08 1447.72,632.589 1449.81,629.076 
  1451.91,625.541 1454,621.986 1456.1,618.41 1458.19,614.815 1460.29,611.199 1462.38,607.565 1464.48,603.911 1466.57,600.24 1468.67,596.55 1470.76,592.843 
  1472.86,589.119 1474.95,585.378 1477.05,581.621 1479.14,577.848 1481.24,574.06 1483.33,570.258 1485.43,566.44 1487.52,562.609 1489.62,558.764 1491.71,554.907 
  1493.81,551.036 1495.9,547.154 1498,543.26 1500.09,539.354 1502.19,535.438 1504.28,531.511 1506.38,527.575 1508.47,523.629 1510.57,519.675 1512.66,515.712 
  1514.76,511.741 1516.85,507.763 1518.95,503.777 1521.04,499.785 1523.14,495.788 1525.23,491.784 1527.33,487.776 1529.42,483.762 1531.52,479.745 1533.61,475.724 
  1535.71,471.7 1537.8,467.674 1539.9,463.645 1541.99,459.615 1544.09,455.583 1546.18,451.551 1548.28,447.518 1550.37,443.486 1552.47,439.455 1554.56,435.425 
  1556.66,431.397 1558.75,427.371 1560.85,423.348 1562.94,419.328 1565.04,415.312 1567.13,411.3 1569.23,407.293 1571.32,403.292 1573.42,399.296 1575.51,395.307 
  1577.61,391.324 1579.7,387.349 1581.8,383.381 1583.89,379.422 1585.99,375.472 1588.08,371.53 1590.18,367.599 1592.27,363.678 1594.37,359.768 1596.46,355.869 
  1598.56,351.982 1600.65,348.108 1602.75,344.246 1604.84,340.398 1606.94,336.563 1609.03,332.743 1611.13,328.938 1613.22,325.148 1615.32,321.373 1617.41,317.616 
  1619.51,313.875 1621.6,310.151 1623.7,306.445 1625.79,302.758 1627.89,299.089 1629.98,295.44 1632.08,291.81 1634.17,288.201 1636.27,284.612 1638.36,281.045 
  1640.46,277.5 1642.55,273.977 1644.65,270.477 1646.74,267 1648.84,263.546 1650.93,260.117 1653.03,256.713 1655.12,253.333 1657.22,249.98 1659.31,246.652 
  1661.41,243.352 1663.5,240.078 1665.6,236.832 1667.69,233.613 1669.79,230.424 1671.88,227.263 1673.98,224.132 1676.07,221.03 1678.17,217.959 1680.26,214.919 
  1682.36,211.91 1684.45,208.933 1686.55,205.988 1688.64,203.075 1690.74,200.196 1692.83,197.35 1694.93,194.538 1697.02,191.761 1699.12,189.018 1701.21,186.311 
  1703.31,183.64 1705.4,181.005 1707.5,178.406 1709.59,175.844 1711.69,173.32 1713.78,170.834 1715.88,168.386 1717.97,165.977 1720.07,163.607 1722.16,161.276 
  1724.26,158.986 1726.35,156.736 1728.45,154.526 1730.54,152.358 1732.64,150.231 1734.73,148.147 1736.83,146.104 1738.92,144.105 1741.02,142.149 1743.11,140.236 
  1745.21,138.367 1747.3,136.542 1749.4,134.762 1751.49,133.028 1753.59,131.338 1755.68,129.694 1757.78,128.097 1759.87,126.546 1761.97,125.041 1764.06,123.584 
  1766.16,122.175 1768.25,120.813 1770.35,119.5 1772.44,118.235 1774.54,117.019 1776.63,115.852 1778.73,114.735 1780.82,113.668 1782.92,112.651 1785.01,111.684 
  1787.11,110.768 1789.2,109.903 1791.3,109.09 1793.39,108.329 1795.49,107.619 1797.58,106.962 1799.68,106.357 1801.77,105.805 1803.87,105.307 1805.96,104.862 
  1808.06,104.47 1810.15,104.133 1812.25,103.849 1814.34,103.621 1816.44,103.447 1818.53,103.327 1820.63,103.264 1822.72,103.255 1824.82,103.303 1826.91,103.406 
  1829.01,103.565 1831.1,103.781 1833.2,104.054 1835.29,104.383 1837.39,104.77 1839.48,105.213 1841.58,105.714 1843.67,106.273 1845.77,106.89 1847.86,107.564 
  1849.96,108.297 1852.05,109.089 1854.15,109.938 1856.24,110.847 1858.34,111.814 1860.43,112.841 1862.53,113.927 1864.62,115.072 1866.72,116.276 1868.81,117.541 
  1870.91,118.865 1873,120.249 1875.1,121.693 1877.19,123.197 1879.29,124.762 1881.38,126.387 1883.48,128.072 1885.57,129.818 1887.67,131.625 1889.76,133.493 
  1891.86,135.421 1893.95,137.411 1896.05,139.462 1898.14,141.573 1900.24,143.746 1902.33,145.981 1904.43,148.276 1906.52,150.633 1908.62,153.052 1910.71,155.532 
  1912.81,158.073 1914.9,160.676 1917,163.341 1919.09,166.067 1921.19,168.855 1923.28,171.705 1925.38,174.616 1927.47,177.589 1929.57,180.623 1931.66,183.72 
  1933.76,186.878 1935.85,190.097 1937.95,193.378 1940.04,196.721 1942.14,200.126 1944.23,203.591 1946.33,207.119 1948.42,210.708 1950.52,214.358 1952.61,218.07 
  1954.71,221.842 1956.8,225.677 1958.9,229.572 1960.99,233.528 1963.09,237.546 1965.18,241.624 1967.28,245.763 1969.37,249.963 1971.47,254.223 1973.56,258.545 
  1975.66,262.926 1977.75,267.368 1979.85,271.87 1981.94,276.432 1984.04,281.054 1986.13,285.736 1988.23,290.477 1990.32,295.278 1992.42,300.139 1994.51,305.058 
  1996.61,310.037 1998.7,315.074 2000.8,320.171 2002.89,325.326 2004.99,330.539 2007.08,335.81 2009.18,341.14 2011.27,346.527 2013.37,351.972 2015.46,357.475 
  2017.56,363.034 2019.65,368.651 2021.75,374.325 2023.84,380.055 2025.94,385.841 2028.03,391.684 2030.13,397.582 2032.22,403.536 2034.32,409.546 2036.41,415.61 
  2038.51,421.73 2040.6,427.904 2042.7,434.133 2044.79,440.416 2046.89,446.753 2048.98,453.143 2051.08,459.587 2053.17,466.083 2055.27,472.633 2057.36,479.235 
  2059.46,485.889 2061.55,492.594 2063.65,499.352 2065.74,506.161 2067.84,513.02 2069.93,519.93 2072.03,526.891 2074.12,533.901 2076.22,540.962 2078.31,548.071 
  2080.41,555.23 2082.5,562.437 2084.6,569.692 2086.69,576.995 2088.79,584.346 2090.88,591.744 2092.98,599.189 2095.07,606.681 2097.17,614.218 2099.26,621.801 
  2101.36,629.43 2103.45,637.104 2105.55,644.822 2107.64,652.585 2109.74,660.391 2111.83,668.241 2113.93,676.134 2116.02,684.069 2118.12,692.047 2120.21,700.066 
  2122.31,708.127 2124.4,716.229 2126.5,724.372 2128.59,732.554 2130.69,740.777 2132.78,749.038 2134.88,757.339 2136.97,765.678 2139.07,774.054 2141.16,782.469 
  2143.26,790.92 2145.35,799.409 2147.45,807.933 2149.54,816.493 2151.64,825.088 2153.73,833.719 2155.83,842.383 2157.92,851.082 2160.02,859.813 2162.11,868.578 
  2164.21,877.376 2166.3,886.205 2168.4,895.066 2170.49,903.957 2172.59,912.88 2174.68,921.832 2176.78,930.814 2178.87,939.825 2180.97,948.865 2183.06,957.933 
  2185.16,967.028 2187.25,976.15 2189.35,985.299 2191.44,994.474 2193.54,1003.68 2195.63,1012.9 2197.73,1022.15 2199.82,1031.43 2201.92,1040.72 2204.01,1050.04 
  2206.11,1059.39 2208.2,1068.75 2210.3,1078.14 2212.39,1087.55 2214.49,1096.97 2216.58,1106.42 2218.68,1115.89 2220.77,1125.37 2222.87,1134.88 2224.96,1144.4 
  2227.06,1153.94 2229.15,1163.49 2231.25,1173.06 2233.34,1182.65 2235.44,1192.25 2237.53,1201.87 2239.63,1211.5 2241.72,1221.14 2243.82,1230.8 2245.91,1240.47 
  2248.01,1250.15 2250.1,1259.84 2252.2,1269.54 2254.29,1279.26 2256.39,1288.98 2258.48,1298.71 2260.58,1308.45 2262.67,1318.19 2264.77,1327.95 2266.86,1337.71 
  2268.96,1347.48 2271.05,1357.25 2273.15,1367.03 2275.24,1376.81 2277.34,1386.59 2279.43,1396.38 2281.53,1406.18 2283.62,1415.97 2285.72,1425.77 2287.81,1435.56 
  2289.91,1445.36 
  "/>
<circle clip-path="url(#clip742)" cx="194.913" cy="1445.36" r="14" fill="#e26f46" fill-rule="evenodd" fill-opacity="1" stroke="#000000" stroke-opacity="1" stroke-width="3.2"/>
<circle clip-path="url(#clip742)" cx="236.813" cy="1250.15" r="14" fill="#e26f46" fill-rule="evenodd" fill-opacity="1" stroke="#000000" stroke-opacity="1" stroke-width="3.2"/>
<circle clip-path="url(#clip742)" cx="278.713" cy="1059.39" r="14" fill="#e26f46" fill-rule="evenodd" fill-opacity="1" stroke="#000000" stroke-opacity="1" stroke-width="3.2"/>
<circle clip-path="url(#clip742)" cx="320.612" cy="877.376" r="14" fill="#e26f46" fill-rule="evenodd" fill-opacity="1" stroke="#000000" stroke-opacity="1" stroke-width="3.2"/>
<circle clip-path="url(#clip742)" cx="362.512" cy="708.127" r="14" fill="#e26f46" fill-rule="evenodd" fill-opacity="1" stroke="#000000" stroke-opacity="1" stroke-width="3.2"/>
<circle clip-path="url(#clip742)" cx="404.412" cy="555.23" r="14" fill="#e26f46" fill-rule="evenodd" fill-opacity="1" stroke="#000000" stroke-opacity="1" stroke-width="3.2"/>
<circle clip-path="url(#clip742)" cx="446.312" cy="421.73" r="14" fill="#e26f46" fill-rule="evenodd" fill-opacity="1" stroke="#000000" stroke-opacity="1" stroke-width="3.2"/>
<circle clip-path="url(#clip742)" cx="488.212" cy="310.037" r="14" fill="#e26f46" fill-rule="evenodd" fill-opacity="1" stroke="#000000" stroke-opacity="1" stroke-width="3.2"/>
<circle clip-path="url(#clip742)" cx="530.112" cy="221.842" r="14" fill="#e26f46" fill-rule="evenodd" fill-opacity="1" stroke="#000000" stroke-opacity="1" stroke-width="3.2"/>
<circle clip-path="url(#clip742)" cx="572.012" cy="158.073" r="14" fill="#e26f46" fill-rule="evenodd" fill-opacity="1" stroke="#000000" stroke-opacity="1" stroke-width="3.2"/>
<circle clip-path="url(#clip742)" cx="613.912" cy="118.865" r="14" fill="#e26f46" fill-rule="evenodd" fill-opacity="1" stroke="#000000" stroke-opacity="1" stroke-width="3.2"/>
<circle clip-path="url(#clip742)" cx="655.811" cy="103.565" r="14" fill="#e26f46" fill-rule="evenodd" fill-opacity="1" stroke="#000000" stroke-opacity="1" stroke-width="3.2"/>
<circle clip-path="url(#clip742)" cx="697.711" cy="110.768" r="14" fill="#e26f46" fill-rule="evenodd" fill-opacity="1" stroke="#000000" stroke-opacity="1" stroke-width="3.2"/>
<circle clip-path="url(#clip742)" cx="739.611" cy="138.367" r="14" fill="#e26f46" fill-rule="evenodd" fill-opacity="1" stroke="#000000" stroke-opacity="1" stroke-width="3.2"/>
<circle clip-path="url(#clip742)" cx="781.511" cy="183.64" r="14" fill="#e26f46" fill-rule="evenodd" fill-opacity="1" stroke="#000000" stroke-opacity="1" stroke-width="3.2"/>
<circle clip-path="url(#clip742)" cx="823.411" cy="243.352" r="14" fill="#e26f46" fill-rule="evenodd" fill-opacity="1" stroke="#000000" stroke-opacity="1" stroke-width="3.2"/>
<circle clip-path="url(#clip742)" cx="865.311" cy="313.875" r="14" fill="#e26f46" fill-rule="evenodd" fill-opacity="1" stroke="#000000" stroke-opacity="1" stroke-width="3.2"/>
<circle clip-path="url(#clip742)" cx="907.211" cy="391.324" r="14" fill="#e26f46" fill-rule="evenodd" fill-opacity="1" stroke="#000000" stroke-opacity="1" stroke-width="3.2"/>
<circle clip-path="url(#clip742)" cx="949.11" cy="471.7" r="14" fill="#e26f46" fill-rule="evenodd" fill-opacity="1" stroke="#000000" stroke-opacity="1" stroke-width="3.2"/>
<circle clip-path="url(#clip742)" cx="991.01" cy="551.036" r="14" fill="#e26f46" fill-rule="evenodd" fill-opacity="1" stroke="#000000" stroke-opacity="1" stroke-width="3.2"/>
<circle clip-path="url(#clip742)" cx="1032.91" cy="625.541" r="14" fill="#e26f46" fill-rule="evenodd" fill-opacity="1" stroke="#000000" stroke-opacity="1" stroke-width="3.2"/>
<circle clip-path="url(#clip742)" cx="1074.81" cy="691.741" r="14" fill="#e26f46" fill-rule="evenodd" fill-opacity="1" stroke="#000000" stroke-opacity="1" stroke-width="3.2"/>
<circle clip-path="url(#clip742)" cx="1116.71" cy="746.601" r="14" fill="#e26f46" fill-rule="evenodd" fill-opacity="1" stroke="#000000" stroke-opacity="1" stroke-width="3.2"/>
<circle clip-path="url(#clip742)" cx="1158.61" cy="787.64" r="14" fill="#e26f46" fill-rule="evenodd" fill-opacity="1" stroke="#000000" stroke-opacity="1" stroke-width="3.2"/>
<circle clip-path="url(#clip742)" cx="1200.51" cy="813.018" r="14" fill="#e26f46" fill-rule="evenodd" fill-opacity="1" stroke="#000000" stroke-opacity="1" stroke-width="3.2"/>
<circle clip-path="url(#clip742)" cx="1242.41" cy="821.605" r="14" fill="#e26f46" fill-rule="evenodd" fill-opacity="1" stroke="#000000" stroke-opacity="1" stroke-width="3.2"/>
<circle clip-path="url(#clip742)" cx="1284.31" cy="813.018" r="14" fill="#e26f46" fill-rule="evenodd" fill-opacity="1" stroke="#000000" stroke-opacity="1" stroke-width="3.2"/>
<circle clip-path="url(#clip742)" cx="1326.21" cy="787.64" r="14" fill="#e26f46" fill-rule="evenodd" fill-opacity="1" stroke="#000000" stroke-opacity="1" stroke-width="3.2"/>
<circle clip-path="url(#clip742)" cx="1368.11" cy="746.601" r="14" fill="#e26f46" fill-rule="evenodd" fill-opacity="1" stroke="#000000" stroke-opacity="1" stroke-width="3.2"/>
<circle clip-path="url(#clip742)" cx="1410.01" cy="691.741" r="14" fill="#e26f46" fill-rule="evenodd" fill-opacity="1" stroke="#000000" stroke-opacity="1" stroke-width="3.2"/>
<circle clip-path="url(#clip742)" cx="1451.91" cy="625.541" r="14" fill="#e26f46" fill-rule="evenodd" fill-opacity="1" stroke="#000000" stroke-opacity="1" stroke-width="3.2"/>
<circle clip-path="url(#clip742)" cx="1493.81" cy="551.036" r="14" fill="#e26f46" fill-rule="evenodd" fill-opacity="1" stroke="#000000" stroke-opacity="1" stroke-width="3.2"/>
<circle clip-path="url(#clip742)" cx="1535.71" cy="471.7" r="14" fill="#e26f46" fill-rule="evenodd" fill-opacity="1" stroke="#000000" stroke-opacity="1" stroke-width="3.2"/>
<circle clip-path="url(#clip742)" cx="1577.61" cy="391.324" r="14" fill="#e26f46" fill-rule="evenodd" fill-opacity="1" stroke="#000000" stroke-opacity="1" stroke-width="3.2"/>
<circle clip-path="url(#clip742)" cx="1619.51" cy="313.875" r="14" fill="#e26f46" fill-rule="evenodd" fill-opacity="1" stroke="#000000" stroke-opacity="1" stroke-width="3.2"/>
<circle clip-path="url(#clip742)" cx="1661.41" cy="243.352" r="14" fill="#e26f46" fill-rule="evenodd" fill-opacity="1" stroke="#000000" stroke-opacity="1" stroke-width="3.2"/>
<circle clip-path="url(#clip742)" cx="1703.31" cy="183.64" r="14" fill="#e26f46" fill-rule="evenodd" fill-opacity="1" stroke="#000000" stroke-opacity="1" stroke-width="3.2"/>
<circle clip-path="url(#clip742)" cx="1745.21" cy="138.367" r="14" fill="#e26f46" fill-rule="evenodd" fill-opacity="1" stroke="#000000" stroke-opacity="1" stroke-width="3.2"/>
<circle clip-path="url(#clip742)" cx="1787.11" cy="110.768" r="14" fill="#e26f46" fill-rule="evenodd" fill-opacity="1" stroke="#000000" stroke-opacity="1" stroke-width="3.2"/>
<circle clip-path="url(#clip742)" cx="1829.01" cy="103.565" r="14" fill="#e26f46" fill-rule="evenodd" fill-opacity="1" stroke="#000000" stroke-opacity="1" stroke-width="3.2"/>
<circle clip-path="url(#clip742)" cx="1870.91" cy="118.865" r="14" fill="#e26f46" fill-rule="evenodd" fill-opacity="1" stroke="#000000" stroke-opacity="1" stroke-width="3.2"/>
<circle clip-path="url(#clip742)" cx="1912.81" cy="158.073" r="14" fill="#e26f46" fill-rule="evenodd" fill-opacity="1" stroke="#000000" stroke-opacity="1" stroke-width="3.2"/>
<circle clip-path="url(#clip742)" cx="1954.71" cy="221.842" r="14" fill="#e26f46" fill-rule="evenodd" fill-opacity="1" stroke="#000000" stroke-opacity="1" stroke-width="3.2"/>
<circle clip-path="url(#clip742)" cx="1996.61" cy="310.037" r="14" fill="#e26f46" fill-rule="evenodd" fill-opacity="1" stroke="#000000" stroke-opacity="1" stroke-width="3.2"/>
<circle clip-path="url(#clip742)" cx="2038.51" cy="421.73" r="14" fill="#e26f46" fill-rule="evenodd" fill-opacity="1" stroke="#000000" stroke-opacity="1" stroke-width="3.2"/>
<circle clip-path="url(#clip742)" cx="2080.41" cy="555.23" r="14" fill="#e26f46" fill-rule="evenodd" fill-opacity="1" stroke="#000000" stroke-opacity="1" stroke-width="3.2"/>
<circle clip-path="url(#clip742)" cx="2122.31" cy="708.127" r="14" fill="#e26f46" fill-rule="evenodd" fill-opacity="1" stroke="#000000" stroke-opacity="1" stroke-width="3.2"/>
<circle clip-path="url(#clip742)" cx="2164.21" cy="877.376" r="14" fill="#e26f46" fill-rule="evenodd" fill-opacity="1" stroke="#000000" stroke-opacity="1" stroke-width="3.2"/>
<circle clip-path="url(#clip742)" cx="2206.11" cy="1059.39" r="14" fill="#e26f46" fill-rule="evenodd" fill-opacity="1" stroke="#000000" stroke-opacity="1" stroke-width="3.2"/>
<circle clip-path="url(#clip742)" cx="2248.01" cy="1250.15" r="14" fill="#e26f46" fill-rule="evenodd" fill-opacity="1" stroke="#000000" stroke-opacity="1" stroke-width="3.2"/>
<circle clip-path="url(#clip742)" cx="2289.91" cy="1445.36" r="14" fill="#e26f46" fill-rule="evenodd" fill-opacity="1" stroke="#000000" stroke-opacity="1" stroke-width="3.2"/>
<path clip-path="url(#clip740)" d="
M1785.53 1438.2 L2278.73 1438.2 L2278.73 1256.76 L1785.53 1256.76  Z
  " fill="#ffffff" fill-rule="evenodd" fill-opacity="1"/>
<polyline clip-path="url(#clip740)" style="stroke:#000000; stroke-width:4; stroke-opacity:1; fill:none" points="
  1785.53,1438.2 2278.73,1438.2 2278.73,1256.76 1785.53,1256.76 1785.53,1438.2 
  "/>
<polyline clip-path="url(#clip740)" style="stroke:#009af9; stroke-width:4; stroke-opacity:1; fill:none" points="
  1810.2,1317.24 1958.25,1317.24 
  "/>
<path clip-path="url(#clip740)" d="M 0 0 M2008.08 1316.67 Q2008.08 1319.03 2006.86 1321.4 Q2005.64 1323.76 2003.65 1325.59 Q2001.66 1327.39 1998.94 1328.56 Q1996.23 1329.74 1993.39 1329.83 L1991.57 1336.97 Q1991.21 1338.71 1991.03 1338.89 Q1990.84 1339.08 1990.56 1339.08 Q1989.97 1339.08 1989.97 1338.54 Q1989.97 1338.38 1991.03 1334.33 L1992.15 1329.83 Q1987.89 1329.59 1985.41 1327.14 Q1982.92 1324.68 1982.92 1321.14 Q1982.92 1318.75 1984.14 1316.38 Q1985.38 1314 1987.37 1312.19 Q1989.39 1310.39 1992.1 1309.24 Q1994.82 1308.09 1997.61 1308 L2000.4 1296.92 Q2000.54 1296.29 2000.65 1296.12 Q2000.77 1295.96 2001.12 1295.96 Q2001.38 1295.96 2001.52 1296.08 Q2001.66 1296.19 2001.66 1296.31 L2001.68 1296.43 L2001.54 1297.11 L1998.85 1308 Q2001.24 1308.16 2003.09 1309.01 Q2004.94 1309.85 2005.99 1311.11 Q2007.05 1312.36 2007.56 1313.76 Q2008.08 1315.17 2008.08 1316.67 M1997.33 1309.05 Q1994.75 1309.29 1992.57 1310.55 Q1990.4 1311.82 1988.99 1313.69 Q1987.58 1315.54 1986.81 1317.77 Q1986.04 1319.97 1986.04 1322.15 Q1986.04 1323.86 1986.6 1325.17 Q1987.19 1326.48 1988.15 1327.23 Q1989.11 1327.96 1990.16 1328.35 Q1991.24 1328.73 1992.39 1328.77 L1997.33 1309.05 M2004.94 1315.66 Q2004.94 1312.61 2003.18 1310.9 Q2001.43 1309.19 1998.57 1309.05 L1993.63 1328.77 Q1995.71 1328.61 1997.54 1327.74 Q1999.39 1326.85 2000.72 1325.54 Q2002.06 1324.21 2003.02 1322.57 Q2003.98 1320.9 2004.45 1319.15 Q2004.94 1317.37 2004.94 1315.66 Z" fill="#000000" fill-rule="evenodd" fill-opacity="1" /><path clip-path="url(#clip740)" d="M 0 0 M2011.22 1317.25 Q2011.22 1309.15 2014.24 1302.61 Q2015.53 1299.87 2017.33 1297.58 Q2019.14 1295.28 2020.33 1294.27 Q2021.53 1293.27 2021.85 1293.27 Q2022.32 1293.27 2022.34 1293.73 Q2022.34 1293.97 2021.71 1294.55 Q2013.98 1302.42 2014.01 1317.25 Q2014.01 1332.12 2021.53 1339.69 Q2022.34 1340.51 2022.34 1340.77 Q2022.34 1341.24 2021.85 1341.24 Q2021.53 1341.24 2020.38 1340.28 Q2019.23 1339.32 2017.45 1337.11 Q2015.67 1334.91 2014.38 1332.22 Q2011.22 1325.68 2011.22 1317.25 Z" fill="#000000" fill-rule="evenodd" fill-opacity="1" /><path clip-path="url(#clip740)" d="M 0 0 M2053.53 1311.21 Q2053.53 1312.52 2052.71 1313.27 Q2051.89 1314 2050.95 1314 Q2050.06 1314 2049.59 1313.48 Q2049.12 1312.96 2049.12 1312.31 Q2049.12 1311.42 2049.78 1310.65 Q2050.43 1309.87 2051.42 1309.71 Q2050.46 1309.1 2049.03 1309.1 Q2048.09 1309.1 2047.27 1309.59 Q2046.48 1310.08 2045.98 1310.72 Q2045.52 1311.35 2045.09 1312.26 Q2044.7 1313.15 2044.53 1313.69 Q2044.39 1314.21 2044.27 1314.77 L2042.63 1321.33 Q2041.84 1324.44 2041.84 1325.54 Q2041.84 1326.9 2042.49 1327.81 Q2043.15 1328.7 2044.46 1328.7 Q2044.98 1328.7 2045.56 1328.56 Q2046.15 1328.4 2046.9 1327.98 Q2047.67 1327.53 2048.35 1326.88 Q2049.05 1326.2 2049.73 1325.05 Q2050.41 1323.9 2050.86 1322.43 Q2051 1321.91 2051.46 1321.91 Q2052.05 1321.91 2052.05 1322.38 Q2052.05 1322.78 2051.72 1323.62 Q2051.42 1324.44 2050.74 1325.52 Q2050.08 1326.57 2049.22 1327.53 Q2048.35 1328.47 2047.06 1329.13 Q2045.77 1329.78 2044.37 1329.78 Q2042.35 1329.78 2041.02 1328.7 Q2039.68 1327.63 2039.19 1326.13 Q2039.07 1326.34 2038.91 1326.62 Q2038.75 1326.9 2038.25 1327.53 Q2037.79 1328.14 2037.25 1328.61 Q2036.71 1329.06 2035.87 1329.41 Q2035.05 1329.78 2034.16 1329.78 Q2033.03 1329.78 2032.02 1329.45 Q2031.04 1329.13 2030.34 1328.38 Q2029.63 1327.63 2029.63 1326.6 Q2029.63 1325.45 2030.41 1324.65 Q2031.2 1323.83 2032.28 1323.83 Q2032.96 1323.83 2033.5 1324.23 Q2034.06 1324.63 2034.06 1325.5 Q2034.06 1326.46 2033.41 1327.18 Q2032.75 1327.91 2031.81 1328.1 Q2032.77 1328.7 2034.2 1328.7 Q2035.75 1328.7 2036.97 1327.35 Q2038.18 1325.99 2038.77 1323.72 Q2040.22 1318.26 2040.78 1315.82 Q2041.35 1313.36 2041.35 1312.31 Q2041.35 1311.33 2041.09 1310.65 Q2040.83 1309.97 2040.39 1309.66 Q2039.96 1309.33 2039.57 1309.22 Q2039.19 1309.1 2038.77 1309.1 Q2038.07 1309.1 2037.27 1309.38 Q2036.5 1309.66 2035.56 1310.32 Q2034.65 1310.95 2033.78 1312.26 Q2032.91 1313.57 2032.33 1315.38 Q2032.21 1315.92 2031.7 1315.92 Q2031.13 1315.89 2031.13 1315.42 Q2031.13 1315.03 2031.44 1314.21 Q2031.77 1313.36 2032.42 1312.31 Q2033.1 1311.25 2033.97 1310.32 Q2034.86 1309.36 2036.15 1308.7 Q2037.46 1308.05 2038.86 1308.05 Q2039.5 1308.05 2040.1 1308.19 Q2040.74 1308.3 2041.49 1308.66 Q2042.26 1309.01 2042.94 1309.78 Q2043.62 1310.55 2044.04 1311.68 Q2044.32 1311.14 2044.7 1310.62 Q2045.09 1310.11 2045.7 1309.47 Q2046.33 1308.82 2047.2 1308.44 Q2048.09 1308.05 2049.08 1308.05 Q2050.04 1308.05 2050.97 1308.3 Q2051.91 1308.54 2052.71 1309.31 Q2053.53 1310.06 2053.53 1311.21 Z" fill="#000000" fill-rule="evenodd" fill-opacity="1" /><path clip-path="url(#clip740)" d="M 0 0 M2056.79 1340.77 Q2056.79 1340.53 2057.4 1339.95 Q2065.13 1332.08 2065.13 1317.25 Q2065.13 1302.38 2057.71 1294.86 Q2056.79 1293.99 2056.79 1293.73 Q2056.79 1293.27 2057.26 1293.27 Q2057.59 1293.27 2058.74 1294.23 Q2059.91 1295.19 2061.67 1297.39 Q2063.45 1299.59 2064.76 1302.28 Q2067.92 1308.82 2067.92 1317.25 Q2067.92 1325.36 2064.9 1331.89 Q2063.61 1334.63 2061.81 1336.93 Q2060 1339.22 2058.81 1340.23 Q2057.61 1341.24 2057.26 1341.24 Q2056.79 1341.24 2056.79 1340.77 Z" fill="#000000" fill-rule="evenodd" fill-opacity="1" /><circle clip-path="url(#clip740)" cx="1884.23" cy="1377.72" r="23" fill="#e26f46" fill-rule="evenodd" fill-opacity="1" stroke="#000000" stroke-opacity="1" stroke-width="5.12"/>
<path clip-path="url(#clip740)" d="M 0 0 M2015.55 1357.78 Q2015.55 1358.22 2015.46 1358.59 L2014.15 1366.93 Q2014.08 1367.57 2013.93 1367.8 Q2013.82 1368.03 2013.44 1368.03 Q2012.86 1368.03 2012.86 1367.43 Q2012.86 1367.07 2013 1366.51 Q2013.4 1363.86 2013.4 1362.67 Q2013.4 1361.87 2013.23 1361.29 Q2013.09 1360.68 2012.86 1360.26 Q2012.65 1359.84 2012.15 1359.56 Q2011.66 1359.27 2011.19 1359.11 Q2010.73 1358.95 2009.88 1358.88 Q2009.04 1358.78 2008.31 1358.76 Q2007.59 1358.74 2006.39 1358.74 Q2003.79 1358.74 2003.37 1358.83 Q2002.93 1358.95 2002.69 1359.3 Q2002.48 1359.63 2002.25 1360.61 L1995.88 1386.07 L1995.69 1387.08 Q1995.69 1387.64 1996.04 1387.83 Q1996.39 1388.01 1997.47 1388.13 Q1999.01 1388.25 2000.54 1388.25 Q2000.58 1388.25 2000.68 1388.25 Q2001.19 1388.25 2001.4 1388.27 Q2001.61 1388.27 2001.83 1388.32 Q2002.04 1388.36 2002.08 1388.48 Q2002.15 1388.58 2002.15 1388.76 Q2002.15 1389.21 2001.97 1389.44 Q2001.78 1389.65 2001.59 1389.7 Q2001.43 1389.72 2001.1 1389.72 Q2000.44 1389.72 1999.04 1389.68 Q1997.63 1389.63 1996.93 1389.63 L1992.95 1389.58 L1988.87 1389.63 Q1988.24 1389.63 1986.91 1389.68 Q1985.57 1389.72 1984.94 1389.72 Q1984.12 1389.72 1984.12 1389.14 Q1984.12 1388.48 1984.42 1388.36 Q1984.75 1388.25 1986.13 1388.25 Q1988.08 1388.25 1989.13 1388.15 Q1990.18 1388.06 1990.75 1387.73 Q1991.33 1387.4 1991.5 1387.08 Q1991.66 1386.73 1991.85 1385.93 L1998.29 1360.33 Q1998.48 1359.77 1998.48 1359.32 Q1998.48 1359.09 1998.41 1358.99 Q1998.36 1358.9 1998.05 1358.83 Q1997.75 1358.74 1997.12 1358.74 L1995.24 1358.74 Q1993.32 1358.74 1992.13 1358.83 Q1990.96 1358.9 1989.83 1359.25 Q1988.73 1359.6 1988.08 1360.09 Q1987.44 1360.59 1986.74 1361.59 Q1986.04 1362.6 1985.52 1363.82 Q1985.03 1365.04 1984.33 1367.03 Q1984.09 1367.68 1983.95 1367.87 Q1983.84 1368.03 1983.51 1368.03 Q1983.27 1368.03 1983.09 1367.89 Q1982.92 1367.73 1982.92 1367.52 Q1983.16 1366.75 1983.2 1366.65 L1986.09 1358.2 Q1986.32 1357.52 1986.53 1357.4 Q1986.76 1357.26 1987.63 1357.26 L2014.24 1357.26 Q2014.66 1357.26 2014.8 1357.26 Q2014.94 1357.26 2015.18 1357.31 Q2015.41 1357.35 2015.48 1357.47 Q2015.55 1357.59 2015.55 1357.78 Z" fill="#000000" fill-rule="evenodd" fill-opacity="1" /><path clip-path="url(#clip740)" d="M 0 0 M2010.66 1377.73 Q2010.66 1369.63 2013.68 1363.09 Q2014.97 1360.35 2016.78 1358.06 Q2018.58 1355.76 2019.77 1354.75 Q2020.97 1353.75 2021.3 1353.75 Q2021.76 1353.75 2021.79 1354.21 Q2021.79 1354.45 2021.16 1355.03 Q2013.43 1362.9 2013.45 1377.73 Q2013.45 1392.6 2020.97 1400.17 Q2021.79 1400.99 2021.79 1401.25 Q2021.79 1401.72 2021.3 1401.72 Q2020.97 1401.72 2019.82 1400.76 Q2018.67 1399.8 2016.89 1397.59 Q2015.11 1395.39 2013.82 1392.7 Q2010.66 1386.16 2010.66 1377.73 Z" fill="#000000" fill-rule="evenodd" fill-opacity="1" /><path clip-path="url(#clip740)" d="M 0 0 M2052.97 1371.69 Q2052.97 1373 2052.15 1373.75 Q2051.33 1374.48 2050.39 1374.48 Q2049.5 1374.48 2049.03 1373.96 Q2048.57 1373.44 2048.57 1372.79 Q2048.57 1371.9 2049.22 1371.13 Q2049.88 1370.35 2050.86 1370.19 Q2049.9 1369.58 2048.47 1369.58 Q2047.54 1369.58 2046.72 1370.07 Q2045.92 1370.56 2045.43 1371.2 Q2044.96 1371.83 2044.54 1372.74 Q2044.14 1373.63 2043.97 1374.17 Q2043.83 1374.69 2043.72 1375.25 L2042.08 1381.81 Q2041.28 1384.92 2041.28 1386.02 Q2041.28 1387.38 2041.94 1388.29 Q2042.59 1389.18 2043.9 1389.18 Q2044.42 1389.18 2045.01 1389.04 Q2045.59 1388.88 2046.34 1388.46 Q2047.11 1388.01 2047.79 1387.36 Q2048.5 1386.68 2049.17 1385.53 Q2049.85 1384.38 2050.3 1382.91 Q2050.44 1382.39 2050.91 1382.39 Q2051.49 1382.39 2051.49 1382.86 Q2051.49 1383.26 2051.17 1384.1 Q2050.86 1384.92 2050.18 1386 Q2049.53 1387.05 2048.66 1388.01 Q2047.79 1388.95 2046.5 1389.61 Q2045.22 1390.26 2043.81 1390.26 Q2041.8 1390.26 2040.46 1389.18 Q2039.13 1388.11 2038.63 1386.61 Q2038.52 1386.82 2038.35 1387.1 Q2038.19 1387.38 2037.7 1388.01 Q2037.23 1388.62 2036.69 1389.09 Q2036.15 1389.54 2035.31 1389.89 Q2034.49 1390.26 2033.6 1390.26 Q2032.47 1390.26 2031.47 1389.93 Q2030.48 1389.61 2029.78 1388.86 Q2029.08 1388.11 2029.08 1387.08 Q2029.08 1385.93 2029.85 1385.13 Q2030.65 1384.31 2031.72 1384.31 Q2032.4 1384.31 2032.94 1384.71 Q2033.5 1385.11 2033.5 1385.98 Q2033.5 1386.94 2032.85 1387.66 Q2032.19 1388.39 2031.26 1388.58 Q2032.22 1389.18 2033.65 1389.18 Q2035.19 1389.18 2036.41 1387.83 Q2037.63 1386.47 2038.21 1384.2 Q2039.67 1378.74 2040.23 1376.3 Q2040.79 1373.84 2040.79 1372.79 Q2040.79 1371.81 2040.53 1371.13 Q2040.27 1370.45 2039.83 1370.14 Q2039.41 1369.81 2039.01 1369.7 Q2038.63 1369.58 2038.21 1369.58 Q2037.51 1369.58 2036.71 1369.86 Q2035.94 1370.14 2035 1370.8 Q2034.09 1371.43 2033.22 1372.74 Q2032.36 1374.05 2031.77 1375.86 Q2031.65 1376.4 2031.14 1376.4 Q2030.58 1376.37 2030.58 1375.9 Q2030.58 1375.51 2030.88 1374.69 Q2031.21 1373.84 2031.87 1372.79 Q2032.54 1371.73 2033.41 1370.8 Q2034.3 1369.84 2035.59 1369.18 Q2036.9 1368.53 2038.31 1368.53 Q2038.94 1368.53 2039.55 1368.67 Q2040.18 1368.78 2040.93 1369.14 Q2041.7 1369.49 2042.38 1370.26 Q2043.06 1371.03 2043.48 1372.16 Q2043.76 1371.62 2044.14 1371.1 Q2044.54 1370.59 2045.15 1369.95 Q2045.78 1369.3 2046.64 1368.92 Q2047.54 1368.53 2048.52 1368.53 Q2049.48 1368.53 2050.42 1368.78 Q2051.35 1369.02 2052.15 1369.79 Q2052.97 1370.54 2052.97 1371.69 Z" fill="#000000" fill-rule="evenodd" fill-opacity="1" /><path clip-path="url(#clip740)" d="M 0 0 M2069.54 1382.44 Q2069.59 1381.85 2070.5 1381.85 L2099.9 1381.85 Q2101.28 1381.85 2101.3 1382.39 Q2101.3 1382.98 2099.99 1382.95 L2070.83 1382.95 Q2069.54 1382.98 2069.54 1382.44 M2069.54 1373.07 Q2069.54 1372.48 2070.55 1372.51 L2099.85 1372.51 Q2101.28 1372.51 2101.3 1373.07 Q2101.3 1373.61 2100.09 1373.61 L2070.5 1373.61 Q2069.54 1373.61 2069.54 1373.07 Z" fill="#000000" fill-rule="evenodd" fill-opacity="1" /><path clip-path="url(#clip740)" d="M 0 0 M2143.68 1371.69 Q2143.68 1373 2142.87 1373.75 Q2142.05 1374.48 2141.11 1374.48 Q2140.22 1374.48 2139.75 1373.96 Q2139.28 1373.44 2139.28 1372.79 Q2139.28 1371.9 2139.94 1371.13 Q2140.59 1370.35 2141.58 1370.19 Q2140.62 1369.58 2139.19 1369.58 Q2138.25 1369.58 2137.43 1370.07 Q2136.63 1370.56 2136.14 1371.2 Q2135.67 1371.83 2135.25 1372.74 Q2134.85 1373.63 2134.69 1374.17 Q2134.55 1374.69 2134.43 1375.25 L2132.79 1381.81 Q2132 1384.92 2132 1386.02 Q2132 1387.38 2132.65 1388.29 Q2133.31 1389.18 2134.62 1389.18 Q2135.14 1389.18 2135.72 1389.04 Q2136.31 1388.88 2137.06 1388.46 Q2137.83 1388.01 2138.51 1387.36 Q2139.21 1386.68 2139.89 1385.53 Q2140.57 1384.38 2141.01 1382.91 Q2141.16 1382.39 2141.62 1382.39 Q2142.21 1382.39 2142.21 1382.86 Q2142.21 1383.26 2141.88 1384.1 Q2141.58 1384.92 2140.9 1386 Q2140.24 1387.05 2139.38 1388.01 Q2138.51 1388.95 2137.22 1389.61 Q2135.93 1390.26 2134.53 1390.26 Q2132.51 1390.26 2131.18 1389.18 Q2129.84 1388.11 2129.35 1386.61 Q2129.23 1386.82 2129.07 1387.1 Q2128.91 1387.38 2128.41 1388.01 Q2127.94 1388.62 2127.41 1389.09 Q2126.87 1389.54 2126.02 1389.89 Q2125.2 1390.26 2124.31 1390.26 Q2123.19 1390.26 2122.18 1389.93 Q2121.2 1389.61 2120.5 1388.86 Q2119.79 1388.11 2119.79 1387.08 Q2119.79 1385.93 2120.57 1385.13 Q2121.36 1384.31 2122.44 1384.31 Q2123.12 1384.31 2123.66 1384.71 Q2124.22 1385.11 2124.22 1385.98 Q2124.22 1386.94 2123.56 1387.66 Q2122.91 1388.39 2121.97 1388.58 Q2122.93 1389.18 2124.36 1389.18 Q2125.91 1389.18 2127.13 1387.83 Q2128.34 1386.47 2128.93 1384.2 Q2130.38 1378.74 2130.94 1376.3 Q2131.51 1373.84 2131.51 1372.79 Q2131.51 1371.81 2131.25 1371.13 Q2130.99 1370.45 2130.54 1370.14 Q2130.12 1369.81 2129.73 1369.7 Q2129.35 1369.58 2128.93 1369.58 Q2128.23 1369.58 2127.43 1369.86 Q2126.66 1370.14 2125.72 1370.8 Q2124.81 1371.43 2123.94 1372.74 Q2123.07 1374.05 2122.49 1375.86 Q2122.37 1376.4 2121.86 1376.4 Q2121.29 1376.37 2121.29 1375.9 Q2121.29 1375.51 2121.6 1374.69 Q2121.93 1373.84 2122.58 1372.79 Q2123.26 1371.73 2124.13 1370.8 Q2125.02 1369.84 2126.31 1369.18 Q2127.62 1368.53 2129.02 1368.53 Q2129.65 1368.53 2130.26 1368.67 Q2130.9 1368.78 2131.65 1369.14 Q2132.42 1369.49 2133.1 1370.26 Q2133.78 1371.03 2134.2 1372.16 Q2134.48 1371.62 2134.85 1371.1 Q2135.25 1370.59 2135.86 1369.95 Q2136.49 1369.3 2137.36 1368.92 Q2138.25 1368.53 2139.23 1368.53 Q2140.19 1368.53 2141.13 1368.78 Q2142.07 1369.02 2142.87 1369.79 Q2143.68 1370.54 2143.68 1371.69 Z" fill="#000000" fill-rule="evenodd" fill-opacity="1" /><path clip-path="url(#clip740)" d="M 0 0 M2161.34 1395.3 Q2161.47 1395.44 2161.47 1395.59 Q2161.47 1395.74 2161.15 1396.17 Q2160.83 1396.59 2160.16 1397.17 Q2159.49 1397.74 2158.62 1398.28 Q2157.75 1398.82 2156.47 1399.18 Q2155.19 1399.56 2153.85 1399.56 Q2151.44 1399.56 2150 1397.84 Q2148.57 1396.12 2148.57 1393.48 Q2148.57 1391.79 2149.13 1390.3 Q2149.69 1388.79 2150.59 1387.72 Q2151.51 1386.66 2152.65 1385.89 Q2153.82 1385.1 2155.03 1384.72 Q2156.24 1384.34 2157.37 1384.34 Q2159.03 1384.34 2160 1385.18 Q2160.97 1386.02 2160.97 1387.2 Q2160.97 1387.48 2160.88 1387.82 Q2160.82 1388.16 2160.59 1388.71 Q2160.38 1389.25 2159.82 1389.79 Q2159.26 1390.31 2158.44 1390.66 Q2156.62 1391.43 2153.31 1391.43 L2151.52 1391.43 Q2151 1393.54 2151 1394.92 Q2151 1395.46 2151.1 1396.02 Q2151.19 1396.56 2151.46 1397.25 Q2151.73 1397.94 2152.36 1398.38 Q2153 1398.8 2153.92 1398.8 Q2154.21 1398.8 2154.52 1398.79 Q2154.85 1398.77 2155.67 1398.59 Q2156.51 1398.41 2157.24 1398.1 Q2157.98 1397.79 2158.92 1397.12 Q2159.87 1396.43 2160.62 1395.49 Q2160.88 1395.15 2161.06 1395.15 Q2161.21 1395.15 2161.34 1395.3 M2159.85 1387.2 Q2159.85 1386.3 2159.18 1385.69 Q2158.52 1385.08 2157.37 1385.08 Q2157.01 1385.08 2156.57 1385.16 Q2156.13 1385.25 2155.39 1385.59 Q2154.67 1385.93 2154.03 1386.51 Q2153.39 1387.07 2152.75 1388.16 Q2152.11 1389.25 2151.73 1390.69 L2153.11 1390.69 Q2153.59 1390.69 2153.93 1390.69 Q2154.28 1390.67 2155.03 1390.61 Q2155.8 1390.54 2156.36 1390.43 Q2156.92 1390.3 2157.62 1390.03 Q2158.33 1389.77 2158.77 1389.43 Q2159.23 1389.07 2159.54 1388.49 Q2159.85 1387.92 2159.85 1387.2 Z" fill="#000000" fill-rule="evenodd" fill-opacity="1" /><path clip-path="url(#clip740)" d="M 0 0 M2167.14 1388.95 Q2166.47 1388.18 2166.47 1387.17 Q2166.47 1386.16 2167.12 1385.41 Q2167.8 1384.64 2169.02 1384.64 Q2170.45 1384.64 2171.27 1386.02 Q2172.09 1387.38 2172.09 1389.68 Q2172.09 1392.16 2171.08 1394.45 Q2170.07 1396.77 2169.09 1397.87 Q2168.1 1398.98 2167.71 1398.98 Q2167.24 1398.98 2167.24 1398.46 Q2167.24 1398.27 2167.57 1397.92 Q2171.01 1394.22 2171.03 1389.68 Q2171.03 1388.95 2170.94 1388.95 L2170.82 1389.04 Q2170 1389.72 2169.02 1389.72 Q2167.82 1389.72 2167.14 1388.95 Z" fill="#000000" fill-rule="evenodd" fill-opacity="1" /><path clip-path="url(#clip740)" d="M 0 0 M2187.22 1374.38 Q2187.22 1367.33 2189 1363.49 Q2191.48 1357.78 2197.34 1357.78 Q2198.58 1357.78 2199.87 1358.13 Q2201.18 1358.45 2202.82 1359.74 Q2204.48 1361.03 2205.49 1363.14 Q2207.41 1367.21 2207.41 1374.38 Q2207.41 1381.38 2205.63 1385.2 Q2203.03 1390.78 2197.29 1390.78 Q2195.14 1390.78 2192.93 1389.68 Q2190.76 1388.58 2189.37 1385.93 Q2187.22 1381.97 2187.22 1374.38 M2191.2 1373.8 Q2191.2 1381.03 2191.72 1383.91 Q2192.3 1387.03 2193.89 1388.39 Q2195.51 1389.72 2197.29 1389.72 Q2199.21 1389.72 2200.8 1388.29 Q2202.42 1386.84 2202.91 1383.73 Q2203.45 1380.66 2203.43 1373.8 Q2203.43 1367.12 2202.96 1364.45 Q2202.33 1361.34 2200.64 1360.09 Q2198.98 1358.83 2197.29 1358.83 Q2196.66 1358.83 2195.98 1359.02 Q2195.32 1359.2 2194.36 1359.74 Q2193.4 1360.28 2192.65 1361.62 Q2191.93 1362.95 2191.58 1364.97 Q2191.2 1367.57 2191.2 1373.8 Z" fill="#000000" fill-rule="evenodd" fill-opacity="1" /><path clip-path="url(#clip740)" d="M 0 0 M2210.97 1401.25 Q2210.97 1401.01 2211.58 1400.43 Q2219.31 1392.56 2219.31 1377.73 Q2219.31 1362.86 2211.88 1355.34 Q2210.97 1354.47 2210.97 1354.21 Q2210.97 1353.75 2211.44 1353.75 Q2211.76 1353.75 2212.91 1354.71 Q2214.08 1355.67 2215.84 1357.87 Q2217.62 1360.07 2218.93 1362.76 Q2222.09 1369.3 2222.09 1377.73 Q2222.09 1385.84 2219.07 1392.37 Q2217.78 1395.11 2215.98 1397.41 Q2214.18 1399.7 2212.98 1400.71 Q2211.79 1401.72 2211.44 1401.72 Q2210.97 1401.72 2210.97 1401.25 Z" fill="#000000" fill-rule="evenodd" fill-opacity="1" /></svg>
